<svg width="46" height="46" viewBox="0 0 46 46" fill="none" xmlns="http://www.w3.org/2000/svg">
<circle cx="23" cy="23" r="23" fill="#F9F9F9"/>
<path d="M25.1145 24.4157C25.4482 23.9965 25.6707 23.7868 25.7819 23.7868C25.8932 23.7868 26.3082 23.9751 27.0269 24.3516C27.7542 24.7281 28.1393 24.9548 28.1821 25.0318C28.1992 25.0746 28.2077 25.1388 28.2077 25.2243C28.2077 25.5067 28.135 25.8318 27.9895 26.1998C27.8526 26.5335 27.5489 26.8158 27.0783 27.0469C26.6077 27.2693 26.1713 27.3806 25.7691 27.3806C25.2814 27.3806 24.4685 27.1153 23.3305 26.5848C22.492 26.1998 21.7646 25.6949 21.1486 25.0703C20.5325 24.4457 19.8993 23.6542 19.249 22.6959C18.633 21.7803 18.3292 20.9503 18.3378 20.2059V20.1032C18.3634 19.3246 18.68 18.6486 19.2875 18.0753C19.4929 17.8871 19.7154 17.793 19.9549 17.793C20.0063 17.793 20.0833 17.8015 20.186 17.8186C20.2886 17.8272 20.3699 17.8315 20.4298 17.8315C20.5924 17.8315 20.7036 17.8614 20.7635 17.9213C20.832 17.9727 20.9004 18.0882 20.9689 18.2679C21.0373 18.439 21.1785 18.8155 21.3924 19.3973C21.6064 19.9792 21.7133 20.3 21.7133 20.3599C21.7133 20.5396 21.5636 20.7878 21.2641 21.1044C20.9732 21.4124 20.8277 21.6092 20.8277 21.6948C20.8277 21.7546 20.8491 21.8188 20.8919 21.8873C21.1828 22.5119 21.6192 23.098 22.201 23.6456C22.6802 24.0991 23.3262 24.5312 24.1391 24.942C24.2418 25.0019 24.3359 25.0318 24.4215 25.0318C24.5498 25.0318 24.7808 24.8265 25.1145 24.4157ZM23.1765 30.5893C24.2632 30.5893 25.3028 30.3754 26.2953 29.9475C27.2965 29.5197 28.1564 28.9464 28.8751 28.2277C29.5939 27.5089 30.1672 26.6533 30.595 25.6607C31.0228 24.6596 31.2367 23.6157 31.2367 22.529C31.2367 21.4423 31.0228 20.4027 30.595 19.4102C30.1672 18.409 29.5939 17.5491 28.8751 16.8304C28.1564 16.1116 27.2965 15.5383 26.2953 15.1105C25.3028 14.6827 24.2632 14.4687 23.1765 14.4687C22.0898 14.4687 21.0459 14.6827 20.0448 15.1105C19.0522 15.5383 18.1966 16.1116 17.4778 16.8304C16.7591 17.5491 16.1858 18.409 15.758 19.4102C15.3301 20.4027 15.1162 21.4423 15.1162 22.529C15.1162 24.266 15.6296 25.8404 16.6564 27.2522L15.6424 30.2427L18.7485 29.2545C20.1004 30.1443 21.5764 30.5893 23.1765 30.5893ZM19.4159 13.6217C20.6138 13.1083 21.8673 12.8516 23.1765 12.8516C24.4856 12.8516 25.7349 13.1083 26.9242 13.6217C28.1222 14.135 29.1532 14.8238 30.0174 15.6881C30.8817 16.5523 31.5705 17.5833 32.0838 18.7812C32.5972 19.9706 32.8539 21.2199 32.8539 22.529C32.8539 23.8382 32.5972 25.0917 32.0838 26.2896C31.5705 27.479 30.8817 28.5058 30.0174 29.37C29.1532 30.2342 28.1222 30.923 26.9242 31.4364C25.7349 31.9498 24.4856 32.2065 23.1765 32.2065C21.508 32.2065 19.9464 31.8043 18.4918 31L13.1396 32.7199L14.8852 27.5218C13.9611 25.9987 13.499 24.3344 13.499 22.529C13.499 21.2199 13.7557 19.9706 14.2691 18.7812C14.7825 17.5833 15.4713 16.5523 16.3355 15.6881C17.1997 14.8238 18.2265 14.135 19.4159 13.6217Z" fill="#222222"/>
</svg>
