<svg width="46" height="46" viewBox="0 0 46 46" fill="none" xmlns="http://www.w3.org/2000/svg">
<circle cx="23" cy="23" r="23" fill="#F9F9F9"/>
<path d="M30.2344 14.5329C30.4431 14.6847 30.5285 14.8871 30.4905 15.1401L28.0619 29.7115C28.0303 29.8949 27.9291 30.0372 27.7584 30.1384C27.6698 30.189 27.5718 30.2143 27.4643 30.2143C27.3947 30.2143 27.3188 30.1985 27.2366 30.1669L22.9392 28.4118L20.6434 31.2104C20.5296 31.3558 20.3746 31.4286 20.1786 31.4286C20.0964 31.4286 20.0268 31.4159 19.9699 31.3906C19.8497 31.3464 19.7517 31.2705 19.6758 31.1629C19.6062 31.0618 19.5714 30.9479 19.5714 30.8214V27.5106L27.7679 17.4643L17.6267 26.2394L13.8795 24.7026C13.6455 24.614 13.519 24.4401 13.5 24.1808C13.4874 23.9278 13.5885 23.7413 13.8036 23.6211L29.5893 14.514C29.6842 14.457 29.7853 14.4286 29.8929 14.4286C30.0193 14.4286 30.1332 14.4634 30.2344 14.5329Z" fill="#222222"/>
</svg>
