<svg width="252" height="44" viewBox="0 0 252 44" fill="none" xmlns="http://www.w3.org/2000/svg">
<path d="M29.6171 2.49354C28.3449 3.81664 26.5638 6.25929 25.6987 7.83684L24.0703 10.6866L22.7472 9.71972C21.9839 9.21083 19.9483 8.04039 18.2181 7.17529L15.0121 5.59774L14.2488 6.76818C13.8417 7.42973 13.1801 9.71972 12.8748 11.857C12.5186 13.9944 12.0606 15.7755 11.8061 15.7755C11.5517 15.7755 10.025 15.4192 8.4475 15.0121C6.86996 14.605 4.32553 14.2488 2.79887 14.147L0 13.9944L0.101777 16.3861C0.254443 19.3377 1.88288 23.6123 3.00243 23.8158C4.0202 24.0194 4.0202 23.0525 3.1042 20.8134C2.74798 19.8465 2.2391 18.3199 2.03554 17.353L1.67932 15.6737L3.86753 16.0299C7.88773 16.6406 13.689 18.3708 17.4548 20.101L21.1188 21.8312V24.5283C21.1188 27.4798 22.1365 29.668 23.1034 28.752C23.4596 28.3449 23.5105 27.6325 23.1543 26.4621C22.0347 22.5945 22.7981 22.4419 26.2076 25.9532C28.752 28.5994 30.3805 31.9071 31.042 36.1309L31.3982 38.4209L29.3118 36.3853C28.1414 35.2658 26.6656 33.6373 26.0549 32.7213C24.8336 30.8894 23.6632 30.5331 23.6632 32.0089C23.6632 32.874 27.0218 37.1487 28.752 38.5226C29.9734 39.4386 29.2609 39.5913 25.4443 39.1333C21.1188 38.6244 16.5388 36.996 13.689 35.0622C11.4499 33.5356 7.83684 29.668 6.46285 27.378C5.69952 26.0549 3.81664 25.3934 3.81664 26.4112C3.81664 26.6656 4.57997 27.9887 5.54685 29.4136L7.32795 31.958L4.0202 33.332C1.83199 34.248 0.763328 35.0113 0.763328 35.622C0.763328 36.7924 8.04039 40.8635 13.231 42.5937C18.3708 44.2731 25.6478 44.4766 29.2609 43.0517C30.5331 42.5428 31.9071 42.1357 32.3142 42.1357C32.7213 42.1357 34.0953 42.5428 35.3676 43.0517C38.9806 44.4766 46.2577 44.2731 51.4483 42.5428C55.8248 41.118 57.5041 39.9475 56.0283 39.3878C55.5703 39.2351 54.0945 39.5404 52.7714 40.1002C49.4637 41.4742 45.5962 42.2375 41.8304 42.1866C37.3013 42.1357 35.9273 41.4742 39.5404 41.0671C45.3417 40.3546 50.1252 38.3191 54.7561 34.5533L56.1301 33.4847L58.5727 34.5533L61.0154 35.6729L59.5396 36.8942C58.2165 37.912 58.1147 38.1155 58.8781 38.4209C60.0485 38.8789 63.8651 36.6907 63.8651 35.5711C63.8651 35.0113 62.7965 34.248 60.6083 33.332L57.3514 31.958L59.2852 29.1591C61.8805 25.4443 64.3231 19.4903 64.5267 16.437L64.6285 13.9944L61.8296 14.147C60.3029 14.2488 57.7585 14.605 56.181 15.0121C54.6034 15.4192 53.0768 15.7755 52.8223 15.7755C52.5679 15.7755 52.1099 13.9944 51.7537 11.857C51.4483 9.71972 50.7868 7.42973 50.3797 6.76818L49.6164 5.59774L46.4104 7.17529C44.6802 8.04039 42.6446 9.21083 41.8813 9.71972L40.5582 10.6866L38.9298 7.88773C37.4031 5.24152 35.8764 4.22375 35.8764 5.85218C35.8764 6.25929 36.538 7.68417 37.3522 9.00727C38.1664 10.3813 39.4895 13.2819 40.2529 15.521C43.0517 23.765 41.8813 29.4645 36.0291 35.5202L33.2811 38.4209L33.5865 36.3853C34.1971 32.4669 35.5202 29.4136 37.7593 26.6147C39.4895 24.4774 39.8966 23.6632 39.4386 23.2052C38.6244 22.4419 34.8078 26.6656 33.5356 29.7698C32.9758 31.042 32.4669 32.0598 32.3142 32.0598C32.1616 32.0598 31.6527 31.042 31.0929 29.7698C30.0751 27.1745 26.5129 23.0016 24.4265 21.8821C23.1543 21.2205 23.0525 20.9661 23.3579 18.9814C23.765 15.979 25.8514 11.0937 28.2432 7.32795C30.8894 3.30776 32.1107 2.13732 32.9249 2.95154C33.7391 3.76575 34.8587 3.71487 34.8587 2.90065C34.8587 2.2391 32.8231 0 32.2125 0C32.0598 0 30.8894 1.11955 29.6171 2.49354ZM19.3885 9.97416C21.017 10.941 22.5945 11.9588 22.7981 12.1624C23.0525 12.4168 22.849 13.8417 22.391 15.3175C20.9152 20.101 21.2714 19.8974 17.6074 18.1672L14.3506 16.6406L14.6559 13.2819C14.9612 9.7706 15.3683 8.14217 15.979 8.14217C16.1826 8.14217 17.7092 8.95639 19.3885 9.97416ZM49.4637 9.51616C49.6672 10.3304 49.8199 12.2641 49.8708 13.8926V16.895L46.7157 18.3199L43.5606 19.7448L42.492 16.1826C41.8813 14.1979 41.576 12.4168 41.8304 12.1624C42.492 11.5517 48.2424 8.14217 48.7004 8.14217C48.9039 8.14217 49.2601 8.75283 49.4637 9.51616ZM62.5929 17.4039C61.4734 22.4927 57.6059 29.21 53.6365 32.8231C50.7868 35.4184 48.4968 36.7924 45.2399 37.8611C42.7973 38.6753 35.8256 39.744 35.4184 39.3878C35.3167 39.286 36.4362 37.912 37.912 36.2835C41.4742 32.416 43.5097 28.0905 43.5097 24.5283V21.8312L46.7157 20.4063C50.7868 18.5234 54.1963 17.353 58.013 16.5388C62.7965 15.4701 63 15.521 62.5929 17.4039ZM11.0937 35.4184C12.2133 36.4362 14.2997 37.8102 15.7755 38.4718C18.4217 39.6931 24.223 41.1689 26.7165 41.2197L27.9887 41.2706L26.7165 41.8304C24.5283 42.6955 17.2003 41.9831 12.9766 40.4564C9.3635 39.1333 3.81664 36.3344 3.81664 35.8256C3.81664 35.5202 7.93862 33.6373 8.60017 33.5865C8.85461 33.5865 9.97416 34.4007 11.0937 35.4184Z" fill="url(#paint0_linear_15_1094)"/>
<path d="M85.448 14.377C86.4613 14.377 87.386 14.5417 88.222 14.871C89.0707 15.1877 89.7927 15.6437 90.388 16.239C90.996 16.8217 91.4647 17.5373 91.794 18.386C92.136 19.222 92.307 20.1593 92.307 21.198C92.307 22.224 92.1423 23.1677 91.813 24.029C91.4837 24.8777 91.015 25.6123 90.407 26.233C89.799 26.841 89.0707 27.316 88.222 27.658C87.386 27.9873 86.455 28.152 85.429 28.152C84.3777 28.152 83.4277 27.9873 82.579 27.658C81.7303 27.3287 81.002 26.8663 80.394 26.271C79.7987 25.663 79.3363 24.9347 79.007 24.086C78.6903 23.2373 78.532 22.2937 78.532 21.255C78.532 20.2163 78.6967 19.2727 79.026 18.424C79.368 17.5753 79.843 16.8533 80.451 16.258C81.059 15.6627 81.7873 15.2003 82.636 14.871C83.4847 14.5417 84.422 14.377 85.448 14.377ZM82.047 21.236C82.047 21.692 82.1103 22.1417 82.237 22.585C82.3763 23.0157 82.5853 23.4083 82.864 23.763C83.1427 24.105 83.4973 24.3837 83.928 24.599C84.3713 24.8017 84.9033 24.903 85.524 24.903C86.1067 24.903 86.6007 24.7953 87.006 24.58C87.424 24.352 87.766 24.067 88.032 23.725C88.298 23.3703 88.488 22.984 88.602 22.566C88.7287 22.1353 88.792 21.711 88.792 21.293C88.792 20.9003 88.735 20.4887 88.621 20.058C88.507 19.6147 88.317 19.2157 88.051 18.861C87.785 18.5063 87.4367 18.215 87.006 17.987C86.588 17.7463 86.075 17.626 85.467 17.626C84.859 17.626 84.3333 17.7337 83.89 17.949C83.4593 18.1643 83.1047 18.443 82.826 18.785C82.56 19.127 82.3637 19.5133 82.237 19.944C82.1103 20.3747 82.047 20.8053 82.047 21.236ZM96.9288 21.236C96.9288 21.6667 96.9858 22.1037 97.0998 22.547C97.2138 22.9777 97.3911 23.3703 97.6318 23.725C97.8851 24.067 98.2144 24.352 98.6198 24.58C99.0251 24.7953 99.5191 24.903 100.102 24.903C100.849 24.903 101.451 24.7383 101.907 24.409C102.363 24.0797 102.66 23.611 102.8 23.003H106.125C106.061 23.8517 105.852 24.599 105.498 25.245C105.143 25.891 104.687 26.4293 104.13 26.86C103.585 27.2907 102.958 27.6137 102.249 27.829C101.552 28.0443 100.824 28.152 100.064 28.152C99.0251 28.152 98.0878 27.9937 97.2518 27.677C96.4284 27.3603 95.7254 26.9043 95.1428 26.309C94.5728 25.7137 94.1358 24.9917 93.8318 24.143C93.5278 23.2817 93.3758 22.319 93.3758 21.255C93.3758 20.2037 93.5341 19.2537 93.8508 18.405C94.1674 17.5563 94.6171 16.8343 95.1998 16.239C95.7824 15.6437 96.4854 15.1877 97.3088 14.871C98.1321 14.5417 99.0441 14.377 100.045 14.377C100.817 14.377 101.546 14.4847 102.23 14.7C102.926 14.9153 103.534 15.2383 104.054 15.669C104.586 16.087 105.016 16.619 105.346 17.265C105.688 17.911 105.897 18.671 105.973 19.545H102.724C102.572 18.937 102.28 18.4683 101.85 18.139C101.432 17.797 100.843 17.626 100.083 17.626C99.5001 17.626 99.0061 17.7337 98.6008 17.949C98.1954 18.1517 97.8661 18.424 97.6128 18.766C97.3721 19.108 97.1948 19.4943 97.0808 19.925C96.9794 20.3557 96.9288 20.7927 96.9288 21.236ZM106.558 17.74V14.548H117.996V17.74H113.987V28H110.548V17.74H106.558ZM129.516 14.548V17.74H122.809V19.792H128.338V22.832H122.809V24.827H129.516V28H119.37V14.548H129.516ZM137.494 14.377C138.507 14.377 139.432 14.5417 140.268 14.871C141.117 15.1877 141.839 15.6437 142.434 16.239C143.042 16.8217 143.511 17.5373 143.84 18.386C144.182 19.222 144.353 20.1593 144.353 21.198C144.353 22.224 144.188 23.1677 143.859 24.029C143.53 24.8777 143.061 25.6123 142.453 26.233C141.845 26.841 141.117 27.316 140.268 27.658C139.432 27.9873 138.501 28.152 137.475 28.152C136.424 28.152 135.474 27.9873 134.625 27.658C133.776 27.3287 133.048 26.8663 132.44 26.271C131.845 25.663 131.382 24.9347 131.053 24.086C130.736 23.2373 130.578 22.2937 130.578 21.255C130.578 20.2163 130.743 19.2727 131.072 18.424C131.414 17.5753 131.889 16.8533 132.497 16.258C133.105 15.6627 133.833 15.2003 134.682 14.871C135.531 14.5417 136.468 14.377 137.494 14.377ZM134.093 21.236C134.093 21.692 134.156 22.1417 134.283 22.585C134.422 23.0157 134.631 23.4083 134.91 23.763C135.189 24.105 135.543 24.3837 135.974 24.599C136.417 24.8017 136.949 24.903 137.57 24.903C138.153 24.903 138.647 24.7953 139.052 24.58C139.47 24.352 139.812 24.067 140.078 23.725C140.344 23.3703 140.534 22.984 140.648 22.566C140.775 22.1353 140.838 21.711 140.838 21.293C140.838 20.9003 140.781 20.4887 140.667 20.058C140.553 19.6147 140.363 19.2157 140.097 18.861C139.831 18.5063 139.483 18.215 139.052 17.987C138.634 17.7463 138.121 17.626 137.513 17.626C136.905 17.626 136.379 17.7337 135.936 17.949C135.505 18.1643 135.151 18.443 134.872 18.785C134.606 19.127 134.41 19.5133 134.283 19.944C134.156 20.3747 134.093 20.8053 134.093 21.236ZM157.753 14.548V28H154.314V17.702H149.602V28H146.163V14.548H157.753ZM165.944 14.548C166.73 14.548 167.445 14.6303 168.091 14.795C168.75 14.947 169.314 15.213 169.782 15.593C170.264 15.9603 170.631 16.448 170.884 17.056C171.15 17.664 171.283 18.4177 171.283 19.317C171.271 20.2417 171.087 21.0333 170.732 21.692C170.39 22.3507 169.922 22.8827 169.326 23.288C168.858 23.6173 168.319 23.858 167.711 24.01C167.103 24.1493 166.47 24.219 165.811 24.219H163.74V28H160.301V14.548H165.944ZM165.811 21.16C166.47 21.16 166.977 21.008 167.331 20.704C167.699 20.3873 167.889 19.9567 167.901 19.412C167.914 18.842 167.756 18.424 167.426 18.158C167.097 17.8793 166.552 17.74 165.792 17.74H163.74V21.16H165.811ZM174.197 28H170.511L175.907 14.548H179.403L184.742 28H181.037L180.372 26.1H174.881L174.197 28ZM179.289 23.003L177.655 18.386L175.964 23.003H179.289ZM189.364 22.889V28H185.925V14.548H189.364V19.716H191.226L194.133 14.548H198.047L194.057 20.989L198.009 28H194.019L191.302 22.889H189.364ZM198.144 17.74V14.548H209.582V17.74H205.573V28H202.134V17.74H198.144ZM214.395 22.072L220.323 14.548H223.021V28H219.582V20.609L213.654 28H210.956V14.548H214.395V22.072ZM228.997 22.889V28H225.558V14.548H228.997V19.716H230.859L233.766 14.548H237.68L233.69 20.989L237.642 28H233.652L230.935 22.889H228.997ZM241.273 28H237.587L242.983 14.548H246.479L251.818 28H248.113L247.448 26.1H241.957L241.273 28ZM246.365 23.003L244.731 18.386L243.04 23.003H246.365Z" fill="#222222"/>
<defs>
<linearGradient id="paint0_linear_15_1094" x1="-9.63039e-07" y1="8.72605e-06" x2="68.6483" y2="7.57629" gradientUnits="userSpaceOnUse">
<stop stop-color="#D01055"/>
<stop offset="1" stop-color="#D32382"/>
</linearGradient>
</defs>
</svg>
