<svg width="71" height="80" viewBox="0 0 71 80" fill="none" xmlns="http://www.w3.org/2000/svg">
<path d="M28.4759 0.668518C27.6337 0.992432 25.9494 2.15852 24.7185 3.19505C23.5524 4.29635 21.9329 5.13853 21.2202 5.13853C18.6937 5.13853 18.8233 8.37766 21.4794 12.3294C22.3216 13.5603 23.2285 15.9573 23.4229 17.5768L23.8116 20.6216L19.0824 22.889C13.7054 25.4803 10.7902 28.3956 4.63585 37.3356C1.91497 41.3521 1.20236 42.8421 1.72062 43.4899C2.23888 44.1378 2.04454 45.3039 1.20236 47.8952C-1.45373 55.6043 -0.222862 58.2604 10.1424 66.2287C17.4628 71.9296 18.8881 73.6139 19.3415 77.3713C19.7302 80.4161 21.4794 80.9992 21.8033 78.1487C21.9976 76.7883 22.3863 76.3996 23.5524 76.3996C25.8846 76.3996 27.8281 74.3913 28.2168 71.5409C28.4759 69.2087 28.2168 68.5609 25.8198 65.5809C23.4229 62.5361 14.9363 55.1508 12.7337 54.1143C12.0859 53.7904 12.0211 53.6608 12.7337 53.3369C13.1872 53.1426 14.418 52.2356 15.5194 51.3287C16.5559 50.4217 17.5924 49.8387 17.8515 50.033C18.0459 50.2921 18.5641 52.1061 18.9528 54.1791C19.4711 56.7056 20.0542 57.9365 20.6372 57.9365C22.192 57.9365 21.6737 52.8834 19.4063 45.9517C17.1389 38.8256 15.9728 36.8173 14.742 37.9834C14.1589 38.5665 14.3533 39.5382 15.5194 42.3886C17.1389 46.4052 16.9446 47.2473 14.0294 49.0613C12.345 50.033 12.2802 50.033 8.65238 46.9234C6.64411 45.2391 4.8302 43.4252 4.63585 43.0365C4.31193 42.1295 10.9846 32.5417 14.2237 29.2377C19.9246 23.4721 34.6951 19.4555 43.376 21.2694C45.2547 21.6581 49.5303 23.3425 52.8342 24.8973C57.9521 27.4238 59.0534 28.2012 60.4786 30.6629C62.4221 33.9669 66.633 44.2026 66.633 45.563C66.633 46.2108 65.143 46.9882 62.6164 47.7656L58.5351 49.0613L58.2112 42.7773C57.9521 37.8538 57.693 36.5582 56.9156 36.5582C55.6847 36.5582 54.8425 48.4134 54.7129 67.33C54.6482 78.1487 54.7777 79.9627 55.6199 79.9627C56.3973 79.9627 56.6564 78.7318 56.9156 74.3266L57.2395 68.7552L61.5799 64.7387C64.8191 61.7587 66.1147 60.0743 66.633 58.1956C67.6047 54.6974 67.216 50.8104 65.9852 50.8104C65.2725 50.8104 64.8838 51.8469 64.6247 54.4382C64.1712 58.5843 63.3938 59.9448 59.5717 63.1839L56.9156 65.5161V62.9896C56.9156 61.6291 57.1099 58.5843 57.369 56.1226C57.693 52.1061 57.8873 51.7174 59.4421 51.3934C63.2643 50.5513 67.3456 48.9965 68.706 47.96L70.1312 46.7939L68.5765 42.6478C65.9851 35.716 63.0699 29.5616 61.1912 27.359C59.183 24.9621 50.8908 20.6216 45.9673 19.326C43.052 18.6133 42.5986 18.2894 42.9225 17.1233C43.1168 16.4107 43.4407 13.6251 43.6999 10.969C44.0238 6.82288 43.8294 5.78635 42.7281 4.03722C40.7199 0.79808 32.8164 -1.08062 28.4759 0.668518ZM36.8977 3.25983C40.0073 4.29635 41.3677 6.11027 41.3677 9.28462C41.3677 13.3012 40.7846 13.8194 35.6668 14.0786C31.6503 14.3377 31.0024 14.2081 29.7068 12.9125C28.6055 11.8112 27.8281 11.552 26.1437 11.8759C24.265 12.2646 23.9411 12.0703 23.0342 10.1916C22.2568 8.6368 22.192 7.98897 22.775 7.79462C23.1637 7.66505 24.9776 6.43418 26.662 5.00896C30.0955 2.35287 32.6868 1.89938 36.8977 3.25983ZM28.4759 15.5686C29.1237 16.7994 29.642 16.929 34.8894 16.6699C39.2299 16.5403 40.4607 16.6699 40.2664 17.2529C40.072 17.7064 38.8412 18.0951 37.5455 18.0951C36.2499 18.0951 33.3994 18.4838 31.132 19.002C27.3746 19.7794 26.9859 19.7147 26.4676 18.6781C25.6903 17.3177 25.6255 15.2446 26.2733 14.6616C26.9859 13.8842 27.6985 14.1433 28.4759 15.5686ZM7.68064 49.45C9.36499 51.0047 9.94804 51.9117 9.55934 52.4948C8.52281 54.1791 8.97629 54.7621 13.5111 57.8717C19.0824 61.6939 25.8198 68.7552 25.8198 70.7635C25.8198 72.5126 24.7185 73.8083 23.1637 73.8083C22.5159 73.8083 20.8963 72.5774 19.5359 71.0226C18.1755 69.4678 14.742 66.4878 11.8267 64.2852C5.34846 59.3617 2.49802 56.1874 2.49802 53.8552C2.49802 51.2639 3.72889 47.2473 4.57106 47.2473C4.95976 47.2473 6.3202 48.2191 7.68064 49.45Z" fill="url(#paint0_linear_7_3618)"/>
<path d="M9.30026 13.6252C8.782 14.3378 11.8916 19.3909 12.8633 19.3909C14.2885 19.3909 14.159 17.8361 12.6042 15.4391C10.8551 12.8478 10.0129 12.3943 9.30026 13.6252Z" fill="url(#paint1_linear_7_3618)"/>
<path d="M57.1747 15.4391C55.6199 17.8361 55.4903 19.3909 56.9155 19.3909C57.8873 19.3909 60.9969 14.3378 60.4786 13.6252C59.766 12.3943 58.9238 12.8478 57.1747 15.4391Z" fill="url(#paint2_linear_7_3618)"/>
<path d="M64.3656 19.3907C62.3573 21.3989 62.0334 22.1763 62.6164 22.7594C63.2643 23.4072 63.9769 23.0185 66.0499 20.8807C67.5399 19.4554 68.5117 17.9007 68.3173 17.512C67.6047 16.4107 67.0865 16.605 64.3656 19.3907Z" fill="url(#paint3_linear_7_3618)"/>
<path d="M1.46145 18.8076C1.2671 19.1963 2.23884 20.7511 3.72885 22.1763C5.8019 24.3142 6.51451 24.7028 7.16234 24.055C7.74538 23.472 7.42147 22.6946 5.4132 20.6863C2.69232 17.9007 2.17406 17.7063 1.46145 18.8076Z" fill="url(#paint4_linear_7_3618)"/>
<path d="M29.3829 55.6692C27.3746 57.6775 27.0507 58.4549 27.6338 59.0379C28.2816 59.6858 28.9942 59.2971 31.0673 57.1592C32.5573 55.734 33.529 54.1792 33.3347 53.7905C32.6221 52.6892 32.1038 52.8836 29.3829 55.6692Z" fill="url(#paint5_linear_7_3618)"/>
<path d="M35.4076 62.5361C32.3628 64.0909 31.715 64.9331 32.9459 65.7105C33.8529 66.2288 40.2016 62.8601 39.9424 62.0179C39.489 60.7222 38.582 60.8518 35.4076 62.5361Z" fill="url(#paint6_linear_7_3618)"/>
<path d="M32.6221 71.8001C31.9743 72.9662 32.7517 73.614 35.8612 74.3914C38.8413 75.104 40.0721 74.9744 40.0721 73.7435C40.0721 72.5127 33.3347 70.7635 32.6221 71.8001Z" fill="url(#paint7_linear_7_3618)"/>
<defs>
<linearGradient id="paint0_linear_7_3618" x1="-1.04504e-06" y1="1.58655e-05" x2="75.075" y2="4.94508" gradientUnits="userSpaceOnUse">
<stop stop-color="#4DD95B"/>
<stop offset="1" stop-color="#93D94D"/>
</linearGradient>
<linearGradient id="paint1_linear_7_3618" x1="9.24243" y1="12.9712" x2="14.1882" y2="13.2383" gradientUnits="userSpaceOnUse">
<stop stop-color="#4DD95B"/>
<stop offset="1" stop-color="#93D94D"/>
</linearGradient>
<linearGradient id="paint2_linear_7_3618" x1="55.9229" y1="12.9712" x2="60.8687" y2="13.2383" gradientUnits="userSpaceOnUse">
<stop stop-color="#4DD95B"/>
<stop offset="1" stop-color="#93D94D"/>
</linearGradient>
<linearGradient id="paint3_linear_7_3618" x1="62.3569" y1="16.8868" x2="68.7576" y2="17.3542" gradientUnits="userSpaceOnUse">
<stop stop-color="#4DD95B"/>
<stop offset="1" stop-color="#93D94D"/>
</linearGradient>
<linearGradient id="paint4_linear_7_3618" x1="1.43677" y1="18.1824" x2="7.83741" y2="18.6499" gradientUnits="userSpaceOnUse">
<stop stop-color="#4DD95B"/>
<stop offset="1" stop-color="#93D94D"/>
</linearGradient>
<linearGradient id="paint5_linear_7_3618" x1="27.3743" y1="53.1653" x2="33.7749" y2="53.6328" gradientUnits="userSpaceOnUse">
<stop stop-color="#4DD95B"/>
<stop offset="1" stop-color="#93D94D"/>
</linearGradient>
<linearGradient id="paint6_linear_7_3618" x1="32.3582" y1="61.1463" x2="40.3979" y2="62.1394" gradientUnits="userSpaceOnUse">
<stop stop-color="#4DD95B"/>
<stop offset="1" stop-color="#93D94D"/>
</linearGradient>
<linearGradient id="paint7_linear_7_3618" x1="32.4109" y1="71.4849" x2="40.4103" y2="72.8633" gradientUnits="userSpaceOnUse">
<stop stop-color="#4DD95B"/>
<stop offset="1" stop-color="#93D94D"/>
</linearGradient>
</defs>
</svg>
