<svg width="72" height="80" viewBox="0 0 72 80" fill="none" xmlns="http://www.w3.org/2000/svg">
<path d="M26.4229 1.00071C25.7975 1.75124 25.7975 2.50177 26.3604 4.75336C27.1735 7.88058 27.2986 11.1954 26.6106 12.2587C25.9851 13.2594 23.0456 14.6353 18.042 16.2615C15.6653 17.0746 12.6632 18.2004 11.4123 18.8258C8.59784 20.2018 4.7201 24.4548 4.21975 26.7064C4.03211 27.7071 3.71939 28.8329 3.5943 29.3332C3.40667 29.8336 3.65685 31.7099 4.03211 33.4612C4.65756 36.3382 4.59501 36.9011 3.40667 39.2778C2.46851 41.1541 1.90561 43.906 1.4678 49.2223C1.15508 53.2877 0.59218 59.5421 0.279459 63.1697C-0.0332623 66.7972 -0.0958066 71.9884 0.15437 74.7404L0.529636 79.7439L4.7201 79.9315C8.5353 80.1192 8.97311 79.9941 9.84873 78.6181C11.9752 75.3658 13.3512 69.6743 13.9141 61.7937C14.2268 57.4156 14.7897 53.4128 15.1024 52.7873C16.2908 50.7234 16.7286 54.0382 16.7911 64.7333C16.7911 74.3025 16.9162 75.5534 18.1046 77.5548L19.3554 79.7439H35.9297H52.4414L53.8799 76.9294C55.2558 74.24 55.3184 73.6771 54.9431 65.6089C54.6304 59.8548 54.7555 56.2273 55.2558 54.4135C56.3816 50.223 57.1322 52.4121 57.8202 61.7937C58.3831 69.6743 59.759 75.3658 61.8855 78.6181C62.7612 79.9941 63.199 80.1192 67.0142 79.9315L71.2046 79.7439L71.5799 74.7404C71.8301 71.9884 71.7675 66.7972 71.4548 63.1697C71.1421 59.5421 70.5792 53.2877 70.2665 49.2223C69.8286 43.906 69.2657 41.1541 68.3276 39.2778C67.1392 37.0262 67.0767 36.2757 67.6396 33.4612C69.2657 25.3304 65.2004 20.0767 54.3802 16.5117C48.7512 14.6353 45.8117 13.3219 45.1237 12.2587C44.4357 11.1954 44.5608 7.88058 45.3739 4.75336C46.5622 0.250175 46.0618 0 35.8671 0C28.7996 0 27.1109 0.18763 26.4229 1.00071ZM34.6162 7.00495C34.6162 15.1982 32.865 16.9495 20.5438 21.0149C15.0399 22.8912 13.1636 23.8293 11.2247 25.7682C8.91056 28.0824 8.84802 28.27 9.28583 31.147C10.0364 35.9629 9.91127 37.7142 8.5353 41.2792C7.15933 44.8442 5.53317 58.2912 5.53317 66.2969C5.53317 69.4866 5.72081 70.3623 6.47134 70.3623C7.22187 70.3623 7.59713 68.4234 8.47275 60.9806C9.03565 55.7895 9.53601 50.0979 9.53601 48.2841C9.59855 46.2202 10.224 43.5933 11.2247 41.1541C12.8509 37.2764 12.9134 36.1506 11.7251 31.2096C11.0371 28.3325 13.4137 26.5188 22.0449 23.4541C26.2979 21.953 30.8636 19.9516 32.177 19.076L34.6162 17.5124V28.7703C34.6162 39.9658 34.6162 40.0909 33.0526 41.5919C31.1763 43.5308 30.676 43.5308 28.7371 41.5919C25.4848 38.3396 19.9809 40.7163 19.9809 45.3446C19.9809 50.911 27.2986 52.6622 29.8629 47.6587C30.3632 46.7205 31.6141 45.6573 32.6774 45.2195L34.6162 44.5315V53.788C34.6162 63.1697 34.1159 65.8591 32.2396 66.6096C31.7392 66.7972 30.9887 66.5471 30.6134 66.0467C29.4251 64.4206 26.7357 63.7951 24.6092 64.4831C19.418 66.2969 20.8565 74.4276 26.4229 74.4276C28.6745 74.4276 31.489 72.4888 31.489 70.9252C31.489 70.4873 32.3021 69.6743 33.3028 69.0488C35.742 67.6103 37.118 65.046 37.118 61.9813C37.118 60.5428 37.3056 59.417 37.4933 59.417C38.494 59.417 40.2452 60.793 40.2452 61.6061C40.2452 63.2322 42.8721 65.046 45.1862 65.046C51.253 65.046 52.1912 56.9152 46.312 54.8513C44.9986 54.3509 40.8707 55.9145 40.8707 56.8527C40.8707 57.916 39.7449 57.6658 38.3689 56.2898C37.2431 55.164 37.118 54.2258 37.118 45.0944V35.1499L39.0569 35.8378C40.1201 36.2757 41.371 37.3389 41.8714 38.2771C43.5601 41.5919 47.1876 42.2174 50.0021 39.7781C51.3781 38.6523 51.7534 37.7767 51.6908 35.9004C51.5657 31.2096 46.2495 28.958 42.9972 32.2103C40.9958 34.2117 40.0576 34.2117 38.4314 32.1477C37.3056 30.7092 37.118 29.5834 37.118 24.017V17.5124L39.5572 19.076C40.8707 19.9516 45.4364 21.953 49.6894 23.4541C58.3205 26.5188 60.6972 28.3325 60.0092 31.2096C58.8209 36.1506 58.8834 37.2764 60.5096 41.1541C61.5103 43.5933 62.1357 46.2202 62.1983 48.2841C62.1983 50.0979 62.6986 55.7895 63.2615 60.9806C64.1371 68.4234 64.5124 70.3623 65.2629 70.3623C66.0134 70.3623 66.2011 69.4866 66.2011 66.2969C66.2011 58.2912 64.5749 44.8442 63.199 41.2792C61.823 37.7142 61.6979 35.9629 62.4484 31.147C62.8862 28.27 62.8237 28.0824 60.5096 25.7682C58.5707 23.8293 56.6944 22.8912 51.1905 21.0149C38.8693 16.9495 37.118 15.1982 37.118 7.00495V2.50177H40.3078C43.1223 2.50177 43.435 2.62686 43.0597 3.56502C42.747 4.19046 42.4343 6.56715 42.2466 8.88128C41.9965 12.8216 42.1216 13.1968 43.6852 14.6354C44.5608 15.4484 47.5004 16.9495 50.1272 17.8876C63.6993 22.7036 65.7633 24.7675 65.0127 32.8357C64.7 36.4633 64.8251 37.8393 65.8258 40.0909C67.3269 43.5933 68.7029 57.4156 68.7029 68.7987V77.2421L66.4513 77.4298C64.2622 77.6174 64.1371 77.4923 62.7612 74.3025C61.7604 71.9259 61.1975 68.9863 60.8223 63.7951C60.3219 56.9152 58.8834 49.4099 57.7576 47.5962C56.882 46.1576 55.2558 47.346 53.8173 50.4732C52.5664 53.1626 52.4414 54.5386 52.4414 63.7951C52.3788 70.3623 52.1286 74.7404 51.6283 75.8036L50.8777 77.5548H35.8671H20.8565L20.106 75.8662C19.6056 74.7404 19.3554 70.3623 19.2929 63.7951C19.2929 54.5386 19.1678 53.1626 17.9169 50.4732C16.4784 47.346 14.8523 46.1576 13.9766 47.5962C12.8509 49.4099 11.4123 56.9152 10.912 63.7951C10.5367 68.9863 9.97382 71.9259 8.97311 74.3025C7.59713 77.4923 7.47205 77.6174 5.283 77.4298L3.0314 77.2421V68.7987C3.0314 57.228 4.40738 43.5308 5.90844 40.0909C6.90915 37.7767 7.03424 36.4633 6.72151 32.8357C5.97098 24.7675 8.03494 22.7036 21.607 17.8876C24.2339 16.9495 27.1735 15.4484 28.0491 14.6354C29.6127 13.1968 29.7378 12.8216 29.4876 8.88128C29.3 6.56715 28.9873 4.19046 28.6745 3.56502C28.2993 2.62686 28.612 2.50177 31.4265 2.50177H34.6162V7.00495ZM48.0007 33.9615C49.3767 34.9622 49.1265 37.4014 47.6254 38.4022C45.1237 39.9032 42.6219 35.6502 44.9986 33.9615C45.624 33.5237 46.312 33.1484 46.4996 33.1484C46.6873 33.1484 47.3753 33.5237 48.0007 33.9615ZM26.548 43.1555C28.2993 44.1562 28.1116 46.7831 26.1728 47.6587C24.9844 48.1591 24.4215 48.1591 23.671 47.5336C22.4201 46.4704 22.4827 43.9686 23.8586 43.2181C25.1721 42.405 25.1095 42.405 26.548 43.1555ZM47.1251 58.4789C48.0633 59.6047 47.7505 61.2933 46.3746 62.169C44.1855 63.5449 41.7463 60.4803 43.3724 58.4789C44.3731 57.2905 46.1244 57.2905 47.1251 58.4789ZM28.6745 69.0488C28.6745 71.3004 26.9858 72.5513 25.4222 71.5506C22.9205 69.987 24.1714 66.7347 27.0484 67.0474C28.3618 67.1725 28.6745 67.5478 28.6745 69.0488Z" fill="url(#paint0_linear_7_3606)"/>
<defs>
<linearGradient id="paint0_linear_7_3606" x1="-1.06892e-06" y1="1.58655e-05" x2="76.7757" y2="5.17269" gradientUnits="userSpaceOnUse">
<stop stop-color="#4DD95B"/>
<stop offset="1" stop-color="#93D94D"/>
</linearGradient>
</defs>
</svg>
