<svg width="78" height="80" viewBox="0 0 78 80" fill="none" xmlns="http://www.w3.org/2000/svg">
<path d="M37.795 0.719856C31.9085 2.91164 27.525 7.60834 26.022 13.307C24.5191 18.7551 26.2725 25.3931 30.4682 30.1525C32.159 32.0311 32.3469 32.6574 32.3469 36.6652C32.3469 42.9901 31.3449 42.8648 27.5876 36.1016C24.8948 31.217 24.3312 30.5282 22.8283 30.5282H21.1375L22.6404 28.2738C24.4564 25.6436 24.5817 23.7023 23.2666 21.1974C21.5758 17.8158 16.7539 17.1896 13.8106 19.945C12.4955 21.1974 12.4329 21.1974 10.0533 19.5692C5.29395 16.3129 0.346765 18.943 0.0336523 24.8922C-0.0915928 27.6476 0.0962749 28.1485 1.22348 28.6495C1.97495 28.9 4.54248 31.1544 6.98476 33.5967C9.36441 36.039 11.8067 38.0429 12.3077 38.0429C12.8713 38.0429 14.4368 36.9157 15.7519 35.538C17.8185 33.4088 18.5699 33.0331 20.7617 33.0331C23.2666 33.0331 23.3292 33.0957 25.6463 37.354C26.8987 39.6711 27.9633 41.9255 27.9633 42.2386C27.9633 42.5517 25.6463 43.5537 22.7656 44.493C15.9398 46.6848 12.746 48.814 10.8047 52.5087C9.23917 55.3267 9.17654 55.7651 9.17654 66.9745C9.17654 75.1154 9.42703 78.7475 9.92801 79.2485C10.4916 79.8121 18.0063 80 39.9242 80H69.2316L70.1709 78.6223C71.4234 76.8689 71.5486 70.4188 70.3588 69.4168C69.0437 68.3522 68.668 69.2289 68.668 73.5499V77.4951L40.0495 77.3699L11.3683 77.182L11.1805 67.9138C10.9926 56.9549 11.5562 54.2621 14.6873 51.1936C16.5034 49.4402 18.6952 48.3756 24.8322 46.2464C29.1531 44.7435 33.161 43.1153 33.7872 42.5517C34.6639 41.8002 34.8518 40.5478 34.8518 36.4147C34.8518 31.3423 34.7892 31.217 32.5974 28.8374C28.339 24.3912 26.9613 18.8178 28.6522 12.7434C29.4662 9.7375 33.7872 5.04081 37.0436 3.53787C42.2412 1.15821 50.0064 2.47329 53.5759 6.35588C55.2041 8.10931 57.3959 8.54768 57.3959 7.10735C57.3959 5.98015 54.2648 3.28738 50.8832 1.59657C47.6268 -0.0942383 41.114 -0.532593 37.795 0.719856ZM9.48966 22.3873C10.4916 23.3892 11.5562 24.2659 11.8693 24.2659C12.1824 24.2659 13.4349 23.3892 14.6247 22.3873C17.0044 20.2581 18.883 20.0076 20.5738 21.5732C22.8283 23.5771 22.0142 25.5184 16.8165 30.7161L11.9319 35.538L8.55032 32.0938C6.23328 29.7767 5.48181 28.6495 6.23328 28.6495C6.79689 28.6495 7.29787 29.0879 7.29787 29.5888C7.29787 30.9665 9.80277 30.7787 9.86539 29.401C9.86539 28.7121 10.2411 29.0879 10.8674 30.3403C12.1198 32.9078 12.8713 32.9078 13.748 30.5908C14.1237 29.5888 14.9378 28.5869 15.6267 28.399C17.4427 27.9607 16.5034 26.4577 14.3116 26.3951C13.0591 26.3951 11.9319 25.8315 11.1805 24.8922L9.99064 23.3892L9.23917 24.8295C8.55032 26.0194 8.04934 26.2072 5.54444 26.0194C3.03953 25.8315 2.60118 25.6436 2.41331 24.4538C2.16282 22.763 4.35461 20.5086 6.23328 20.5086C7.04738 20.5086 8.4877 21.3227 9.48966 22.3873Z" fill="url(#paint0_linear_7_3607)"/>
<path d="M38.9222 6.29314C36.3546 7.48297 34.7891 9.36165 34.6638 11.4908L34.5386 13.3069L42.8674 13.4947C50.1942 13.62 51.1962 13.5574 51.5719 12.618C52.0729 11.2403 50.6952 8.79804 48.5034 7.16986C46.4369 5.60429 41.4271 5.16593 38.9222 6.29314ZM47.8146 9.54951L49.568 11.0525L43.431 11.1151C38.7343 11.1151 37.294 10.9272 37.4818 10.301C37.9202 9.04853 40.613 7.98395 43.431 7.98395C45.3097 7.98395 46.5621 8.42231 47.8146 9.54951Z" fill="url(#paint1_linear_7_3607)"/>
<path d="M58.3979 10.9901C58.21 11.3032 58.2727 13.6202 58.4605 16.1251C58.7736 19.9451 59.1494 21.0097 60.6523 22.7005L62.4057 24.767L60.8402 25.1428C59.9008 25.3933 59.1494 26.1447 58.8989 27.0841C58.5858 28.3365 58.0848 28.587 55.9556 28.7749C52.2609 29.0254 52.3235 30.7788 56.0182 31.0293C59.0241 31.2798 59.1494 31.5929 57.3333 33.9099C56.2061 35.3502 55.5799 35.5381 52.3861 35.5381C50.3822 35.5381 48.0026 35.7886 47.1258 36.1643C44.12 37.2915 44.3704 42.4892 47.5016 43.5538C48.3157 43.8669 51.8852 45.1194 55.5173 46.4344C64.347 49.5029 64.0965 49.3151 62.2805 52.0705C61.028 54.0118 60.5271 54.3249 58.4605 54.3249C56.5818 54.3249 55.4546 53.8239 53.4507 52.1331C51.6973 50.6301 50.257 49.9413 48.9419 49.9413C47.0006 49.9413 44.8714 51.5069 44.8714 52.9472C44.8714 53.3855 44.5583 53.6987 44.1826 53.6987C43.8068 53.6987 43.6816 53.2603 43.8695 52.6967C44.12 52.1331 43.9321 50.6928 43.4937 49.5656C42.9301 47.9374 42.9301 47.1233 43.4937 45.8082C44.12 44.5558 44.12 43.7417 43.4937 42.0509C42.8675 40.3601 42.8675 39.6086 43.4937 38.6692C45.1845 35.9138 43.5564 33.6594 39.9242 33.6594C36.7305 33.6594 34.9771 35.4755 35.979 37.7925C36.9184 39.7964 36.9184 41.9882 36.0417 42.865C35.5407 43.3659 35.5407 44.18 36.1669 45.8082C36.7931 47.5616 36.7931 48.3757 36.2295 49.6908C35.7912 50.5675 35.6033 51.9452 35.7912 52.6967C36.1669 54.0118 36.1669 54.0118 35.2276 52.7593C33.2863 50.1918 32.9105 49.9413 31.0318 49.9413C29.9673 49.9413 28.2765 50.5675 27.2119 51.2564C24.1434 53.4482 19.9477 59.7104 18.57 64.1566C16.1903 71.9844 17.1923 74.9903 22.3899 74.9903C24.707 74.9903 25.4584 74.7398 25.4584 74.051C25.4584 73.4248 24.8322 73.1116 23.4545 73.1116C20.1981 73.1116 19.6345 72.4228 19.9477 68.9786C20.386 64.2819 23.204 58.7085 27.0866 54.8885C29.9046 52.0705 30.6561 51.6321 31.5955 52.1957C33.7872 53.636 33.2236 55.3268 29.5915 58.0822C25.6463 61.0881 24.8322 62.6537 26.4604 64.4071C27.7755 65.8474 29.7168 65.91 31.5955 64.595L32.9731 63.6556V67.6635C32.9731 71.7966 32.4722 72.7985 30.2178 73.1743C28.7148 73.4874 28.5896 74.6146 30.0925 74.8651C33.9751 75.6165 35.478 73.2369 35.478 66.3484V61.5265L37.7325 60.0862L39.9869 58.6458L42.0534 60.0235C44.12 61.4638 44.12 61.5265 44.3704 66.912C44.6209 74.6772 44.9967 74.9903 53.6386 74.9903C59.5251 74.9903 60.4644 74.8651 61.4664 73.7379C63.5329 71.4208 62.3431 65.5969 58.1474 57.2681C58.0222 57.0176 58.7736 56.8298 59.8382 56.8298C61.4038 56.8298 62.0926 56.3288 63.4077 54.3249C64.347 52.9472 65.349 51.82 65.6621 51.82C66.9772 51.82 68.668 57.2055 68.668 61.4012C68.668 65.1586 68.7932 65.6596 69.7952 65.4717C70.6719 65.2838 70.8598 64.5324 70.7972 60.3993C70.7345 56.5167 70.3588 54.9511 68.9811 52.1957L67.2903 48.8141L69.8578 45.0567C71.2981 42.9276 72.4254 40.9237 72.4254 40.6105C72.4254 38.9824 70.3588 40.1722 68.4801 42.8023C67.4155 44.4305 66.2257 46.0587 65.85 46.5597C65.349 47.2485 63.5329 46.8102 56.3314 44.18C48.253 41.2994 47.3763 40.861 47.3763 39.546C47.3763 38.1056 47.5642 38.043 51.5094 38.043C57.9595 38.043 61.1533 35.225 61.1533 29.6516C61.1533 27.8982 61.4038 27.3972 62.2805 27.3972C65.2864 27.3972 65.6621 24.5165 63.032 21.5733C61.9048 20.2582 61.1533 18.6926 61.1533 17.6281C61.1533 13.9333 59.3372 9.54976 58.3979 10.9901ZM41.7403 36.7906C41.7403 37.1037 40.9262 37.4168 39.8616 37.4168C38.8597 37.4168 37.983 37.1037 37.983 36.7906C37.983 36.4148 38.8597 36.1643 39.8616 36.1643C40.9262 36.1643 41.7403 36.4148 41.7403 36.7906ZM40.4879 40.5479C40.4879 40.861 40.2374 41.1741 39.8616 41.1741C39.5485 41.1741 39.2354 40.861 39.2354 40.5479C39.2354 40.1722 39.5485 39.9217 39.8616 39.9217C40.2374 39.9217 40.4879 40.1722 40.4879 40.5479ZM41.6151 44.1174C41.7403 44.681 41.1767 44.9315 39.9242 44.9315C38.0456 44.9315 37.482 44.3679 38.4213 43.4286C39.1102 42.8023 41.3019 43.2407 41.6151 44.1174ZM40.4879 48.0626C40.4879 48.3757 40.2374 48.6888 39.8616 48.6888C39.5485 48.6888 39.2354 48.3757 39.2354 48.0626C39.2354 47.6869 39.5485 47.4364 39.8616 47.4364C40.2374 47.4364 40.4879 47.6869 40.4879 48.0626ZM41.6151 51.6321C41.7403 52.1331 41.2393 52.4462 40.2374 52.4462C38.6092 52.4462 37.7325 51.6947 38.4213 50.9433C39.1102 50.2544 41.3019 50.818 41.6151 51.6321ZM51.4468 53.4482C56.9576 57.6439 62.0926 69.5422 59.5251 72.1723C58.3353 73.3621 48.6288 73.4874 47.5016 72.3602C47.0632 71.9218 46.7501 69.8553 46.7501 67.6009V63.593L48.3157 64.595C50.257 65.8474 52.0104 65.8474 53.2628 64.595C55.0789 62.8415 54.3901 61.3386 50.5075 58.2701C46.7501 55.3895 46.0613 54.0118 47.5016 52.5714C48.5662 51.5069 49.0671 51.6321 51.4468 53.4482ZM46.8127 58.5206C49.5681 60.4619 51.7599 62.2779 51.7599 62.5911C51.7599 63.7183 49.9439 62.9042 45.4977 59.6478C42.9301 57.7691 40.4252 56.2036 39.9869 56.2036C39.4859 56.2036 36.981 57.7691 34.3508 59.6478C29.9046 62.8415 27.5876 63.9061 28.0886 62.5284C28.2138 62.2153 30.4056 60.3993 32.9731 58.458C39.2354 53.8239 40.3626 53.8239 46.8127 58.5206Z" fill="url(#paint2_linear_7_3607)"/>
<path d="M65.9752 10.9274C65.7247 11.1153 65.5369 13.4949 65.5369 16.1877C65.5369 20.6965 65.6621 21.2601 67.3529 23.2014L69.2316 25.268L67.5408 26.9588C65.9752 28.5243 65.85 29.1506 65.6621 34.2856C65.4116 39.6711 65.4742 39.9216 66.7267 39.9216C67.4782 39.9216 68.0418 39.5459 68.0418 38.9823C68.0418 38.2308 68.8559 38.043 71.486 38.043C74.1788 38.043 74.9302 38.2308 74.9302 39.0449C74.9302 39.6085 75.3686 39.9216 76.0575 39.7964C76.9968 39.6085 77.122 38.7944 77.122 34.1604C77.122 29.0879 76.9968 28.587 75.4312 26.9588L73.6778 25.1427L75.4312 23.4519C76.9968 21.8237 77.122 21.3854 77.122 16.2503C77.122 11.6162 76.9968 10.8021 76.0575 10.6143C75.3686 10.489 74.9302 10.8021 74.9302 11.3657C74.9302 12.7434 68.3549 12.8061 67.7913 11.4284C67.4155 10.4264 66.6641 10.2385 65.9752 10.9274ZM74.9302 16.1251C74.9302 17.2523 74.4919 17.3775 71.486 17.3775C68.4801 17.3775 68.0418 17.2523 68.0418 16.1251C68.0418 14.9979 68.4801 14.8726 71.486 14.8726C74.4919 14.8726 74.9302 14.9979 74.9302 16.1251ZM74.805 20.6339C74.6798 21.0096 73.803 21.949 72.8637 22.6378L71.1729 23.8903L69.6073 22.3873C68.7306 21.5732 68.0418 20.6965 68.0418 20.3834C68.0418 20.1329 69.6073 19.8824 71.5486 19.8824C73.9909 19.8824 74.9302 20.1329 74.805 20.6339ZM74.304 29.2758C74.9302 30.4656 74.7424 30.5282 71.486 30.5282C68.2296 30.5282 68.0418 30.4656 68.668 29.2758C70.1083 26.583 72.8637 26.583 74.304 29.2758ZM74.9302 34.2856C74.9302 35.4128 74.4919 35.5381 71.486 35.5381C68.4801 35.5381 68.0418 35.4128 68.0418 34.2856C68.0418 33.1584 68.4801 33.0332 71.486 33.0332C74.4919 33.0332 74.9302 33.1584 74.9302 34.2856Z" fill="url(#paint3_linear_7_3607)"/>
<path d="M52.0103 16.4383C51.5093 17.7533 52.1982 19.4441 53.2001 19.131C54.3899 18.6927 54.5778 15.4989 53.3254 15.4989C52.8244 15.4989 52.1982 15.9373 52.0103 16.4383Z" fill="url(#paint4_linear_7_3607)"/>
<path d="M35.979 17.0645C32.66 18.9431 32.9105 23.6398 36.3548 25.3306C38.6092 26.3952 40.801 26.0821 40.3626 24.767C40.1747 24.3287 39.4233 23.8277 38.6092 23.6398C35.3528 22.8883 35.4154 19.3815 38.6718 18.63C40.4878 18.1917 40.6757 16.5008 38.9223 16.313C38.2334 16.1877 36.9184 16.5635 35.979 17.0645Z" fill="url(#paint5_linear_7_3607)"/>
<path d="M1.97484 36.1643C1.28599 37.2915 2.28795 38.043 4.54236 38.043C6.23317 38.043 6.67153 37.7925 6.67153 36.7905C6.67153 35.7886 6.23317 35.5381 4.54236 35.5381C3.35254 35.5381 2.16271 35.7886 1.97484 36.1643Z" fill="url(#paint6_linear_7_3607)"/>
<path d="M17.0044 36.1643C16.3155 37.2915 17.3175 38.043 19.5719 38.043C21.2627 38.043 21.7011 37.7925 21.7011 36.7905C21.7011 35.7886 21.2627 35.5381 19.5719 35.5381C18.3821 35.5381 17.1922 35.7886 17.0044 36.1643Z" fill="url(#paint7_linear_7_3607)"/>
<path d="M1.97491 39.9216C1.03557 41.4872 2.72638 41.8003 12.0571 41.8003C21.0122 41.8003 21.7636 41.7377 21.5758 40.6731C21.3879 39.7337 20.3233 39.6085 11.8693 39.4206C5.85751 39.358 2.2254 39.4833 1.97491 39.9216Z" fill="url(#paint8_linear_7_3607)"/>
<path d="M1.97486 43.7417C1.03553 45.1821 2.9142 45.6204 9.23908 45.4326C14.4994 45.3073 15.7518 45.0568 15.7518 44.3053C15.7518 43.5539 14.4994 43.3034 9.05121 43.1781C4.60501 43.0529 2.22535 43.2408 1.97486 43.7417Z" fill="url(#paint9_linear_7_3607)"/>
<defs>
<linearGradient id="paint0_linear_7_3607" x1="-1.06073e-06" y1="1.58655e-05" x2="76.1925" y2="5.09406" gradientUnits="userSpaceOnUse">
<stop stop-color="#4DD95B"/>
<stop offset="1" stop-color="#93D94D"/>
</linearGradient>
<linearGradient id="paint1_linear_7_3607" x1="34.5386" y1="5.66228" x2="52.4833" y2="8.59413" gradientUnits="userSpaceOnUse">
<stop stop-color="#4DD95B"/>
<stop offset="1" stop-color="#93D94D"/>
</linearGradient>
<linearGradient id="paint2_linear_7_3607" x1="17.3474" y1="10.7091" x2="76.3194" y2="14.5053" gradientUnits="userSpaceOnUse">
<stop stop-color="#4DD95B"/>
<stop offset="1" stop-color="#93D94D"/>
</linearGradient>
<linearGradient id="paint3_linear_7_3607" x1="65.5369" y1="10.5176" x2="77.9816" y2="10.886" gradientUnits="userSpaceOnUse">
<stop stop-color="#4DD95B"/>
<stop offset="1" stop-color="#93D94D"/>
</linearGradient>
<linearGradient id="paint4_linear_7_3607" x1="51.8428" y1="15.4989" x2="54.3524" y2="15.6191" gradientUnits="userSpaceOnUse">
<stop stop-color="#4DD95B"/>
<stop offset="1" stop-color="#93D94D"/>
</linearGradient>
<linearGradient id="paint5_linear_7_3607" x1="33.6252" y1="16.2887" x2="40.9092" y2="16.6727" gradientUnits="userSpaceOnUse">
<stop stop-color="#4DD95B"/>
<stop offset="1" stop-color="#93D94D"/>
</linearGradient>
<linearGradient id="paint6_linear_7_3607" x1="1.7605" y1="35.5381" x2="6.92838" y2="36.2994" gradientUnits="userSpaceOnUse">
<stop stop-color="#4DD95B"/>
<stop offset="1" stop-color="#93D94D"/>
</linearGradient>
<linearGradient id="paint7_linear_7_3607" x1="16.79" y1="35.5381" x2="21.9579" y2="36.2994" gradientUnits="userSpaceOnUse">
<stop stop-color="#4DD95B"/>
<stop offset="1" stop-color="#93D94D"/>
</linearGradient>
<linearGradient id="paint8_linear_7_3607" x1="1.74634" y1="39.4055" x2="17.1243" y2="48.9843" gradientUnits="userSpaceOnUse">
<stop stop-color="#4DD95B"/>
<stop offset="1" stop-color="#93D94D"/>
</linearGradient>
<linearGradient id="paint9_linear_7_3607" x1="1.74707" y1="43.1406" x2="14.2589" y2="48.7837" gradientUnits="userSpaceOnUse">
<stop stop-color="#4DD95B"/>
<stop offset="1" stop-color="#93D94D"/>
</linearGradient>
</defs>
</svg>
