<svg width="80" height="80" viewBox="0 0 80 80" fill="none" xmlns="http://www.w3.org/2000/svg">
<path d="M71.528 1.14417C68.6234 4.23828 64.2032 5.75376 57.0047 6.19578C50.1218 6.63779 40.1449 8.15327 38.8189 8.97416C38.3769 9.22674 38.1874 9.85819 38.3769 10.4265C38.6926 11.2474 39.1346 11.2474 42.0393 10.4896C45.9543 9.47932 54.7946 8.40586 59.2779 8.40586C64.2032 8.40586 68.4971 6.82723 71.8438 3.79626C74.3696 1.52304 74.6853 1.01788 73.9275 0.323282C73.1698 -0.245024 72.7278 -0.118733 71.528 1.14417Z" fill="url(#paint0_linear_7_3627)"/>
<path d="M76.0745 8.09007C72.9804 11.5631 71.5281 15.6043 71.5281 20.4034C71.5281 33.285 67.5499 47.3663 61.8037 55.07C60.5408 56.7749 60.3514 57.4064 60.9197 58.1641C61.5512 58.9219 61.9932 58.6693 63.4455 56.9012C66.287 53.4914 70.1389 45.1562 71.5281 39.3469C72.2227 36.3791 73.1067 30.1277 73.4856 25.455C74.2433 15.7938 75.1905 12.3839 78.2215 9.03725C79.9895 7.07975 80.2421 6.57459 79.4844 5.94314C78.7898 5.37483 78.0952 5.81685 76.0745 8.09007Z" fill="url(#paint1_linear_7_3627)"/>
<path d="M29.1577 12.6366C22.6537 15.9833 15.7709 22.8661 12.6768 29.2438C9.70897 35.2426 9.3301 36.5686 10.4667 37.0106C11.0982 37.2632 12.2979 35.5583 14.3817 31.3276C18.3598 23.3081 23.1589 18.446 30.7363 14.7204C35.851 12.1315 37.6191 10.3002 34.967 10.3002C34.3356 10.3002 31.6835 11.3737 29.1577 12.6366Z" fill="url(#paint2_linear_7_3627)"/>
<path d="M47.3435 12.5733C28.4631 15.9832 17.6653 25.7707 13.3714 43.4513C12.2348 47.9346 11.9191 51.0918 11.9191 58.6061L11.856 68.0779L21.3277 68.0147C37.556 67.9516 47.7224 64.4155 56.0575 56.0803C64.3927 47.7452 67.9288 37.5788 67.992 21.3505L68.0551 11.8787L60.162 11.7524C55.5524 11.6893 50.2482 12.005 47.3435 12.5733ZM49.743 16.1726C32.6938 23.1186 23.0958 32.7166 16.1498 49.7658C13.7503 55.6383 13.4977 54.4385 15.3289 45.6614C16.9707 37.5788 20.6963 30.0645 25.369 25.3918C29.9155 20.8453 37.6192 16.9935 45.3229 15.3517C54.2263 13.5205 55.6787 13.7731 49.743 16.1726ZM54.9209 18.1933C50.9428 20.5928 44.8808 24.8866 42.6708 26.9073C41.5973 27.8545 41.4079 28.4228 41.913 28.9911C42.4182 29.6225 43.6811 28.9911 47.5961 26.0864C53.3423 21.7925 63.2561 15.7306 63.6981 16.1726C64.2032 16.6146 58.1413 26.5284 53.7843 32.464C48.7958 39.2206 39.2609 48.8186 32.5676 53.7439C26.3162 58.2904 16.655 64.226 16.1498 63.784C15.7078 63.2789 21.6434 53.5545 26.1899 47.4294C28.2737 44.651 32.3781 39.7889 35.4091 36.6948C39.5767 32.4009 40.6501 30.9486 40.0818 30.3803C38.5032 28.8016 24.6113 44.3353 18.2336 54.8174C15.3921 59.427 15.6447 57.5326 18.8651 49.5764C25.1796 33.6638 36.1037 23.4974 53.5317 17.2461C58.457 15.478 58.8991 15.7937 54.9209 18.1933ZM63.0035 25.3286C59.8462 35.8739 52.774 46.6085 44.6914 53.1125C42.7971 54.628 42.355 55.2594 42.9233 55.8277C43.4917 56.396 44.3125 56.2066 46.2069 54.8174C52.9634 50.2078 60.0357 39.9783 64.3295 28.9279C66.1607 24.1289 66.287 26.0864 64.6453 34.169C61.1091 51.0918 51.0691 61.1319 34.1462 64.668C25.7479 66.373 24.1693 66.1835 29.5366 64.0366C35.0934 61.8265 40.3975 59.1744 40.9027 58.2272C41.1553 57.8484 41.0921 57.2801 40.7133 56.9012C40.2713 56.4592 39.1978 56.7749 37.3034 57.8484C34.2725 59.6796 26.1267 62.9631 23.2221 63.5946C21.7697 63.9103 22.2118 63.4683 25.1164 61.7002C39.1978 53.1125 54.6052 37.5788 62.1195 24.3815C62.9403 22.9291 63.6981 21.8557 63.7612 21.9188C63.8875 21.982 63.5086 23.5606 63.0035 25.3286Z" fill="url(#paint3_linear_7_3627)"/>
<path d="M50.1219 28.2333C49.5536 28.8648 49.6167 29.2436 50.3113 29.812C50.9428 30.3803 51.3216 30.3171 51.89 29.6225C52.4583 28.9911 52.3951 28.6122 51.7005 28.0439C51.0691 27.4756 50.6902 27.5387 50.1219 28.2333Z" fill="url(#paint4_linear_7_3627)"/>
<path d="M46.5226 31.8326C45.8911 32.906 47.3435 34.1058 48.2275 33.2218C48.9852 32.464 48.4801 31.138 47.5329 31.138C47.2172 31.138 46.7751 31.4537 46.5226 31.8326Z" fill="url(#paint5_linear_7_3627)"/>
<path d="M39.0083 39.3469C35.5354 42.8199 34.7776 43.8933 35.4091 44.5248C36.0405 45.1562 37.114 44.3985 40.587 40.9255C43.0496 38.526 44.944 36.2528 44.8177 35.937C44.3125 34.4847 43.1128 35.1793 39.0083 39.3469Z" fill="url(#paint6_linear_7_3627)"/>
<path d="M31.3678 46.9874C30.7363 48.0608 32.1887 49.2606 33.0727 48.3766C33.8304 47.6188 33.3253 46.2928 32.3781 46.2928C32.0624 46.2928 31.6204 46.6085 31.3678 46.9874Z" fill="url(#paint7_linear_7_3627)"/>
<path d="M28.0211 50.3342C27.4528 50.9656 27.5159 51.3445 28.2105 51.9128C28.8419 52.4811 29.2208 52.4179 29.7891 51.7233C30.3574 51.0919 30.2943 50.713 29.5997 50.1447C28.9682 49.5764 28.5894 49.6396 28.0211 50.3342Z" fill="url(#paint8_linear_7_3627)"/>
<path d="M7.562 44.8405C6.99369 47.9346 6.36224 53.3651 6.1728 57.0275C5.66764 64.3524 4.65732 67.4465 1.50007 71.0457C-0.141706 72.8769 -0.331141 73.4452 0.4266 74.0136C1.1212 74.5819 1.81579 74.1398 3.89958 71.8035C7.05684 68.1411 8.1303 64.6681 8.63546 55.9541C8.8249 52.4811 9.45635 47.3663 9.96151 44.5879C10.4667 41.8727 10.9087 39.5995 10.9087 39.4732C10.9087 39.41 10.3404 39.3469 9.70893 39.3469C8.69861 39.3469 8.38288 40.2309 7.562 44.8405Z" fill="url(#paint9_linear_7_3627)"/>
<path d="M55.7417 61.2582C48.3537 67.0676 37.3034 70.5405 23.8534 71.2983C15.2657 71.7403 11.8559 72.8138 8.06717 76.0973C5.7308 78.1811 5.35193 78.8126 5.92024 79.5703C6.55169 80.328 6.9937 80.1386 8.63548 78.56C11.8559 75.4027 15.5183 74.2661 23.222 73.7609C36.5456 72.9401 47.0908 70.0354 54.542 65.0469C59.2147 61.9528 60.4776 60.5636 59.4041 59.7427C58.7727 59.2376 57.8255 59.6796 55.7417 61.2582Z" fill="url(#paint10_linear_7_3627)"/>
<defs>
<lineargradient id="paint0_linear_7_3627" x1="38.3037" y1="9.18369e-05" x2="74.8074" y2="8.93206" gradientunits="userSpaceOnUse">
<stop stop-color="#4DD95B"/>
<stop offset="1" stop-color="#93D94D"/>
</lineargradient>
<lineargradient id="paint1_linear_7_3627" x1="60.615" y1="5.7191" x2="81.3196" y2="6.28641" gradientunits="userSpaceOnUse">
<stop stop-color="#4DD95B"/>
<stop offset="1" stop-color="#93D94D"/>
</lineargradient>
<lineargradient id="paint2_linear_7_3627" x1="9.875" y1="10.3002" x2="38.0145" y2="12.3815" gradientunits="userSpaceOnUse">
<stop stop-color="#4DD95B"/>
<stop offset="1" stop-color="#93D94D"/>
</lineargradient>
<lineargradient id="paint3_linear_7_3627" x1="11.856" y1="11.7445" x2="71.9401" y2="16.2483" gradientunits="userSpaceOnUse">
<stop stop-color="#4DD95B"/>
<stop offset="1" stop-color="#93D94D"/>
</lineargradient>
<lineargradient id="paint4_linear_7_3627" x1="49.7383" y1="27.6603" x2="52.4487" y2="27.8639" gradientunits="userSpaceOnUse">
<stop stop-color="#4DD95B"/>
<stop offset="1" stop-color="#93D94D"/>
</lineargradient>
<lineargradient id="paint5_linear_7_3627" x1="46.3682" y1="31.138" x2="48.7503" y2="31.3047" gradientunits="userSpaceOnUse">
<stop stop-color="#4DD95B"/>
<stop offset="1" stop-color="#93D94D"/>
</lineargradient>
<lineargradient id="paint6_linear_7_3627" x1="35.2073" y1="35.2448" x2="45.4865" y2="36.0281" gradientunits="userSpaceOnUse">
<stop stop-color="#4DD95B"/>
<stop offset="1" stop-color="#93D94D"/>
</lineargradient>
<lineargradient id="paint7_linear_7_3627" x1="31.2134" y1="46.2928" x2="33.5955" y2="46.4595" gradientunits="userSpaceOnUse">
<stop stop-color="#4DD95B"/>
<stop offset="1" stop-color="#93D94D"/>
</lineargradient>
<lineargradient id="paint8_linear_7_3627" x1="27.6375" y1="49.7611" x2="30.3479" y2="49.9648" gradientunits="userSpaceOnUse">
<stop stop-color="#4DD95B"/>
<stop offset="1" stop-color="#93D94D"/>
</lineargradient>
<lineargradient id="paint9_linear_7_3627" x1="-1.62552e-07" y1="39.3469" x2="11.7219" y2="39.6223" gradientunits="userSpaceOnUse">
<stop stop-color="#4DD95B"/>
<stop offset="1" stop-color="#93D94D"/>
</lineargradient>
<lineargradient id="paint10_linear_7_3627" x1="5.68677" y1="59.5441" x2="61.6184" y2="70.6536" gradientunits="userSpaceOnUse">
<stop stop-color="#4DD95B"/>
<stop offset="1" stop-color="#93D94D"/>
</lineargradient>
</defs>
</svg>
