<svg width="80" height="80" viewbox="0 0 80 80" fill="none" xmlns="http://www.w3.org/2000/svg">
<path d="M35.801 1.45712C33.5448 2.83588 32.5421 3.0239 28.7192 2.89855L24.2695 2.71054L21.3239 5.96945C19.0678 8.4763 17.689 9.41637 15.5582 9.98042C11.7979 10.9205 10.7951 11.9232 9.91774 15.6208C9.29103 18.1277 8.53897 19.1931 5.96945 21.4493L2.71054 24.2695L2.89855 28.7192C3.02389 32.5421 2.83588 33.5449 1.45711 35.8637C-0.485703 39.2479 -0.485703 40.7521 1.45711 44.1363C2.83588 46.4552 3.02389 47.4579 2.89855 51.2808L2.71054 55.7305L5.96945 58.5507C8.53897 60.8069 9.29103 61.8723 9.91774 64.3792C10.7951 68.0768 11.7979 69.0795 15.5582 70.0196C17.689 70.5836 19.0678 71.5237 21.3239 74.0306L24.2695 77.2895L28.7192 77.1014C32.5421 76.9761 33.5448 77.1641 35.8637 78.5429C39.2479 80.4857 40.7521 80.4857 44.1363 78.5429C46.4551 77.1641 47.4579 76.9761 51.2808 77.1014L55.7305 77.2895L58.5507 74.0306C60.8069 71.461 61.8723 70.709 64.3792 70.0823C68.0768 69.2049 69.0795 68.2021 70.0823 64.4418C70.5836 62.311 71.5237 60.9322 74.0305 58.6761L77.2895 55.7932L77.1014 51.2808C76.9761 47.4579 77.1641 46.4552 78.5429 44.1363C80.4857 40.7521 80.4857 39.2479 78.5429 35.8637C77.1641 33.5449 76.9761 32.5421 77.1014 28.7192L77.2895 24.2068L74.0305 21.3239C71.5237 19.0678 70.5836 17.689 70.0823 15.5582C69.0795 11.7979 68.0768 10.7952 64.3792 9.91775C61.8723 9.29103 60.8069 8.53898 58.5507 5.96945L55.7305 2.71054L51.2808 2.89855C47.4579 3.0239 46.4551 2.83588 44.1363 1.45712C40.7521 -0.485695 39.1226 -0.485695 35.801 1.45712ZM44.011 4.02664C46.5805 5.46808 47.3325 5.59342 50.6541 5.21739C54.2264 4.77869 54.4771 4.84137 55.7932 6.47083C58.9894 10.3564 59.9922 11.0458 63.3764 12.0486L66.9487 13.0513L67.9514 16.6236C68.9542 20.0078 69.6436 21.0106 73.5292 24.2068C75.1586 25.5229 75.2213 25.7736 74.7826 29.3459C74.4066 32.6675 74.5319 33.4195 75.9734 35.989C77.9788 39.624 77.9788 40.376 75.9734 44.011C74.5319 46.5805 74.4066 47.3326 74.7826 50.6541C75.2213 54.2264 75.1586 54.4771 73.5292 55.7932C69.6436 58.9894 68.9542 59.9922 67.9514 63.3764L66.9487 66.9487L63.3764 67.9514C59.9922 68.9542 58.9894 69.6436 55.7932 73.5292C54.4771 75.1586 54.2264 75.2213 50.6541 74.7826C47.3325 74.4066 46.5805 74.5319 44.011 75.9734C40.376 77.9788 39.624 77.9788 35.989 75.9734C33.4195 74.5319 32.6674 74.4066 29.3459 74.7826C25.7736 75.2213 25.5229 75.1586 24.2068 73.5292C21.0106 69.6436 20.0078 68.9542 16.6236 67.9514L13.0513 66.9487L12.0486 63.3764C11.0458 59.9922 10.3564 58.9894 6.47082 55.7932C4.84136 54.4771 4.77869 54.2264 5.21739 50.6541C5.59342 47.3326 5.46808 46.5805 4.02664 44.011C3.14924 42.3815 2.39718 40.6267 2.39718 40C2.39718 39.3733 3.14924 37.6185 4.02664 35.989C5.46808 33.4195 5.59342 32.6675 5.21739 29.3459C4.77869 25.7736 4.84136 25.5229 6.47082 24.2068C10.3564 21.0106 11.0458 20.0078 12.0486 16.6236L13.0513 13.0513L16.6236 12.0486C20.0078 11.0458 21.0106 10.3564 24.1441 6.47083C25.5229 4.90404 25.7736 4.84137 29.4712 5.21739C32.9181 5.53075 33.7329 5.40541 35.9264 4.02664C39.1853 2.08382 40.5014 2.08382 44.011 4.02664Z" fill="url(#paint0_linear_7_3639)"/>
<path d="M33.3569 8.97757C28.7193 9.98032 25.5857 11.4844 25.5857 12.7379C25.5857 13.9286 25.8991 13.9286 29.9727 12.3618C45.8285 6.34538 64.1286 16.0594 68.5156 32.7927C70.333 39.9372 69.3303 47.7712 65.6954 54.2263C64.1913 56.9212 64.0032 57.5479 64.7553 58.1746C65.758 58.9893 66.6354 57.9239 69.0796 52.4715C77.2269 34.7355 65.9461 13.1139 46.4553 8.97757C41.3162 7.84949 38.3707 7.84949 33.3569 8.97757Z" fill="url(#paint1_linear_7_3639)"/>
<path d="M17.0622 18.253C12.6125 22.9533 10.1683 27.8417 8.85224 34.2968C4.52792 55.1037 23.8307 74.9079 44.8883 71.3356C52.7222 70.0195 64.1911 63.3137 62.1229 61.2455C61.6215 60.7442 60.6188 61.2455 58.488 62.875C45.9537 72.401 30.1605 71.5236 19.3184 60.6815C7.53614 48.8993 7.59881 31.1006 19.5064 19.1304C22.8906 15.6834 23.4547 14.3047 21.5745 14.3047C21.0732 14.3047 19.0677 16.0595 17.0622 18.253Z" fill="url(#paint2_linear_7_3639)"/>
<path d="M38.8718 22.8908C38.4958 23.0162 36.8663 25.0843 35.3622 27.4658C32.1033 32.4795 31.5393 32.9182 30.5992 31.2261C30.0351 30.1607 29.2831 29.9727 26.2122 29.9727C23.204 29.9727 22.3892 30.2234 21.8252 31.1635C21.4492 31.9155 21.1985 37.1799 21.1985 43.9484C21.1985 57.2347 21.3238 57.5481 26.4002 57.5481C28.6564 57.5481 29.5338 57.2347 30.0978 56.2947C30.8499 55.1039 31.6019 55.0412 40.94 55.0412C53.2236 55.0412 54.3516 54.6025 55.9184 49.1501C59.052 38.12 58.9266 38.9974 57.9239 36.6785C56.7332 33.7956 55.3544 33.1063 50.466 33.1063H46.3924L45.9537 29.6593C45.3896 24.7083 42.0681 21.5747 38.8718 22.8908ZM42.4441 26.5884C43.3215 27.6539 43.7602 29.158 43.7602 30.8501C43.7602 32.2915 44.0735 33.7956 44.5122 34.2343C44.9509 34.673 46.9564 34.9864 49.1499 34.9864C52.4088 34.9864 53.4116 35.2371 54.853 36.4905C56.7958 38.1826 56.7958 37.7439 54.0383 47.3327C52.5342 52.5971 52.5968 52.5344 41.1907 52.5344H31.2259V44.0738V35.5504L33.4194 33.6703C34.6102 32.6049 36.553 30.1607 37.6184 28.3432C38.7465 26.4631 39.9999 24.959 40.4386 24.959C40.8146 24.959 41.7547 25.711 42.4441 26.5884ZM28.719 43.7604V55.0412H26.2122H23.7053V43.7604V32.4795H26.2122H28.719V43.7604Z" fill="url(#paint3_linear_7_3639)"/>
<defs>
<lineargradient id="paint0_linear_7_3639" x1="-1.19209e-06" y1="1.58655e-05" x2="85.5281" y2="6.42636" gradientunits="userSpaceOnUse">
<stop stop-color="#4DD95B"/>
<stop offset="1" stop-color="#93D94D"/>
</lineargradient>
<lineargradient id="paint1_linear_7_3639" x1="25.5857" y1="8.13152" x2="74.9902" y2="11.5398" gradientunits="userSpaceOnUse">
<stop stop-color="#4DD95B"/>
<stop offset="1" stop-color="#93D94D"/>
</lineargradient>
<lineargradient id="paint2_linear_7_3639" x1="8.24072" y1="14.3047" x2="66.145" y2="18.4038" gradientunits="userSpaceOnUse">
<stop stop-color="#4DD95B"/>
<stop offset="1" stop-color="#93D94D"/>
</lineargradient>
<lineargradient id="paint3_linear_7_3639" x1="21.1985" y1="22.5898" x2="61.106" y2="25.7941" gradientunits="userSpaceOnUse">
<stop stop-color="#4DD95B"/>
<stop offset="1" stop-color="#93D94D"/>
</lineargradient>
</defs>
</svg>
