<svg width="612" height="657" viewBox="0 0 612 657" fill="none" xmlns="http://www.w3.org/2000/svg">
<path d="M321.93 2.25731C322.163 3.07402 324.38 3.89073 326.947 4.0074C329.397 4.12407 335.697 4.94078 340.831 5.99083C345.964 6.92421 352.381 7.74092 355.065 7.85759C357.748 7.85759 360.315 8.32428 360.665 9.02432C361.015 9.60768 362.182 10.191 363.115 10.191C364.049 10.191 364.749 9.60768 364.749 9.02432C364.749 8.32428 363.699 7.85759 362.532 7.85759C361.248 7.85759 359.498 7.15756 358.682 6.34085C357.865 5.40747 356.348 4.70743 355.415 4.70743C349.348 4.35742 337.914 2.95735 334.414 2.02397C328.347 0.390551 321.23 0.507223 321.93 2.25731Z" fill="#F4F4F4"/>
<path d="M318.196 32.2421C316.563 32.7088 315.163 33.6421 314.813 34.4589C314.229 36.2089 314.579 36.2089 319.713 34.1088C325.897 31.542 324.963 30.2586 318.196 32.2421Z" fill="#F4F4F4"/>
<path d="M304.079 33.4088C304.079 35.2755 307.346 35.7422 309.563 34.1088C311.546 32.5921 311.429 32.4754 307.929 32.3587C305.829 32.3587 304.079 32.8254 304.079 33.4088Z" fill="#F4F4F4"/>
<path d="M326.48 35.2756C326.83 35.7423 334.53 37.259 343.514 38.7758C352.381 40.2925 361.248 41.9259 363.115 42.3926C366.149 43.0926 366.265 42.976 364.749 41.3426C363.699 40.2925 357.865 38.7758 350.165 37.4924C334.53 35.0422 325.43 34.2255 326.48 35.2756Z" fill="#F4F4F4"/>
<path d="M368.249 40.9926C368.249 43.7928 368.482 43.7928 393.917 46.4762C418.885 49.043 428.219 51.8432 446.419 62.1103C453.77 66.3105 461.004 70.0441 462.52 70.3941C463.92 70.8608 465.087 72.0275 465.087 73.1942C465.087 74.361 466.02 75.6443 467.187 76.111C468.237 76.4611 471.737 79.1445 474.888 81.9447C478.038 84.7448 482.471 87.7783 484.805 88.4783C487.138 89.1784 490.872 91.1618 493.205 92.9119C497.522 96.062 504.756 103.762 504.756 105.279C504.756 105.629 503.472 104.462 501.839 102.596C500.205 100.729 497.639 98.7455 496.005 98.3955C494.372 97.9288 493.088 97.1121 493.088 96.5287C493.088 95.8287 492.155 95.362 491.105 95.362C489.705 95.362 490.405 96.5287 493.555 98.9788C496.472 101.429 497.522 102.946 496.589 103.529C495.655 104.112 497.522 106.329 501.722 110.063C505.339 113.096 508.256 116.246 508.256 117.063C508.256 117.88 509.773 119.747 511.639 121.263C513.506 122.78 515.373 125.113 515.84 126.63L516.656 129.197L510.356 126.864C506.972 125.58 503.356 123.48 502.422 122.08C499.739 118.346 492.972 111.579 487.372 107.029C484.571 104.812 480.721 101.429 478.971 99.5622C475.471 96.062 473.837 95.9454 475.121 99.3289C476.054 101.779 494.022 117.53 495.889 117.53C496.589 117.53 495.655 118.346 493.789 119.28C489.938 121.263 488.772 120.68 488.188 116.363C487.955 114.613 487.021 113.446 485.971 113.446C484.921 113.446 483.288 112.863 482.471 112.046C481.538 111.346 480.371 110.763 479.904 110.763C477.804 110.879 467.537 104.462 459.837 98.1621C434.636 77.7445 402.901 62.6937 374.082 57.5601C368.016 56.3934 358.915 54.2933 354.015 52.6599C348.998 51.1431 342.814 49.8597 340.247 49.8597C337.564 49.8597 333.364 48.693 330.564 47.2929C325.897 44.7261 324.497 44.6095 303.496 44.8428C285.645 44.9595 280.394 45.4262 276.661 47.0596C273.044 48.5763 270.011 48.8097 263.127 48.343C258.11 47.8763 253.793 48.1096 253.21 48.693C252.51 49.393 249.476 50.2097 246.443 50.5598C241.893 51.2598 240.959 51.0265 241.659 49.8597C242.359 48.693 241.659 48.5763 238.392 49.1597C235.942 49.6264 233.142 49.393 231.742 48.693C230.109 47.7596 228.709 47.7596 227.075 48.693C225.558 49.5097 224.742 49.5097 224.742 48.8097C224.742 47.2929 229.875 45.8929 232.909 46.7096C234.075 47.0596 235.242 46.9429 235.476 46.4762C235.709 45.8929 237.692 45.1928 239.909 44.8428C242.826 44.2594 243.526 44.3761 242.243 45.1928C239.792 46.8262 242.476 46.7096 248.193 44.9595C256.243 42.626 253.443 41.3426 241.426 42.0427C227.775 42.7427 215.058 45.3095 200.824 50.0931C190.557 53.5932 167.806 64.3271 158.705 69.9274C156.138 71.4441 151.821 73.4276 148.905 74.2443C141.904 76.2277 130.237 87.6616 130.237 92.4452C130.237 95.362 130.47 95.4787 132.454 94.0786C152.638 79.4945 164.889 72.0275 168.506 72.0275C171.656 72.0275 174.573 73.1942 174.573 74.4776C174.573 75.061 169.206 78.2111 162.672 81.478C147.738 88.945 140.037 93.8453 135.487 98.7455C133.504 100.729 126.503 106.213 119.736 110.879C112.969 115.546 103.052 123.713 97.5687 129.197C82.5179 144.248 68.1672 160.582 68.6339 162.099C68.9839 162.915 73.1841 158.832 77.9677 152.998C88.3515 140.864 109.586 121.73 117.986 116.946C121.253 115.08 125.92 111.929 128.487 109.946C143.654 97.9288 164.772 85.4448 168.039 86.7282C168.972 87.0783 170.839 86.7282 172.239 86.0282C174.106 84.9781 175.156 84.9781 176.323 86.0282C177.256 86.7282 179.473 87.3116 181.223 87.0783C182.973 86.9616 185.306 87.1949 186.24 87.5449C187.173 87.895 189.273 88.3617 190.907 88.595C193.707 88.945 193.59 89.0617 189.273 91.6285C186.823 93.1452 180.873 97.3454 176.089 100.962C155.088 116.946 152.288 118.696 146.921 118.696C143.771 118.696 142.021 119.163 142.488 119.863C142.838 120.447 144.821 121.03 146.804 121.03H150.305L146.921 124.997C145.171 127.214 142.604 129.43 141.321 129.897C140.037 130.364 135.721 133.631 131.87 137.364C126.387 142.498 123.587 144.248 119.853 144.831C116.703 145.298 115.07 146.115 115.07 147.281C115.07 148.215 114.019 149.031 112.853 149.031C111.569 149.031 109.469 150.548 108.069 152.532C106.669 154.398 104.569 156.032 103.402 156.032C102.236 156.032 99.4354 158.132 97.2187 160.699C93.0184 165.716 91.385 166.649 92.5518 163.265C93.2518 161.515 93.1351 161.515 91.385 162.915C90.335 163.732 89.7516 164.899 89.985 165.482C90.335 165.949 89.4016 166.999 88.0015 167.816C86.4848 168.632 82.9846 171.199 80.0678 173.533C77.151 175.983 73.0674 178.783 71.084 179.833C68.6339 181 67.0005 182.983 66.5338 184.966C66.0671 186.717 64.9004 189.05 63.967 190.1C61.7502 192.784 58.6 192.9 59.5334 190.333C59.8834 189.283 59.8834 188 59.5334 187.3C58.4834 185.55 54.3998 189.867 54.3998 192.784C54.3998 195.35 51.133 199.201 49.0329 199.201C48.3329 199.201 47.3995 200.834 46.8161 202.934C46.1161 204.917 44.9494 206.901 44.016 207.134C41.5659 207.951 43.4326 203.401 51.5997 189.283C55.6832 182.166 59.0667 175.866 59.0667 175.049C59.0667 174.349 59.8835 173.533 60.8168 173.066C61.7502 172.716 62.5669 171.666 62.5669 170.849C62.5669 169.916 63.267 168.516 64.2003 167.699C66.4171 165.949 65.3671 163.032 62.5669 163.032C61.1668 163.032 59.0667 165.716 56.1499 171.316C53.8165 175.866 49.4996 182.516 46.6995 186.017C40.9825 193.017 37.249 199.784 33.3988 210.518C31.4154 216.118 30.3653 217.518 28.8486 217.051C27.3318 216.468 27.2151 216.701 28.3819 217.985C30.5986 220.318 30.2486 222.302 27.0985 225.218C25.5817 226.619 23.9483 229.652 23.5983 231.869C23.0149 236.186 19.1647 240.269 16.5979 239.336C15.7812 238.986 14.2645 239.803 13.0978 240.969C11.231 243.186 11.231 243.303 13.6811 243.886C16.0146 244.469 15.8979 244.819 11.6977 249.953C9.13091 252.987 7.26415 255.787 7.38082 256.253C7.49749 256.953 5.39739 272.237 3.53063 283.205C3.18061 285.421 2.13056 287.755 1.43052 288.455C-0.552908 290.088 -0.436236 318.323 1.5472 319.957C2.71392 321.007 3.41396 328.007 4.69735 352.041C5.04737 357.525 6.56411 361.492 10.0643 365.459C11.1143 366.742 12.7478 370.942 13.5645 374.793C15.3146 382.96 18.1147 390.543 19.3981 390.543C19.9815 390.543 23.1316 392.41 26.5151 394.627C32.8154 398.71 35.0322 401.977 33.8655 405.127C33.1654 406.878 34.7989 413.061 37.8323 419.478C39.1157 422.278 39.2324 424.028 38.4157 425.895C37.1323 428.695 38.6491 433.712 40.7492 433.712C41.4492 433.712 43.4326 432.312 45.1827 430.679C47.7495 428.229 48.0995 427.062 47.3995 424.028C46.3494 419.011 47.0495 416.795 49.2662 418.661C50.1996 419.361 50.8997 420.878 50.8997 421.928C50.8997 422.978 51.9497 424.495 53.2331 425.312C54.5165 426.129 55.5666 427.295 55.5666 427.995C55.5666 428.695 57.6667 433.712 60.2335 439.196C62.8003 444.679 64.9004 449.93 64.9004 450.863C64.9004 451.913 66.1838 454.13 67.8172 456.113C69.4506 457.98 70.734 461.014 70.734 462.88C70.734 466.381 75.0509 473.731 78.5511 476.298C80.1845 477.581 80.3011 478.398 79.0177 483.065C77.7343 487.615 77.7343 488.782 79.4844 492.515C80.7678 495.315 83.218 497.649 86.0181 499.165C89.4016 500.799 90.5683 502.199 90.5683 504.182C90.5683 508.266 95.8186 518.066 100.369 522.617C114.72 536.501 120.903 541.984 121.487 540.934C121.953 540.351 123.003 540.351 124.52 541.051C126.62 542.218 126.737 542.218 124.637 538.251C123.587 535.917 122.187 534.051 121.487 534.051C120.903 534.051 119.386 532.65 118.336 530.784C117.286 529.034 114.603 525.65 112.619 523.2C108.769 518.883 108.769 518.883 110.753 514.8C112.503 511.066 112.969 510.833 115.536 511.999C118.22 513.283 118.453 513.866 117.87 520.283C117.403 527.517 118.686 528.917 121.37 524.017C123.12 520.867 124.52 520.05 127.904 520.167C129.537 520.167 130.12 520.517 129.42 520.867C127.437 521.567 127.553 524.133 129.537 525.767C131.054 527.05 131.054 527.867 129.654 531.834C127.787 536.851 128.254 539.301 131.637 542.568C134.204 545.018 134.554 552.718 132.104 552.718C131.287 552.718 125.57 548.285 119.62 543.034C103.402 528.567 100.135 527.517 106.552 538.484C113.436 550.501 124.637 563.335 129.77 565.202C133.854 566.719 138.637 566.952 137.821 565.669C137.471 565.085 135.837 564.269 134.087 563.802C132.337 563.452 130.47 562.402 130.004 561.702C129.537 560.885 128.72 560.302 128.254 560.302C126.737 560.185 121.837 557.268 122.42 556.685C122.887 556.218 127.32 558.202 136.304 562.752C137.937 563.685 140.504 564.385 142.021 564.385C143.421 564.385 146.804 565.669 149.488 567.302C154.738 570.336 155.905 570.102 155.905 566.135C155.905 563.335 151.471 558.552 148.671 558.552C147.738 558.552 145.521 556.452 143.888 554.002C140.854 549.335 140.854 549.335 142.721 544.084C144.588 539.184 144.821 538.951 146.688 540.584C147.855 541.634 148.438 543.151 148.205 543.968C147.621 545.251 153.921 552.718 155.672 552.718C157.538 552.718 165.239 559.018 165.239 560.535C165.239 561.702 165.939 562.052 166.989 561.585C169.672 560.535 173.172 563.219 172.472 565.785C172.122 567.536 171.189 567.886 168.506 567.419L165.005 566.836L167.689 569.752C169.089 571.269 170.839 572.552 171.656 572.552C172.356 572.552 173.756 574.069 174.923 575.936C176.439 578.619 178.189 579.553 183.906 580.72C187.757 581.536 190.907 582.703 190.907 583.403C190.907 584.103 191.257 584.22 191.607 583.87C192.073 583.52 193.473 583.753 194.874 584.453C197.207 585.736 197.09 585.853 193.24 586.67C190.09 587.37 187.523 586.903 182.156 584.686C178.306 583.053 173.172 581.186 170.839 580.486C168.389 579.786 166.405 578.736 166.405 578.153C166.405 577.569 165.939 577.453 165.239 577.803C164.655 578.153 163.139 577.919 162.089 577.336C160.805 576.636 160.572 576.053 161.505 576.053C163.955 576.053 161.855 573.719 159.288 573.719C158.005 573.719 156.605 574.653 156.255 575.703C155.788 576.869 154.972 578.153 154.271 578.619C152.755 579.553 152.521 579.436 160.922 583.403C164.539 585.153 168.622 586.553 169.906 586.553C171.072 586.553 172.472 587.137 172.822 587.72C173.289 588.42 175.739 589.82 178.189 590.87C180.756 591.803 182.506 592.97 182.156 593.437C181.69 593.787 183.44 595.07 185.89 596.12C188.34 597.287 189.273 597.987 187.99 597.637C186.706 597.404 184.956 597.52 184.023 598.104C183.206 598.687 181.34 598.804 179.939 598.454C177.723 597.754 177.839 597.637 180.989 597.054L184.49 596.354L180.406 595.07C178.189 594.37 175.273 593.437 173.989 592.854C171.889 592.037 171.889 592.153 173.289 593.904C174.106 594.954 174.573 595.887 174.339 595.887C172.706 595.887 160.338 589.237 155.672 585.853C152.755 583.636 150.071 582.353 149.838 583.053C149.605 583.87 148.321 583.403 146.688 582.003C145.171 580.72 143.071 579.319 141.904 578.969C140.737 578.619 139.454 577.453 139.104 576.519C138.754 575.586 136.771 574.069 134.671 573.136C132.57 572.319 124.637 566.486 116.936 560.419C109.353 554.235 102.819 549.218 102.352 549.218C99.9021 549.335 123.587 568.702 134.32 575.353C137.587 577.453 137.704 577.569 135.487 578.503C134.204 578.969 133.737 579.436 134.437 579.436C135.254 579.553 138.637 581.42 141.904 583.636C145.288 585.97 150.305 588.303 153.105 588.887C160.222 590.52 164.305 592.62 163.605 594.254C163.255 595.07 164.072 596.12 165.355 596.47C166.522 596.937 167.572 597.987 167.572 598.92C167.572 600.321 167.105 600.437 165.005 599.27C163.489 598.454 161.972 597.287 161.505 596.587C160.805 595.654 160.572 595.654 160.572 596.704C160.572 597.404 162.089 599.154 163.839 600.437C166.755 602.537 167.455 602.537 169.089 601.021C170.139 600.087 170.606 599.971 170.022 600.671C169.322 601.487 169.672 602.771 170.839 604.054C172.822 606.154 191.373 614.555 193.94 614.555C194.64 614.555 195.924 615.371 196.74 616.305C197.79 617.588 198.607 617.705 199.774 616.888C200.824 615.955 201.524 616.071 202.224 617.355C202.807 618.288 205.141 619.221 207.591 619.455C209.924 619.572 211.908 620.038 211.908 620.388C211.908 621.322 221.708 624.122 226.142 624.238C228.242 624.355 230.692 625.172 231.509 625.988C232.325 626.689 234.192 627.155 235.592 626.805C236.992 626.455 243.876 626.922 250.76 627.855C257.643 628.905 263.71 629.605 264.177 629.605C264.644 629.489 268.377 629.489 272.461 629.605C278.994 629.722 279.694 629.955 277.944 631.239C276.078 632.639 276.078 632.872 278.994 634.389C280.861 635.322 281.795 636.606 281.328 637.656C280.861 639.056 281.561 639.289 285.061 638.822C287.511 638.472 291.362 637.306 293.578 636.372L297.662 634.506L291.128 635.089C286.345 635.439 284.128 635.089 283.195 633.922C282.028 632.522 282.728 632.172 286.811 631.472C289.612 631.005 297.079 630.422 303.496 630.305C321.23 629.955 339.897 627.505 351.331 624.122C353.315 623.538 355.882 623.188 357.165 623.422C360.198 623.888 368.249 621.788 368.249 620.505C368.249 619.455 372.682 618.288 380.849 617.238C383.533 616.888 385.75 616.071 385.75 615.488C385.75 614.788 386.916 614.555 388.2 614.905C389.717 615.371 392.983 614.438 396.134 612.921C399.05 611.404 402.784 609.771 404.417 609.304C407.567 608.371 416.318 604.521 426.585 599.621C435.219 595.42 435.219 595.42 434.285 596.937C433.819 597.637 433.935 598.22 434.636 598.22C435.219 598.22 436.152 597.637 436.502 597.054C436.969 596.354 437.902 596.004 438.602 596.12C439.419 596.354 441.636 595.304 443.736 593.787C447.936 590.753 451.32 590.403 450.386 592.97C449.57 595.187 465.437 585.62 470.687 580.72C472.787 578.853 475.238 577.219 476.054 577.219C476.871 577.219 478.504 576.053 479.788 574.769C482.005 572.202 482.005 572.202 479.438 573.603C475.821 575.469 476.054 574.419 479.788 571.969C481.538 570.919 482.588 570.569 482.121 571.152C480.955 573.019 483.405 573.953 485.155 572.319C485.971 571.502 488.188 569.986 489.938 569.052C491.805 568.119 494.489 566.369 495.889 564.969C501.256 560.185 508.139 555.052 509.306 555.052C510.006 555.052 510.589 554.585 510.589 553.885C510.589 553.302 512.456 551.551 514.673 550.151C516.89 548.635 518.756 546.885 518.756 546.301C518.756 545.601 519.69 544.551 520.857 543.734C523.073 542.451 528.44 532.534 528.557 529.5C528.674 528.684 530.074 527.75 531.707 527.517C534.974 527.284 539.757 523.9 539.757 522.033C539.757 521.45 538.941 521.567 538.007 522.383C537.074 523.2 536.257 523.433 536.257 522.967C536.257 522.5 535.441 522.85 534.274 523.667C532.524 525.183 532.524 525.067 534.041 522.733C534.857 521.333 535.791 520.4 536.141 520.633C537.074 521.567 539.757 518.65 539.057 517.483C538.591 516.783 538.824 515.966 539.407 515.5C541.041 514.45 556.208 491.815 559.942 484.815C561.692 481.431 563.092 477.931 563.092 476.998C563.092 475.714 563.442 475.598 564.492 476.648C565.425 477.581 565.425 478.398 564.259 479.798C563.442 480.731 563.092 481.898 563.442 482.365C563.909 482.715 563.325 483.765 562.159 484.581C561.109 485.398 560.525 486.332 560.992 486.798C561.342 487.265 562.975 486.215 564.492 484.348C566.009 482.598 568.226 480.031 569.509 478.514C571.842 475.948 575.109 469.181 578.259 460.547C579.076 458.33 581.293 452.263 583.16 447.13C585.026 441.996 586.31 436.979 586.076 435.812C585.726 434.762 585.96 433.712 586.66 433.479C587.243 433.246 589.11 429.979 590.743 426.129C593.543 419.361 594.594 415.161 596.344 401.044C596.81 397.544 598.21 391.71 599.377 388.093C602.061 380.16 605.094 360.092 605.094 349.358C605.094 344.808 605.561 341.541 606.261 341.541C607.428 341.541 606.961 362.892 605.677 364.759C605.444 365.225 604.861 371.059 604.511 377.826C603.577 393.46 605.327 391.01 608.011 373.043C610.228 358.458 611.978 326.14 611.278 315.173C609.178 283.205 606.261 262.904 602.994 256.72C602.294 255.437 601.127 250.186 600.544 244.936C599.844 239.686 598.794 234.552 598.21 233.386C597.51 232.219 595.294 226.735 593.077 221.018C590.977 215.418 588.877 211.101 588.41 211.568C588.06 211.918 587.36 210.868 586.893 209.001C585.61 203.984 583.626 200.717 581.993 201.301C579.893 202.001 580.243 204.217 582.81 206.434C584.326 207.718 584.91 209.468 584.676 212.151C584.443 214.368 584.91 216.818 585.493 217.518C586.31 218.568 586.31 219.035 585.376 219.035C584.676 219.035 583.743 217.401 583.393 215.535C582.926 213.551 582.226 212.034 581.643 212.034C581.06 212.034 580.593 210.984 580.593 209.818C580.593 208.534 580.126 207.134 579.426 206.784C578.843 206.434 578.259 207.134 578.259 208.418C578.259 209.701 578.843 211.101 579.426 211.451C580.126 211.801 580.593 213.435 580.593 214.951C580.593 216.468 581.176 218.101 581.76 218.451C583.16 219.385 583.276 222.535 581.993 222.535C581.41 222.535 580.126 220.085 579.076 216.935C574.643 203.867 573.476 200.834 572.426 198.967C570.909 196.284 570.909 195.35 572.542 196.4C573.242 196.75 574.526 198.967 575.459 201.067C576.393 203.284 577.676 205.034 578.259 205.034C578.959 205.034 578.726 203.167 577.676 200.601C575.576 195.584 570.092 189.517 570.092 192.2C570.092 194.65 566.825 189.633 561.692 179.6C558.775 173.533 558.075 171.549 559.708 173.066C562.625 175.633 562.509 174.699 559.475 169.566C556.792 164.899 555.508 164.199 556.442 167.699C556.792 168.982 556.908 170.032 556.675 170.032C556.558 170.032 553.525 165.716 550.141 160.349C546.641 155.098 543.258 150.315 542.441 149.848C541.624 149.381 540.924 148.215 540.924 147.398C540.924 146.581 539.874 144.948 538.474 143.664C537.191 142.498 535.324 139.698 534.391 137.481C533.457 135.264 530.424 131.064 527.74 128.147C524.94 125.113 518.99 117.296 514.44 110.529C504.289 95.4787 497.172 88.0116 489.005 83.9281C485.621 82.178 479.204 78.3278 474.771 75.411C467.42 70.2774 452.136 60.5936 437.202 51.4931C428.685 46.2429 419.701 43.7928 409.784 44.0261C397.067 44.3761 394.85 44.1428 395.784 42.7427C396.134 42.0427 395.784 40.9926 394.967 40.4093C392.283 38.7758 391.233 39.2425 392.867 41.226C394.267 42.8594 393.683 42.9761 386.916 42.3927C376.649 41.4593 372.682 40.8759 370.349 39.9426C368.832 39.3592 368.249 39.7092 368.249 40.9926ZM189.157 83.2281C190.673 83.8114 190.79 84.1614 189.507 84.9781C187.29 86.3782 186.59 86.2615 185.773 84.2781C185.073 82.4114 186.123 82.0613 189.157 83.2281ZM556.558 189.4C556.908 190.333 556.792 190.8 556.092 190.45C555.392 190.1 554.925 189.283 554.925 188.583C554.925 186.95 555.742 187.3 556.558 189.4ZM590.393 233.269C588.993 235.602 586.776 233.969 586.776 230.585V226.969L588.877 229.652C590.043 231.169 590.627 232.802 590.393 233.269ZM606.494 320.307C606.611 322.99 606.261 325.557 605.911 326.024C605.444 326.374 605.094 323.923 605.094 320.54C605.094 313.306 606.144 313.19 606.494 320.307ZM593.077 330.69C592.843 332.557 592.61 331.274 592.61 328.124C592.61 324.857 592.843 323.457 593.077 324.857C593.31 326.374 593.31 328.94 593.077 330.69ZM588.41 379.11C588.06 380.043 587.71 379.693 587.71 378.409C587.593 377.126 587.943 376.426 588.293 376.893C588.643 377.243 588.76 378.293 588.41 379.11ZM594.71 402.327C594.01 404.194 593.543 404.427 593.543 403.144C593.427 400.577 594.944 396.727 595.41 398.244C595.644 398.944 595.294 400.811 594.71 402.327ZM582.46 408.278C582.11 411.661 581.76 415.278 581.643 416.211C581.526 417.145 581.06 416.328 580.71 414.461C580.243 412.478 580.243 410.028 580.826 408.978C581.293 407.928 581.76 405.944 581.76 404.661C581.76 403.261 582.11 402.211 582.46 402.211C582.81 402.211 582.81 405.011 582.46 408.278ZM569.042 462.53C567.642 464.864 567.409 464.164 568.459 461.13C568.926 460.08 569.509 459.497 569.742 459.847C570.092 460.08 569.742 461.364 569.042 462.53ZM567.409 473.614C567.059 474.548 566.709 474.198 566.709 472.914C566.592 471.631 566.942 470.931 567.292 471.397C567.642 471.747 567.759 472.798 567.409 473.614ZM106.786 511.183C105.502 513.516 104.102 515.383 103.752 515.383C102.936 515.383 104.686 510.366 106.669 507.216C109.469 502.782 109.703 506.399 106.786 511.183ZM525.757 519.35C525.757 519.7 525.29 520.283 524.59 520.633C524.007 520.983 523.423 520.75 523.423 520.167C523.423 519.466 524.007 518.883 524.59 518.883C525.29 518.883 525.757 519.116 525.757 519.35ZM529.257 524.017C529.257 524.25 528.324 525.183 527.274 526C525.407 527.517 525.29 527.4 526.807 525.533C528.324 523.667 529.257 523.083 529.257 524.017ZM523.423 530.317C523.423 530.9 522.607 532.3 521.673 533.584C520.04 535.684 520.04 535.567 521.207 532.534C522.607 529.384 523.423 528.567 523.423 530.317ZM148.905 534.051C149.605 535.334 151.005 536.384 151.938 536.384C152.871 536.384 155.088 537.784 156.722 539.534C158.472 541.401 159.405 542.218 158.938 541.401C157.538 538.951 160.105 538.834 163.605 541.168C167.572 543.734 169.556 544.084 167.689 541.868C166.289 540.118 167.105 538.717 169.439 538.717C170.489 538.717 170.606 539.651 170.022 541.868C169.439 543.968 168.389 545.018 167.222 544.784C163.489 544.201 165.239 545.834 170.606 548.051C173.522 549.335 176.439 550.151 177.023 549.801C178.423 548.868 185.306 552.601 184.49 553.885C184.14 554.468 184.373 555.285 185.073 555.635C186.006 556.218 186.006 556.918 185.073 557.968C183.323 560.069 188.457 564.735 195.224 567.302C200.824 569.519 201.524 570.919 196.04 569.169C194.173 568.469 191.14 567.769 189.157 567.419C187.29 567.186 184.14 566.135 182.156 565.085C180.289 564.035 178.073 563.219 177.373 563.219C176.673 563.219 173.989 561.819 171.422 559.952C168.972 558.202 166.055 556.218 165.005 555.635C156.605 550.151 153.571 547.818 153.571 546.885C153.571 545.134 156.255 545.484 158.938 547.468C160.105 548.401 162.205 549.101 163.489 549.218C165.122 549.218 164.189 548.285 160.688 546.301C158.005 544.668 154.972 543.384 154.038 543.384C153.105 543.384 152.755 542.684 153.105 541.634C153.571 540.468 153.105 539.884 151.705 539.884C148.671 539.768 145.871 537.551 144.938 534.284C143.888 530.9 147.154 530.667 148.905 534.051ZM141.088 535.567C143.421 536.384 143.771 538.717 141.554 538.717C139.454 538.717 137.237 536.267 137.237 534.051C137.237 533.001 137.587 532.767 138.171 533.584C138.637 534.284 139.921 535.101 141.088 535.567ZM182.04 541.868C184.14 544.668 184.14 545.018 182.39 546.301C181.34 547.118 180.756 548.051 181.223 548.401C181.573 548.868 180.523 548.518 178.889 547.701C176.673 546.768 176.323 546.185 177.606 545.951C179.939 545.368 179.123 543.151 175.973 541.518C171.656 539.417 171.656 538.717 175.856 538.717C178.773 538.834 180.406 539.651 182.04 541.868ZM215.991 568.702C216.808 569.869 218.325 570.336 219.841 569.986C221.475 569.519 224.158 570.569 227.892 573.253C233.492 577.219 233.492 577.219 229.992 577.219C228.009 577.219 224.392 576.636 221.825 575.936C219.258 575.236 215.875 574.419 214.241 574.069C212.608 573.719 210.274 572.669 208.991 571.736C206.774 570.102 206.774 569.986 209.341 570.802C211.791 571.502 212.024 571.386 210.858 569.286C210.158 568.002 208.991 566.602 208.174 566.252C207.357 565.785 208.408 565.785 210.624 566.135C212.841 566.486 215.175 567.652 215.991 568.702ZM201.641 580.37C213.658 584.22 218.908 586.553 218.908 587.72C218.908 589.12 219.141 589.12 219.958 587.953C221.592 585.27 236.409 588.07 236.409 591.103C236.409 594.254 267.911 598.454 286.811 597.987C293.578 597.754 298.945 597.987 298.595 598.454C298.362 599.037 296.845 599.387 295.212 599.387C293.578 599.387 292.412 600.087 292.412 601.021C292.412 603.354 281.445 604.637 270.944 603.471C266.394 603.004 259.743 602.421 256.243 602.187C252.743 601.954 246.209 601.021 241.659 600.087C237.226 599.037 232.325 598.22 230.925 598.22C229.409 598.22 228.242 597.637 228.242 596.937C228.242 596.354 227.658 596.12 226.958 596.587C226.258 596.937 222.875 596.354 219.375 595.187C213.541 593.204 213.308 592.97 215.525 591.453C217.741 589.937 217.741 589.703 215.758 588.303C214.591 587.487 213.308 587.02 212.724 587.37C211.324 588.187 197.207 583.17 193.94 580.603C192.423 579.436 189.857 578.386 188.34 578.386C185.423 578.386 174.106 571.036 175.273 569.869C175.739 569.519 177.956 570.452 180.289 571.969C182.623 573.486 192.19 577.219 201.641 580.37ZM202.341 574.886C207.124 576.169 212.724 578.269 214.941 579.67C217.508 581.186 221.125 582.236 224.742 582.353C228.592 582.353 230.575 582.936 230.575 583.87C230.575 586.203 225.558 585.62 216.925 582.353C212.608 580.72 205.374 578.153 200.94 576.519C187.99 572.086 188.69 571.269 202.341 574.886ZM166.405 581.303C168.039 582.236 168.856 582.936 168.156 582.936C167.572 582.936 165.705 582.236 164.072 581.303C162.439 580.37 161.739 579.67 162.322 579.67C163.022 579.67 164.772 580.37 166.405 581.303ZM200.707 590.053C199.54 590.52 197.674 590.637 196.74 590.287C195.457 589.82 195.807 589.353 197.907 588.887C201.524 587.953 203.857 589.003 200.707 590.053ZM352.031 588.77C351.098 589.353 347.131 590.17 343.281 590.637C339.314 590.987 334.647 591.687 332.664 592.037C330.797 592.387 329.514 592.27 329.98 591.803C330.68 591.103 347.014 588.07 351.915 587.837C353.431 587.72 353.431 587.953 352.031 588.77ZM310.846 594.954C310.263 596.704 305.246 597.754 305.246 596.12C305.246 594.487 306.646 593.554 309.096 593.554C310.263 593.554 311.079 594.137 310.846 594.954ZM319.246 594.72C319.246 595.304 318.196 595.887 317.03 595.887C315.746 595.887 314.346 595.304 313.996 594.72C313.529 594.02 314.58 593.554 316.213 593.554C317.846 593.554 319.246 594.02 319.246 594.72ZM396.25 595.304C396.25 595.537 395.084 596.47 393.683 597.17C391.233 598.454 391.117 598.454 392.633 596.704C394.15 594.837 396.25 594.02 396.25 595.304ZM390.417 598.104C390.417 598.687 389.367 599.387 387.967 599.737C386.1 600.204 385.866 600.087 387.033 598.687C388.55 596.82 390.417 596.47 390.417 598.104ZM192.423 601.254C194.173 601.721 195.574 601.487 195.574 600.787C195.574 600.204 198.607 600.904 202.341 602.304C205.957 603.821 213.191 606.154 218.325 607.554C223.458 608.954 228.475 610.704 229.409 611.521C231.859 613.621 237.459 614.555 240.726 613.271C242.359 612.688 244.576 612.804 246.676 613.621C248.426 614.321 253.56 615.021 257.993 615.138C263.71 615.138 266.044 615.605 265.81 616.655C265.694 617.471 266.044 618.055 266.744 618.055C267.327 618.055 267.911 618.521 267.911 619.221C267.911 620.972 263.944 620.622 247.609 617.471C239.326 615.955 232.325 614.788 231.859 614.905C231.509 615.021 225.208 613.038 218.091 610.704C210.741 608.138 203.974 606.504 202.691 606.971C201.407 607.321 199.657 606.854 198.607 605.687C197.557 604.637 194.524 603.587 191.84 603.354C189.157 603.121 186.123 602.071 185.073 601.021C183.44 599.27 183.556 599.154 186.24 599.854C187.873 600.321 190.557 600.904 192.423 601.254ZM337.914 603.121C337.914 603.821 337.564 604.171 337.214 603.821C336.864 603.471 333.597 603.821 329.98 604.754C322.863 606.388 319.596 606.738 320.646 605.804C321.113 605.221 334.064 602.071 337.097 601.837C337.564 601.721 337.914 602.304 337.914 603.121ZM378.749 602.887C377.816 603.471 376.183 603.937 375.249 603.937C374.082 603.937 374.316 603.587 375.833 602.887C378.983 601.487 380.849 601.487 378.749 602.887ZM372.916 604.054C372.916 604.637 371.982 605.221 370.932 605.221C369.766 605.221 367.549 605.571 365.915 605.804C364.049 606.154 364.515 605.804 367.082 604.754C372.099 602.654 372.916 602.537 372.916 604.054ZM344.098 610.704C343.281 610.938 341.648 610.938 340.597 610.704C339.431 610.354 340.131 610.121 341.998 610.121C343.981 610.121 344.798 610.354 344.098 610.704ZM350.748 610.354C350.748 610.704 350.281 611.288 349.581 611.638C348.998 611.988 348.415 611.754 348.415 611.171C348.415 610.471 348.998 609.888 349.581 609.888C350.281 609.888 350.748 610.121 350.748 610.354ZM270.827 612.221C270.477 612.804 268.377 613.271 266.394 613.271L262.66 613.155L266.16 612.221C271.177 610.938 271.644 610.938 270.827 612.221ZM340.247 614.555C340.247 615.838 332.314 617.471 331.264 616.421C330.797 616.071 331.614 615.721 333.014 615.721C334.414 615.721 335.581 615.138 335.581 614.555C335.581 613.855 336.631 613.388 337.914 613.388C339.197 613.388 340.247 613.855 340.247 614.555ZM328.93 616.771C329.397 616.888 329.747 617.355 329.747 618.055C329.747 618.638 328.93 618.755 327.764 618.405C326.713 617.938 326.13 618.171 326.48 618.755C326.947 619.338 325.547 619.805 323.563 619.922C321.463 619.922 312.946 620.388 304.546 620.972C294.629 621.555 289.028 621.438 288.562 620.738C287.862 619.572 305.246 617.705 317.73 617.588C320.997 617.471 323.447 617.121 323.33 616.771C323.097 616.421 324.03 616.305 325.43 616.421C326.83 616.538 328.347 616.771 328.93 616.771ZM343.164 618.055C341.298 618.521 337.797 618.988 335.581 618.871H331.497L336.164 618.055C338.731 617.588 342.114 617.238 343.748 617.238C346.314 617.121 346.314 617.238 343.164 618.055Z" fill="#F4F4F4"/>
<path d="M456.453 45.0761C456.103 45.5428 457.153 46.5928 458.67 47.2929C460.304 48.1096 461.587 48.2263 461.587 47.7596C461.587 46.3595 457.037 44.026 456.453 45.0761Z" fill="#F4F4F4"/>
<path d="M183.906 47.0595C183.906 48.1096 184.49 48.693 185.306 48.4596C187.406 47.7596 187.757 45.1928 185.773 45.1928C184.723 45.1928 183.906 46.0095 183.906 47.0595Z" fill="#F4F4F4"/>
<path d="M465.787 51.6097C468.004 53.8265 469.171 54.1765 471.271 53.4765C473.721 52.5431 473.604 52.4264 469.287 50.5597C463.104 47.9929 462.404 48.2262 465.787 51.6097Z" fill="#F4F4F4"/>
<path d="M381.083 54.5266C381.083 55.1099 382.133 55.6933 383.533 55.6933C384.816 55.6933 385.516 55.1099 385.166 54.5266C384.816 53.8265 383.65 53.3598 382.716 53.3598C381.783 53.3598 381.083 53.8265 381.083 54.5266Z" fill="#F4F4F4"/>
<path d="M403.251 56.86C403.251 57.6767 406.051 59.1934 407.451 59.1934C408.968 59.1934 407.567 56.9766 405.584 56.51C404.301 56.1599 403.251 56.2766 403.251 56.86Z" fill="#F4F4F4"/>
<path d="M166.405 60.0101C164.189 61.0602 162.905 62.1102 163.722 62.3436C165.005 62.8102 172.239 59.6601 172.239 58.61C172.239 57.6767 170.839 58.0267 166.405 60.0101Z" fill="#F4F4F4"/>
<path d="M394.5 59.1935C394.85 59.7769 396.367 60.3602 397.767 60.3602C399.867 60.3602 399.984 60.1269 398.584 59.1935C396.25 57.6768 393.567 57.6768 394.5 59.1935Z" fill="#F4F4F4"/>
<path d="M409.084 59.0768C409.084 60.2435 412.584 61.877 413.401 61.0602C413.751 60.8269 412.818 60.0102 411.534 59.1935C410.134 58.4934 409.084 58.3768 409.084 59.0768Z" fill="#F4F4F4"/>
<path d="M483.755 62.3436C483.755 63.977 484.921 65.1437 487.255 66.0771C489.238 66.6605 490.755 67.7105 490.755 68.2939C490.755 68.7606 493.672 71.7941 497.172 74.8275C504.639 81.2445 505.806 80.0778 498.922 73.1941C496.355 70.6273 494.255 68.0605 494.255 67.4772C494.255 66.8938 492.972 66.0771 491.338 65.7271C489.822 65.3771 487.371 63.8603 486.088 62.4603L483.755 59.8935V62.3436Z" fill="#F4F4F4"/>
<path d="M418.418 63.977C418.418 64.5604 418.885 65.0271 419.468 65.0271C420.051 65.0271 421.452 65.3771 422.618 65.8438C423.902 66.3105 424.368 66.1938 423.902 65.3771C422.852 63.7437 418.418 62.577 418.418 63.977Z" fill="#F4F4F4"/>
<path d="M442.336 65.0271C442.686 65.6105 444.203 66.1938 445.603 66.0771C448.053 66.0771 448.053 65.9605 445.836 65.0271C442.569 63.627 441.519 63.627 442.336 65.0271Z" fill="#F4F4F4"/>
<path d="M438.252 73.7775C439.069 74.7109 440.236 75.5276 440.819 75.5276C441.519 75.5276 441.402 74.7109 440.586 73.7775C439.769 72.8441 438.602 72.0274 438.019 72.0274C437.319 72.0274 437.436 72.8441 438.252 73.7775Z" fill="#F4F4F4"/>
<path d="M506.739 90.3451C510.123 93.6119 512.573 96.5287 512.223 96.8787C511.873 97.2287 513.156 98.7455 515.139 100.146C517.356 101.779 519.223 104.579 520.04 107.263C521.09 111.346 523.423 113.446 523.423 110.296C523.423 109.479 526.223 112.046 529.607 115.78C532.874 119.63 536.841 123.713 538.357 124.997C539.757 126.28 540.924 127.914 540.924 128.73C540.924 129.547 542.207 131.18 543.608 132.347C545.124 133.514 546.641 135.264 546.991 136.197C547.341 137.247 547.808 137.364 548.274 136.547C548.624 135.964 547.458 133.281 545.591 130.83C541.857 125.93 541.391 124.53 543.258 124.53C543.958 124.53 544.891 125.697 545.474 127.097C546.058 128.614 547.574 130.83 548.741 132.114C550.025 133.397 551.658 135.497 552.358 136.781C554.691 140.864 553.875 136.547 551.075 130.597C549.558 127.447 546.524 123.013 544.308 120.797C537.424 113.796 533.924 109.829 533.924 108.896C533.924 107.146 529.957 104.112 527.273 103.879C522.957 103.529 517.823 99.2122 517.356 95.5953C517.123 93.1452 516.306 92.4452 514.206 92.3285C512.573 92.2118 510.123 90.8117 508.839 89.1783C507.439 87.6616 504.989 85.9115 503.472 85.4448C501.372 84.7448 502.189 86.0282 506.739 90.3451Z" fill="#F4F4F4"/>
<path d="M468.587 94.0785C468.587 94.6619 469.404 95.4786 470.454 95.8286C473.021 96.8786 473.254 96.762 472.554 94.7785C471.737 92.9118 468.587 92.3284 468.587 94.0785Z" fill="#F4F4F4"/>
<path d="M460.42 95.0119C460.42 96.412 464.854 100.612 465.67 99.7955C466.02 99.5622 464.97 98.0454 463.337 96.5287C461.704 95.0119 460.42 94.3119 460.42 95.0119Z" fill="#F4F4F4"/>
<path d="M156.488 107.029C156.138 107.613 156.838 108.196 158.122 108.196C159.405 108.196 160.805 107.613 161.155 107.029C161.505 106.329 160.805 105.862 159.522 105.862C158.238 105.862 156.838 106.329 156.488 107.029Z" fill="#F4F4F4"/>
<path d="M549.091 139.114C549.091 140.047 549.675 140.864 550.258 140.864C550.958 140.864 551.425 140.047 551.425 139.114C551.425 138.181 550.958 137.364 550.258 137.364C549.675 137.364 549.091 138.181 549.091 139.114Z" fill="#F4F4F4"/>
<path d="M580.593 197.1C580.593 198.034 581.409 198.85 582.343 198.85C584.443 198.85 584.093 196.634 581.993 195.934C581.176 195.7 580.593 196.284 580.593 197.1Z" fill="#F4F4F4"/>
<path d="M15.8979 232.569C13.9145 238.286 15.0812 238.752 17.4147 233.035C18.348 230.469 18.8147 228.369 18.2314 228.369C17.648 228.369 16.598 230.235 15.8979 232.569Z" fill="#F4F4F4"/>
<path d="M25.2317 422.512C25.2317 426.945 27.2152 429.162 28.8486 426.595C30.482 424.028 29.5486 419.245 27.3318 418.778C25.6984 418.428 25.2317 419.245 25.2317 422.512Z" fill="#F4F4F4"/>
<path d="M45.1827 433.596C43.7826 436.046 44.5993 437.329 46.9328 436.396C48.7996 435.696 49.1496 431.379 47.3995 431.379C46.8161 431.379 45.7661 432.312 45.1827 433.596Z" fill="#F4F4F4"/>
<path d="M44.716 439.196C43.0826 440.713 44.016 447.596 46.1161 450.163L48.4495 452.963L52.7664 448.646L57.0833 444.446L54.0498 441.413C51.133 438.612 46.4661 437.446 44.716 439.196Z" fill="#F4F4F4"/>
<path d="M29.8986 444.796C29.8986 445.146 30.7153 446.78 31.7654 448.296C32.8154 449.813 33.2821 452.03 32.9321 453.197C31.8821 456.58 34.0988 459.03 36.549 457.513C38.8824 455.997 38.9991 450.396 36.7823 446.43C35.8489 444.446 29.8986 443.163 29.8986 444.796Z" fill="#F4F4F4"/>
<path d="M57.9 457.98C57.9 461.597 58.3667 462.88 59.4168 462.647C61.5169 461.83 61.7502 457.98 59.7668 455.297C58.1334 453.08 58.0167 453.313 57.9 457.98Z" fill="#F4F4F4"/>
<path d="M40.0491 462.064C38.649 462.997 38.1823 464.28 38.7657 465.564C39.6991 468.014 41.9159 468.131 43.8993 465.68C45.1827 464.28 45.1827 463.58 43.7826 462.18C42.3826 460.78 41.6825 460.78 40.0491 462.064Z" fill="#F4F4F4"/>
<path d="M64.4337 466.614C62.1002 473.964 63.5003 476.414 67.5838 472.331C69.5673 470.464 69.8006 469.414 68.8672 467.897C67.2338 465.33 65.017 464.63 64.4337 466.614Z" fill="#F4F4F4"/>
<path d="M48.5662 472.914C48.5662 473.847 49.1496 474.314 49.7329 473.964C50.433 473.497 50.6663 472.681 50.3163 472.097C49.2663 470.464 48.5662 470.814 48.5662 472.914Z" fill="#F4F4F4"/>
<path d="M553.875 497.765C552.708 499.749 552.825 500.215 554.225 500.215C556.558 500.215 557.375 498.699 556.092 496.832C555.392 495.549 554.925 495.782 553.875 497.765Z" fill="#F4F4F4"/>
<path d="M68.4005 528.8C68.4005 530.784 68.9839 531.717 70.034 531.484C70.8507 531.25 72.7174 532.417 74.0008 534.051C75.2842 535.684 76.6843 536.617 77.151 536.151C78.0844 535.217 71.084 525.883 69.4506 525.883C68.8672 525.883 68.4005 527.167 68.4005 528.8Z" fill="#F4F4F4"/>
<path d="M96.4019 542.101C96.4019 542.684 97.2186 543.734 98.152 544.551C100.019 546.184 100.252 545.718 99.2021 542.918C98.502 540.934 96.4019 540.351 96.4019 542.101Z" fill="#F4F4F4"/>
<path d="M563.325 551.785C562.509 552.601 561.925 554.235 561.925 555.402C561.925 557.268 562.275 557.385 563.559 556.335C565.309 554.818 566.825 550.385 565.542 550.385C565.075 550.385 564.142 550.968 563.325 551.785Z" fill="#F4F4F4"/>
<path d="M185.073 584.336C185.073 584.92 185.656 585.153 186.24 584.803C186.94 584.453 187.406 583.87 187.406 583.52C187.406 583.286 186.94 583.053 186.24 583.053C185.656 583.053 185.073 583.636 185.073 584.336Z" fill="#F4F4F4"/>
<path d="M461.703 593.087C459.37 595.887 460.887 596.237 464.037 593.67C466.02 592.037 466.254 591.337 465.087 591.337C464.154 591.337 462.637 592.153 461.703 593.087Z" fill="#F4F4F4"/>
<path d="M440.002 598.337C437.786 599.737 437.202 600.554 438.369 600.554C439.419 600.554 441.519 599.504 443.036 598.22C446.536 595.304 444.553 595.304 440.002 598.337Z" fill="#F4F4F4"/>
<path d="M126.737 612.804C127.553 613.738 128.837 614.555 129.77 614.555C130.587 614.555 133.154 615.488 135.487 616.538C137.704 617.588 139.921 618.055 140.387 617.471C140.971 617.005 140.737 616.305 139.921 616.071C139.104 615.838 138.754 614.905 139.104 614.088C139.571 613.038 138.054 612.338 134.204 611.754C125.803 610.704 124.987 610.704 126.737 612.804Z" fill="#F4F4F4"/>
<path d="M154.738 616.771C154.738 618.638 161.855 623.538 168.389 625.988C171.772 627.272 177.023 629.839 180.289 631.822C191.49 638.822 200.591 639.639 202.107 633.805C203.041 629.955 201.407 628.205 192.89 623.888C185.306 620.038 181.69 619.571 178.073 621.788C176.206 622.955 175.273 622.955 173.172 621.671C166.172 617.238 154.738 614.204 154.738 616.771Z" fill="#F4F4F4"/>
<path d="M188.923 618.405C189.857 621.438 197.44 624.355 212.841 627.622C221.592 629.489 230.809 631.355 233.259 631.705C235.592 632.055 237.576 632.872 237.576 633.339C237.576 634.622 264.177 634.505 267.327 633.339C268.844 632.639 266.51 632.289 260.91 632.289C245.976 632.172 220.775 627.038 194.057 618.755C189.857 617.355 188.573 617.355 188.923 618.405Z" fill="#F4F4F4"/>
<path d="M368.249 626.222C367.315 626.805 366.849 627.505 367.199 627.855C367.432 628.205 368.482 627.972 369.416 627.389C370.349 626.805 370.816 626.105 370.466 625.755C370.232 625.405 369.182 625.639 368.249 626.222Z" fill="#F4F4F4"/>
<path d="M375.833 627.388C375.483 627.972 374.082 628.555 372.799 628.555C371.632 628.555 370.582 629.022 370.582 629.605C370.582 630.889 379.799 629.139 381.433 627.505C382.366 626.572 381.9 626.222 379.683 626.222C377.933 626.222 376.183 626.688 375.833 627.388Z" fill="#F4F4F4"/>
<path d="M357.165 629.255C356.115 630.305 355.532 631.705 355.648 632.289C356.232 633.922 358.332 632.989 357.982 631.239C357.748 630.422 358.448 629.722 359.498 629.722C360.432 629.722 361.249 629.138 361.249 628.555C361.249 626.805 359.265 627.155 357.165 629.255Z" fill="#F4F4F4"/>
<path d="M343.048 633.922C343.748 635.672 343.514 635.789 342.464 634.739C341.414 633.689 340.247 633.806 337.214 635.322C331.497 638.006 332.314 638.822 339.664 637.539C344.448 636.606 346.081 635.789 345.848 634.622C345.614 633.572 344.798 632.639 343.864 632.289C342.698 631.939 342.464 632.289 343.048 633.922Z" fill="#F4F4F4"/>
<path d="M268.727 635.089C266.977 636.839 268.144 637.422 273.861 637.539C277.944 637.656 279.578 637.306 279.228 636.372C278.761 634.855 270.011 633.805 268.727 635.089Z" fill="#F4F4F4"/>
<path d="M250.876 639.056C252.86 639.756 255.077 639.639 256.127 639.056C257.41 638.239 256.477 638.006 252.743 638.006C247.843 638.122 247.726 638.122 250.876 639.056Z" fill="#F4F4F4"/>
<path d="M287.161 640.339C285.528 640.923 286.928 641.273 291.478 641.273C295.095 641.389 298.479 640.923 298.829 640.222C299.645 638.939 290.545 638.939 287.161 640.339Z" fill="#F4F4F4"/>
<path d="M273.044 641.156C273.627 642.089 280.744 641.623 280.744 640.689C280.744 640.456 278.878 640.223 276.544 640.223C274.327 640.223 272.694 640.689 273.044 641.156Z" fill="#F4F4F4"/>
<path d="M312.829 655.857C316.563 657.49 317.613 657.373 316.33 655.507C315.98 654.807 314.229 654.223 312.479 654.223L309.329 654.34L312.829 655.857Z" fill="#F4F4F4"/>
</svg>
