<svg width="42" height="40" viewBox="0 0 42 40" fill="none" xmlns="http://www.w3.org/2000/svg">
<path d="M22.3137 0.392155C21.9216 0.627449 19.9608 3.17647 17.8824 6.07843C15.8039 8.98039 13.2157 12.4314 12.1176 13.7255L10.1569 16.0784L8.90196 14.7451C6.54902 12.2745 2.7451 12.5098 0.901961 15.2549C0.0392157 16.549 0 16.8235 0 26.7843V36.9412L1.52941 38.4706C2.90196 39.8431 3.2549 40 5.05882 40C6.78431 40 7.2549 39.8039 8.5098 38.6667L9.96078 37.3333L11.4902 38.5882L13.0196 39.8039L21.8824 39.9216C31.4118 40.0392 32.4314 39.8824 33.6863 38.0784C34.0784 37.5294 36 33.3725 37.9608 28.902C41.2941 21.3725 41.5686 20.549 41.5686 18.2353C41.5686 16 41.451 15.5686 40.4314 14.4314L39.2941 13.1373L32.3922 13.0196L25.5294 12.902L26.3529 10.8627C28.4314 5.68627 28.6274 4.86274 28.1961 3.33333C27.6078 1.17647 26.2353 0 24.4314 0C23.6078 0 22.6667 0.196075 22.3137 0.392155ZM25.5686 2.62745C26.6274 3.60784 26.4314 4.90196 24.4706 9.76471C23.4902 12.2353 22.8235 14.3529 23.0196 14.549C23.1765 14.7059 26.7451 14.902 30.902 14.9804C37.8824 15.098 38.549 15.1765 39.0588 15.8431C40.3137 17.5686 39.7647 19.7255 36.0392 28.1961C33.9608 32.8627 32.0784 36.6275 31.5294 37.1373C30.5882 38 30.2745 38.0392 22.7059 38.0392C17.6863 38.0392 14.549 37.8824 14 37.6078C13.5294 37.3725 12.4706 36.549 11.6863 35.7647L10.1961 34.3529V26.5098V18.7059L12.6667 16.1176C14.0392 14.7059 16.7059 11.3333 18.6274 8.62745C23.6863 1.45098 24 1.21569 25.5686 2.62745ZM7.37255 16.3137C8.23529 17.2941 8.23529 17.4902 8.23529 26.7059V36.1176L7.2549 37.0588C6 38.3529 4.19608 38.3529 2.94118 37.0588L1.96078 36.1176V26.7843C1.96078 18.8235 2.03922 17.2941 2.58824 16.549C3.88235 14.7059 5.80392 14.6275 7.37255 16.3137Z" fill="white"/>
</svg>
