<svg width="217" height="44" viewBox="0 0 217 44" fill="none" xmlns="http://www.w3.org/2000/svg">
<path d="M29.6171 2.49354C28.3449 3.81664 26.5638 6.25929 25.6987 7.83684L24.0703 10.6866L22.7472 9.71972C21.9839 9.21083 19.9483 8.04039 18.2181 7.17529L15.0121 5.59774L14.2488 6.76818C13.8417 7.42973 13.1801 9.71972 12.8748 11.857C12.5186 13.9944 12.0606 15.7755 11.8061 15.7755C11.5517 15.7755 10.025 15.4192 8.4475 15.0121C6.86996 14.605 4.32553 14.2488 2.79887 14.147L0 13.9944L0.101777 16.3861C0.254443 19.3377 1.88288 23.6123 3.00243 23.8158C4.0202 24.0194 4.0202 23.0525 3.1042 20.8134C2.74798 19.8465 2.2391 18.3199 2.03554 17.353L1.67932 15.6737L3.86753 16.0299C7.88773 16.6406 13.689 18.3708 17.4548 20.101L21.1188 21.8312V24.5283C21.1188 27.4798 22.1365 29.668 23.1034 28.752C23.4596 28.3449 23.5105 27.6325 23.1543 26.4621C22.0347 22.5945 22.7981 22.4419 26.2076 25.9532C28.752 28.5994 30.3805 31.9071 31.042 36.1309L31.3982 38.4209L29.3118 36.3853C28.1414 35.2658 26.6656 33.6373 26.0549 32.7213C24.8336 30.8894 23.6632 30.5331 23.6632 32.0089C23.6632 32.874 27.0218 37.1487 28.752 38.5226C29.9734 39.4386 29.2609 39.5913 25.4443 39.1333C21.1188 38.6244 16.5388 36.996 13.689 35.0622C11.4499 33.5356 7.83684 29.668 6.46285 27.378C5.69952 26.0549 3.81664 25.3934 3.81664 26.4112C3.81664 26.6656 4.57997 27.9887 5.54685 29.4136L7.32795 31.958L4.0202 33.332C1.83199 34.248 0.763328 35.0113 0.763328 35.622C0.763328 36.7924 8.04039 40.8635 13.231 42.5937C18.3708 44.2731 25.6478 44.4766 29.2609 43.0517C30.5331 42.5428 31.9071 42.1357 32.3142 42.1357C32.7213 42.1357 34.0953 42.5428 35.3676 43.0517C38.9806 44.4766 46.2577 44.2731 51.4483 42.5428C55.8248 41.118 57.5041 39.9475 56.0283 39.3878C55.5703 39.2351 54.0945 39.5404 52.7714 40.1002C49.4637 41.4742 45.5962 42.2375 41.8304 42.1866C37.3013 42.1357 35.9273 41.4742 39.5404 41.0671C45.3417 40.3546 50.1252 38.3191 54.7561 34.5533L56.1301 33.4847L58.5727 34.5533L61.0154 35.6729L59.5396 36.8942C58.2165 37.912 58.1147 38.1155 58.8781 38.4209C60.0485 38.8789 63.8651 36.6907 63.8651 35.5711C63.8651 35.0113 62.7965 34.248 60.6083 33.332L57.3514 31.958L59.2852 29.1591C61.8805 25.4443 64.3231 19.4903 64.5267 16.437L64.6285 13.9944L61.8296 14.147C60.3029 14.2488 57.7585 14.605 56.181 15.0121C54.6034 15.4192 53.0768 15.7755 52.8223 15.7755C52.5679 15.7755 52.1099 13.9944 51.7537 11.857C51.4483 9.71972 50.7868 7.42973 50.3797 6.76818L49.6164 5.59774L46.4104 7.17529C44.6802 8.04039 42.6446 9.21083 41.8813 9.71972L40.5582 10.6866L38.9298 7.88773C37.4031 5.24152 35.8764 4.22375 35.8764 5.85218C35.8764 6.25929 36.538 7.68417 37.3522 9.00728C38.1664 10.3813 39.4895 13.2819 40.2529 15.521C43.0517 23.765 41.8813 29.4645 36.0291 35.5202L33.2811 38.4209L33.5865 36.3853C34.1971 32.4669 35.5202 29.4136 37.7593 26.6147C39.4895 24.4774 39.8966 23.6632 39.4386 23.2052C38.6244 22.4419 34.8078 26.6656 33.5356 29.7698C32.9758 31.042 32.4669 32.0598 32.3142 32.0598C32.1616 32.0598 31.6527 31.042 31.0929 29.7698C30.0751 27.1745 26.5129 23.0016 24.4265 21.8821C23.1543 21.2205 23.0525 20.9661 23.3579 18.9814C23.765 15.979 25.8514 11.0937 28.2432 7.32795C30.8894 3.30776 32.1107 2.13732 32.9249 2.95154C33.7391 3.76575 34.8587 3.71487 34.8587 2.90065C34.8587 2.2391 32.8231 -3.58603e-07 32.2125 -3.58603e-07C32.0598 -3.58603e-07 30.8894 1.11955 29.6171 2.49354ZM19.3885 9.97416C21.017 10.941 22.5945 11.9588 22.7981 12.1624C23.0525 12.4168 22.849 13.8417 22.391 15.3175C20.9152 20.101 21.2714 19.8974 17.6074 18.1672L14.3506 16.6406L14.6559 13.2819C14.9612 9.7706 15.3683 8.14217 15.979 8.14217C16.1826 8.14217 17.7092 8.95639 19.3885 9.97416ZM49.4637 9.51616C49.6672 10.3304 49.8199 12.2641 49.8708 13.8926V16.895L46.7157 18.3199L43.5606 19.7448L42.492 16.1826C41.8813 14.1979 41.576 12.4168 41.8304 12.1624C42.492 11.5517 48.2424 8.14217 48.7004 8.14217C48.9039 8.14217 49.2601 8.75283 49.4637 9.51616ZM62.5929 17.4039C61.4734 22.4927 57.6059 29.21 53.6365 32.8231C50.7868 35.4184 48.4968 36.7924 45.2399 37.8611C42.7973 38.6753 35.8255 39.744 35.4184 39.3878C35.3167 39.286 36.4362 37.912 37.912 36.2835C41.4742 32.416 43.5097 28.0905 43.5097 24.5283V21.8312L46.7157 20.4063C50.7868 18.5234 54.1963 17.353 58.013 16.5388C62.7965 15.4701 63 15.521 62.5929 17.4039ZM11.0937 35.4184C12.2133 36.4362 14.2997 37.8102 15.7755 38.4718C18.4217 39.6931 24.223 41.1689 26.7165 41.2197L27.9887 41.2706L26.7165 41.8304C24.5283 42.6955 17.2003 41.9831 12.9766 40.4564C9.3635 39.1333 3.81664 36.3344 3.81664 35.8256C3.81664 35.5202 7.93862 33.6373 8.60017 33.5865C8.85461 33.5865 9.97416 34.4007 11.0937 35.4184Z" fill="white"/>
<path d="M83.3607 20.7876C81.7094 20.7876 80.2927 20.5095 79.1107 19.9532C77.946 19.397 76.9987 18.6582 76.2686 17.7369C75.5385 16.7982 74.9997 15.764 74.652 14.6341C74.3044 13.5042 74.1305 12.3743 74.1305 11.2445C74.1305 10.1494 74.313 9.04555 74.6781 7.93306C75.0605 6.80318 75.6254 5.76891 76.3729 4.83024C77.1377 3.89158 78.0851 3.13543 79.215 2.5618C80.3622 1.98817 81.7007 1.70135 83.2304 1.70135C84.8296 1.70135 86.2028 1.98817 87.3501 2.5618C88.5147 3.13543 89.4708 3.90027 90.2182 4.85632C90.9657 5.79499 91.5219 6.82057 91.887 7.93306C92.2694 9.04555 92.4606 10.1494 92.4606 11.2445C92.4606 12.3222 92.2694 13.426 91.887 14.5559C91.5219 15.6684 90.957 16.7026 90.1922 17.6587C89.4447 18.5974 88.506 19.3535 87.3762 19.9271C86.2463 20.5008 84.9078 20.7876 83.3607 20.7876ZM83.4911 19.4317C84.4993 19.4317 85.3685 19.2058 86.0985 18.7538C86.846 18.3019 87.4544 17.7021 87.9237 16.9547C88.4104 16.1898 88.7668 15.3555 88.9927 14.4516C89.2187 13.5303 89.3317 12.6177 89.3317 11.7138C89.3317 10.6013 89.2013 9.53227 88.9406 8.50669C88.6799 7.46373 88.2801 6.53375 87.7412 5.71676C87.2197 4.88239 86.5679 4.23054 85.7856 3.76121C85.0034 3.27449 84.0995 3.03113 83.0739 3.03113C82.0657 3.03113 81.1879 3.2658 80.4404 3.73513C79.693 4.20447 79.0846 4.82155 78.6153 5.58639C78.1459 6.33385 77.7896 7.16822 77.5462 8.0895C77.3203 8.9934 77.2073 9.906 77.2073 10.8273C77.2073 11.7312 77.3289 12.6872 77.5723 13.6954C77.8157 14.7036 78.1894 15.6423 78.6935 16.5114C79.1976 17.3806 79.8407 18.0846 80.623 18.6234C81.4226 19.1623 82.3786 19.4317 83.4911 19.4317Z" fill="white"/>
<path d="M109.021 7.93306C108.83 6.36861 108.291 5.16921 107.405 4.33484C106.518 3.48308 105.362 3.04852 103.937 3.03113C103.033 3.03113 102.198 3.23103 101.434 3.63084C100.669 4.03064 100.008 4.59558 99.4519 5.32565C98.8957 6.03834 98.4611 6.8901 98.1482 7.88091C97.8527 8.85434 97.705 9.92338 97.705 11.088C97.705 12.6698 97.9831 14.0778 98.5393 15.312C99.0956 16.5288 99.8604 17.4762 100.834 18.1541C101.825 18.832 102.946 19.171 104.197 19.171C105.31 19.171 106.405 18.9102 107.483 18.3888C108.578 17.8499 109.482 17.0938 110.194 16.1203L111.055 16.8504C110.273 17.9281 109.438 18.7538 108.552 19.3274C107.665 19.9011 106.779 20.2835 105.892 20.4747C105.023 20.6833 104.232 20.7876 103.519 20.7876C102.216 20.7876 101.016 20.5529 99.9212 20.0836C98.8261 19.6142 97.8788 18.9624 97.0792 18.128C96.297 17.2763 95.6886 16.2941 95.254 15.1817C94.8368 14.0518 94.6282 12.835 94.6282 11.5313C94.6282 10.3145 94.8194 9.12378 95.2018 7.95913C95.5843 6.79449 96.1492 5.74284 96.8967 4.80417C97.6441 3.84812 98.5828 3.09197 99.7127 2.53573C100.86 1.97948 102.19 1.70135 103.702 1.70135C104.589 1.70135 105.449 1.82303 106.283 2.06639C107.135 2.30975 107.952 2.68348 108.734 3.18758L108.604 1.88387H110.221V7.93306H109.021Z" fill="white"/>
<path d="M126.655 7.75054C126.638 6.75973 126.525 5.93405 126.316 5.2735C126.108 4.61296 125.76 4.11755 125.273 3.78728C124.804 3.45701 124.152 3.30056 123.318 3.31795H121.441L121.414 16.8765C121.414 17.3458 121.406 17.7717 121.388 18.1541C121.388 18.5191 121.371 18.8146 121.336 19.0406C121.666 19.0059 122.023 18.9885 122.405 18.9885C122.805 18.9711 123.161 18.9537 123.474 18.9363V20.3704H116.851V19.2231C117.425 19.1884 117.834 19.0667 118.077 18.8581C118.32 18.6495 118.477 18.3366 118.546 17.9194C118.616 17.4849 118.651 16.9547 118.651 16.3289V3.34402L116.46 3.3701C115.4 3.3701 114.626 3.72644 114.14 4.43913C113.653 5.15182 113.41 6.25563 113.41 7.75054H112.184L112.341 2.11854H127.724L127.881 7.75054H126.655Z" fill="white"/>
<path d="M138.821 13.7737C138.821 13.0262 138.708 12.4873 138.482 12.1571C138.273 11.8268 137.952 11.6269 137.517 11.5574C137.083 11.4704 136.544 11.4444 135.901 11.4791L134.388 11.5313V16.9547C134.388 17.424 134.38 17.8412 134.362 18.2062C134.362 18.5539 134.345 18.8407 134.31 19.0667L138.795 19.0145C139.473 18.9972 140.081 18.8755 140.62 18.6495C141.159 18.4061 141.585 17.9977 141.898 17.424C142.211 16.8504 142.367 16.0682 142.367 15.0774H143.514L143.358 20.3704H129.799V19.2231C130.373 19.1884 130.781 19.0667 131.025 18.8581C131.286 18.6495 131.451 18.3366 131.52 17.9194C131.59 17.5022 131.624 16.9721 131.624 16.3289V5.4821C131.624 5.09968 131.633 4.73464 131.651 4.38698C131.668 4.02195 131.685 3.70906 131.703 3.44832C131.407 3.4657 131.086 3.48308 130.738 3.50047C130.39 3.51785 130.077 3.53523 129.799 3.55261V2.11854H142.523L142.654 6.83795H141.507C141.507 5.84713 141.341 5.09098 141.011 4.5695C140.698 4.04802 140.281 3.70037 139.76 3.52654C139.255 3.35271 138.708 3.27449 138.117 3.29187L136.292 3.34402C135.753 3.34402 135.344 3.43963 135.066 3.63084C134.788 3.80466 134.606 4.10017 134.519 4.51735C134.432 4.91716 134.388 5.46471 134.388 6.16002V10.2537H138.691L138.534 8.01128H139.968V13.7737H138.821Z" fill="white"/>
<path d="M154.988 20.7876C153.337 20.7876 151.92 20.5095 150.738 19.9532C149.573 19.397 148.626 18.6582 147.896 17.7369C147.166 16.7982 146.627 15.764 146.279 14.6341C145.932 13.5042 145.758 12.3743 145.758 11.2445C145.758 10.1494 145.94 9.04555 146.305 7.93306C146.688 6.80318 147.253 5.76891 148 4.83024C148.765 3.89158 149.712 3.13543 150.842 2.5618C151.99 1.98817 153.328 1.70135 154.858 1.70135C156.457 1.70135 157.83 1.98817 158.977 2.5618C160.142 3.13543 161.098 3.90027 161.846 4.85632C162.593 5.79499 163.149 6.82057 163.514 7.93306C163.897 9.04555 164.088 10.1494 164.088 11.2445C164.088 12.3222 163.897 13.426 163.514 14.5559C163.149 15.6684 162.584 16.7026 161.819 17.6587C161.072 18.5974 160.133 19.3535 159.003 19.9271C157.874 20.5008 156.535 20.7876 154.988 20.7876ZM155.118 19.4317C156.127 19.4317 156.996 19.2058 157.726 18.7538C158.473 18.3019 159.082 17.7021 159.551 16.9547C160.038 16.1898 160.394 15.3555 160.62 14.4516C160.846 13.5303 160.959 12.6177 160.959 11.7138C160.959 10.6013 160.829 9.53227 160.568 8.50669C160.307 7.46373 159.907 6.53375 159.369 5.71676C158.847 4.88239 158.195 4.23054 157.413 3.76121C156.631 3.27449 155.727 3.03113 154.701 3.03113C153.693 3.03113 152.815 3.2658 152.068 3.73513C151.32 4.20447 150.712 4.82155 150.243 5.58639C149.773 6.33385 149.417 7.16822 149.174 8.0895C148.948 8.9934 148.835 9.906 148.835 10.8273C148.835 11.7312 148.956 12.6872 149.2 13.6954C149.443 14.7036 149.817 15.6423 150.321 16.5114C150.825 17.3806 151.468 18.0846 152.25 18.6234C153.05 19.1623 154.006 19.4317 155.118 19.4317Z" fill="white"/>
<path d="M74.4173 42.3704V41.2231C74.991 41.1884 75.3995 41.0667 75.6428 40.8581C75.9036 40.6495 76.0687 40.3366 76.1382 39.9194C76.2078 39.5022 76.2425 38.9721 76.2425 38.3289V27.4821C76.2425 27.0997 76.2512 26.7346 76.2686 26.387C76.286 26.0219 76.3034 25.7091 76.3207 25.4483C76.0252 25.4657 75.7037 25.4831 75.356 25.5005C75.0084 25.5179 74.6955 25.5352 74.4173 25.5526V24.1185H91.7566V25.2658C91.2004 25.2832 90.7919 25.4049 90.5311 25.6308C90.2704 25.8394 90.1052 26.1523 90.0357 26.5695C89.9662 26.9693 89.9314 27.4995 89.9314 28.16V38.8765C89.9314 39.3458 89.9227 39.7717 89.9053 40.1541C89.9053 40.5191 89.888 40.8146 89.8532 41.0406C90.1487 41.0059 90.4703 40.9885 90.8179 40.9885C91.183 40.9711 91.4959 40.9537 91.7566 40.9363V42.3704H85.3424V41.2231C85.916 41.1884 86.3245 41.0667 86.5679 40.8581C86.8286 40.6495 86.9937 40.3366 87.0633 39.9194C87.1328 39.5022 87.1676 38.9721 87.1676 38.3289V25.4483L80.8055 25.5526C80.3362 25.57 79.9711 25.6569 79.7104 25.8134C79.4496 25.9524 79.2671 26.1784 79.1628 26.4913C79.0759 26.8042 79.0238 27.2127 79.0064 27.7168V38.8765C79.0064 39.3458 78.9977 39.7717 78.9803 40.1541C78.9803 40.5191 78.9629 40.8146 78.9282 41.0406C79.2237 41.0059 79.5452 40.9885 79.8929 40.9885C80.2579 40.9711 80.5708 40.9537 80.8316 40.9363V42.3704H74.4173Z" fill="white"/>
<path d="M94.5331 41.2231C95.1067 41.1884 95.5152 41.0667 95.7586 40.8581C96.0193 40.6495 96.1844 40.3366 96.254 39.9194C96.3235 39.5022 96.3583 38.9721 96.3583 38.3289V27.4821C96.3583 27.0997 96.367 26.7346 96.3843 26.387C96.4017 26.0219 96.4191 25.7091 96.4365 25.4483C96.141 25.4657 95.8194 25.4831 95.4717 25.5005C95.1241 25.5179 94.8112 25.5352 94.5331 25.5526V24.1185C95.5587 24.1012 96.6016 24.0925 97.662 24.0925C98.7223 24.0751 99.8 24.0664 100.895 24.0664C102.529 24.0664 103.911 24.2663 105.041 24.6661C106.188 25.0485 107.066 25.6395 107.674 26.4391C108.3 27.2214 108.622 28.2122 108.639 29.4116C108.657 30.0895 108.535 30.7935 108.274 31.5236C108.013 32.2363 107.57 32.9055 106.944 33.5313C106.319 34.1397 105.467 34.6351 104.389 35.0175C103.329 35.3999 101.99 35.5911 100.374 35.5911C100.2 35.6085 99.9999 35.6172 99.774 35.6172C99.5654 35.6172 99.3481 35.6085 99.1221 35.5911V38.8765C99.1221 39.3458 99.1134 39.7717 99.096 40.1541C99.096 40.5191 99.0787 40.8146 99.0439 41.0406C99.2873 41.0232 99.548 41.0059 99.8261 40.9885C100.104 40.9711 100.374 40.9624 100.634 40.9624C100.913 40.945 101.165 40.9276 101.391 40.9102V42.3704H94.5331V41.2231ZM99.1221 34.2092C99.4176 34.244 99.6697 34.2701 99.8783 34.2874C100.104 34.2874 100.365 34.2874 100.66 34.2874C101.634 34.2874 102.494 34.1049 103.242 33.7399C103.989 33.3748 104.572 32.8447 104.989 32.1494C105.406 31.4541 105.615 30.6284 105.615 29.6723C105.615 28.838 105.484 28.1426 105.223 27.5864C104.98 27.0128 104.632 26.5695 104.18 26.2566C103.746 25.9263 103.242 25.6917 102.668 25.5526C102.095 25.4136 101.486 25.344 100.843 25.344C100.322 25.344 99.9391 25.4483 99.6957 25.6569C99.4524 25.8655 99.2959 26.1697 99.2264 26.5695C99.1569 26.9693 99.1221 27.4821 99.1221 28.1079V34.2092Z" fill="white"/>
<path d="M109.166 42.3704V41.1971C109.687 41.1971 110.087 41.058 110.365 40.7799C110.643 40.5018 110.878 40.128 111.069 39.6587C111.26 39.172 111.469 38.6331 111.695 38.0421L116.962 23.6231H118.005L123.715 38.2507C123.854 38.581 124.01 39.0329 124.184 39.6065C124.358 40.1628 124.436 40.6408 124.419 41.0406C124.714 41.0059 125.001 40.9885 125.279 40.9885C125.575 40.9711 125.853 40.9537 126.114 40.9363V42.3704H119.778V41.2231C120.386 41.2058 120.786 41.0754 120.977 40.832C121.186 40.5713 121.264 40.2584 121.212 39.8934C121.177 39.5283 121.09 39.1633 120.951 38.7982L120.169 36.6862L113.781 36.8427L113.024 39.1111C112.92 39.4588 112.807 39.7891 112.686 40.1019C112.564 40.4148 112.442 40.719 112.32 41.0145C112.633 40.9798 112.964 40.9624 113.311 40.9624C113.676 40.945 113.998 40.9276 114.276 40.9102V42.3704H109.166ZM114.25 35.4347H119.726L118.083 31.0282C117.874 30.4545 117.674 29.8896 117.483 29.3334C117.292 28.7597 117.118 28.2122 116.962 27.6907H116.936C116.797 28.1253 116.64 28.6033 116.466 29.1248C116.292 29.6462 116.093 30.2112 115.867 30.8196L114.25 35.4347Z" fill="white"/>
<path d="M127.304 42.3704V41.2231C127.878 41.1884 128.286 41.0667 128.529 40.8581C128.79 40.6495 128.955 40.3366 129.025 39.9194C129.094 39.5022 129.129 38.9721 129.129 38.3289V27.4821C129.129 27.0997 129.138 26.7346 129.155 26.387C129.173 26.0219 129.19 25.7091 129.207 25.4483C128.912 25.4657 128.59 25.4831 128.243 25.5005C127.895 25.5179 127.582 25.5352 127.304 25.5526V24.1185H133.718V25.2658C133.162 25.2832 132.753 25.4049 132.493 25.6308C132.232 25.8394 132.067 26.1523 131.997 26.5695C131.928 26.9693 131.893 27.4995 131.893 28.16V32.3319H133.822L136.665 27.7689C136.925 27.3691 137.221 26.9432 137.551 26.4913C137.881 26.0393 138.194 25.683 138.49 25.4222C138.229 25.4396 137.951 25.457 137.655 25.4744C137.377 25.4744 137.125 25.4831 136.899 25.5005V24.1185H142.766V25.2658C142.14 25.3006 141.558 25.4049 141.019 25.5787C140.497 25.7525 139.985 26.0567 139.481 26.4913C138.976 26.9259 138.446 27.5951 137.89 28.499L135.361 32.5405C135.813 32.8186 136.186 33.1315 136.482 33.4791C136.777 33.8268 137.064 34.1831 137.342 34.5482L140.185 38.3811C140.741 39.1285 141.219 39.7108 141.619 40.128C142.036 40.5452 142.427 40.832 142.792 40.9885C143.157 41.1449 143.522 41.2231 143.887 41.2231V42.3704H140.419C140.263 42.3704 140.037 42.24 139.741 41.9793C139.446 41.7185 139.124 41.3883 138.777 40.9885C138.446 40.5887 138.125 40.1889 137.812 39.7891L134.865 35.7215C134.57 35.3217 134.266 34.9306 133.953 34.5482C133.657 34.1658 133.362 33.8876 133.066 33.7138H131.893V38.8765C131.893 39.3458 131.884 39.7717 131.867 40.1541C131.867 40.5191 131.849 40.8146 131.815 41.0406C132.11 41.0059 132.432 40.9885 132.779 40.9885C133.145 40.9711 133.457 40.9537 133.718 40.9363V42.3704H127.304Z" fill="white"/>
<path d="M158.662 29.7505C158.645 28.7597 158.532 27.934 158.323 27.2735C158.115 26.613 157.767 26.1176 157.28 25.7873C156.811 25.457 156.159 25.3006 155.325 25.3179H153.447L153.421 38.8765C153.421 39.3458 153.413 39.7717 153.395 40.1541C153.395 40.5191 153.378 40.8146 153.343 41.0406C153.673 41.0059 154.03 40.9885 154.412 40.9885C154.812 40.9711 155.168 40.9537 155.481 40.9363V42.3704H148.858V41.2231C149.432 41.1884 149.841 41.0667 150.084 40.8581C150.327 40.6495 150.484 40.3366 150.553 39.9194C150.623 39.4849 150.658 38.9547 150.658 38.3289V25.344L148.467 25.3701C147.407 25.3701 146.633 25.7264 146.147 26.4391C145.66 27.1518 145.417 28.2556 145.417 29.7505H144.191L144.348 24.1185H159.731L159.888 29.7505H158.662Z" fill="white"/>
<path d="M168.22 25.2658C167.664 25.2832 167.256 25.4049 166.995 25.6308C166.734 25.8394 166.569 26.1523 166.5 26.5695C166.43 26.9693 166.395 27.4995 166.395 28.16V38.8765C166.395 39.3458 166.387 39.7717 166.369 40.1541C166.369 40.5191 166.352 40.8146 166.317 41.0406C166.613 41.0059 166.934 40.9885 167.282 40.9885C167.647 40.9711 167.96 40.9537 168.22 40.9363V42.3704H161.806V41.2231C162.38 41.1884 162.788 41.0667 163.032 40.8581C163.292 40.6495 163.458 40.3366 163.527 39.9194C163.597 39.5022 163.631 38.9721 163.631 38.3289V27.4821C163.631 27.0997 163.64 26.7346 163.657 26.387C163.675 26.0219 163.692 25.7091 163.71 25.4483C163.414 25.4657 163.093 25.4831 162.745 25.5005C162.397 25.5179 162.084 25.5352 161.806 25.5526V24.1185H168.22V25.2658ZM179.876 25.2658C179.319 25.2832 178.911 25.4049 178.65 25.6308C178.389 25.8394 178.224 26.1523 178.155 26.5695C178.103 26.9693 178.076 27.4995 178.076 28.16V38.8765C178.076 39.3458 178.068 39.7717 178.05 40.1541C178.033 40.5191 178.007 40.8146 177.972 41.0406C178.285 41.0059 178.615 40.9885 178.963 40.9885C179.311 40.9711 179.615 40.9537 179.876 40.9363V42.3704H173.487V41.2231C174.061 41.1884 174.47 41.0667 174.713 40.8581C174.974 40.6495 175.13 40.3366 175.182 39.9194C175.252 39.5022 175.287 38.9721 175.287 38.3289V27.4821C175.287 27.0997 175.295 26.7346 175.313 26.387C175.347 26.0219 175.373 25.7091 175.391 25.4483C175.078 25.4657 174.748 25.4831 174.4 25.5005C174.052 25.5179 173.748 25.5352 173.487 25.5526V24.1185H179.876V25.2658ZM176.408 25.2397L177.294 26.1262L165.013 41.2231L164.023 40.2584L176.408 25.2397Z" fill="white"/>
<path d="M182.66 42.3704V41.2231C183.234 41.1884 183.643 41.0667 183.886 40.8581C184.147 40.6495 184.312 40.3366 184.381 39.9194C184.451 39.5022 184.486 38.9721 184.486 38.3289V27.4821C184.486 27.0997 184.494 26.7346 184.512 26.387C184.529 26.0219 184.546 25.7091 184.564 25.4483C184.268 25.4657 183.947 25.4831 183.599 25.5005C183.251 25.5179 182.939 25.5352 182.66 25.5526V24.1185H189.075V25.2658C188.518 25.2832 188.11 25.4049 187.849 25.6308C187.588 25.8394 187.423 26.1523 187.354 26.5695C187.284 26.9693 187.249 27.4995 187.249 28.16V32.3319H189.179L192.021 27.7689C192.282 27.3691 192.577 26.9432 192.908 26.4913C193.238 26.0393 193.551 25.683 193.846 25.4222C193.585 25.4396 193.307 25.457 193.012 25.4744C192.734 25.4744 192.482 25.4831 192.256 25.5005V24.1185H198.122V25.2658C197.497 25.3006 196.914 25.4049 196.375 25.5787C195.854 25.7525 195.341 26.0567 194.837 26.4913C194.333 26.9259 193.803 27.5951 193.246 28.499L190.717 32.5405C191.169 32.8186 191.543 33.1315 191.838 33.4791C192.134 33.8268 192.421 34.1831 192.699 34.5482L195.541 38.3811C196.097 39.1285 196.575 39.7108 196.975 40.128C197.392 40.5452 197.783 40.832 198.148 40.9885C198.513 41.1449 198.878 41.2231 199.244 41.2231V42.3704H195.776C195.619 42.3704 195.393 42.24 195.098 41.9793C194.802 41.7185 194.481 41.3883 194.133 40.9885C193.803 40.5887 193.481 40.1889 193.168 39.7891L190.222 35.7215C189.926 35.3217 189.622 34.9306 189.309 34.5482C189.014 34.1658 188.718 33.8876 188.423 33.7138H187.249V38.8765C187.249 39.3458 187.241 39.7717 187.223 40.1541C187.223 40.5191 187.206 40.8146 187.171 41.0406C187.467 41.0059 187.788 40.9885 188.136 40.9885C188.501 40.9711 188.814 40.9537 189.075 40.9363V42.3704H182.66Z" fill="white"/>
<path d="M199.279 42.3704V41.1971C199.8 41.1971 200.2 41.058 200.478 40.7799C200.756 40.5018 200.991 40.128 201.182 39.6587C201.374 39.172 201.582 38.6331 201.808 38.0421L207.075 23.6231H208.118L213.828 38.2507C213.967 38.581 214.124 39.0329 214.298 39.6065C214.471 40.1628 214.55 40.6408 214.532 41.0406C214.828 41.0059 215.115 40.9885 215.393 40.9885C215.688 40.9711 215.966 40.9537 216.227 40.9363V42.3704H209.891V41.2231C210.499 41.2058 210.899 41.0754 211.091 40.832C211.299 40.5713 211.377 40.2584 211.325 39.8934C211.29 39.5283 211.203 39.1633 211.064 38.7982L210.282 36.6862L203.894 36.8427L203.138 39.1111C203.034 39.4588 202.921 39.7891 202.799 40.1019C202.677 40.4148 202.556 40.719 202.434 41.0145C202.747 40.9798 203.077 40.9624 203.425 40.9624C203.79 40.945 204.111 40.9276 204.389 40.9102V42.3704H199.279ZM204.363 35.4347H209.839L208.196 31.0282C207.988 30.4545 207.788 29.8896 207.597 29.3334C207.405 28.7597 207.232 28.2122 207.075 27.6907H207.049C206.91 28.1253 206.754 28.6033 206.58 29.1248C206.406 29.6462 206.206 30.2112 205.98 30.8196L204.363 35.4347Z" fill="white"/>
</svg>
