<svg width="18" height="18" viewBox="0 0 18 18" fill="none" xmlns="http://www.w3.org/2000/svg">
<path d="M17.2344 0.532924C17.4431 0.68471 17.5285 0.88709 17.4905 1.14007L15.0619 15.7115C15.0303 15.8949 14.9291 16.0372 14.7584 16.1384C14.6698 16.189 14.5718 16.2143 14.4643 16.2143C14.3947 16.2143 14.3188 16.1985 14.2366 16.1669L9.93917 14.4118L7.64342 17.2104C7.52958 17.3558 7.37463 17.4286 7.17857 17.4286C7.09635 17.4286 7.02679 17.4159 6.96987 17.3906C6.8497 17.3464 6.75167 17.2705 6.67578 17.1629C6.60621 17.0618 6.57143 16.9479 6.57143 16.8214V13.5106L14.7679 3.46429L4.62667 12.2394L0.879464 10.7026C0.645461 10.614 0.518973 10.4401 0.5 10.1808C0.487351 9.92783 0.588542 9.74126 0.803571 9.62109L16.5893 0.51395C16.6842 0.45703 16.7853 0.42857 16.8929 0.42857C17.0193 0.42857 17.1332 0.463355 17.2344 0.532924Z" fill="white"/>
</svg>
