<svg width="20" height="21" viewBox="0 0 20 21" fill="none" xmlns="http://www.w3.org/2000/svg">
<path d="M12.1145 12.4157C12.4482 11.9965 12.6707 11.7868 12.7819 11.7868C12.8932 11.7868 13.3082 11.9751 14.0269 12.3516C14.7542 12.7281 15.1393 12.9548 15.1821 13.0318C15.1992 13.0746 15.2077 13.1388 15.2077 13.2243C15.2077 13.5067 15.135 13.8318 14.9895 14.1998C14.8526 14.5335 14.5489 14.8158 14.0783 15.0469C13.6077 15.2693 13.1713 15.3806 12.7691 15.3806C12.2814 15.3806 11.4685 15.1153 10.3305 14.5848C9.49196 14.1998 8.76465 13.6949 8.14858 13.0703C7.53251 12.4457 6.89932 11.6542 6.24902 10.6959C5.63295 9.78032 5.32919 8.95033 5.33775 8.20591V8.10324C5.36342 7.32459 5.68001 6.64862 6.28753 6.07533C6.49289 5.88709 6.71536 5.79297 6.95494 5.79297C7.00628 5.79297 7.08329 5.80153 7.18597 5.81864C7.28864 5.82719 7.36993 5.83147 7.42983 5.83147C7.5924 5.83147 7.70364 5.86142 7.76353 5.92132C7.83199 5.97266 7.90044 6.08817 7.96889 6.26786C8.03734 6.43899 8.17853 6.81548 8.39244 7.39732C8.60635 7.97917 8.71331 8.30004 8.71331 8.35993C8.71331 8.53962 8.56357 8.78776 8.26409 9.10435C7.97317 9.41239 7.82771 9.60919 7.82771 9.69475C7.82771 9.75465 7.8491 9.81882 7.89188 9.88728C8.1828 10.5119 8.61919 11.098 9.20103 11.6456C9.6802 12.0991 10.3262 12.5312 11.1391 12.942C11.2418 13.0019 11.3359 13.0318 11.4215 13.0318C11.5498 13.0318 11.7808 12.8265 12.1145 12.4157ZM10.1765 18.5893C11.2632 18.5893 12.3028 18.3754 13.2953 17.9475C14.2965 17.5197 15.1564 16.9464 15.8751 16.2277C16.5939 15.5089 17.1672 14.6533 17.595 13.6607C18.0228 12.6596 18.2367 11.6157 18.2367 10.529C18.2367 9.44234 18.0228 8.40272 17.595 7.41016C17.1672 6.40904 16.5939 5.54911 15.8751 4.83036C15.1564 4.11161 14.2965 3.53832 13.2953 3.11049C12.3028 2.68266 11.2632 2.46875 10.1765 2.46875C9.0898 2.46875 8.0459 2.68266 7.04478 3.11049C6.05222 3.53832 5.19657 4.11161 4.47782 4.83036C3.75907 5.54911 3.18578 6.40904 2.75795 7.41016C2.33012 8.40272 2.11621 9.44234 2.11621 10.529C2.11621 12.266 2.6296 13.8404 3.65639 15.2522L2.64244 18.2427L5.74847 17.2545C7.1004 18.1443 8.5764 18.5893 10.1765 18.5893ZM6.41588 1.62165C7.61379 1.10826 8.86733 0.851561 10.1765 0.851561C11.4856 0.851561 12.7349 1.10826 13.9242 1.62165C15.1222 2.13504 16.1532 2.82385 17.0174 3.68806C17.8817 4.55227 18.5705 5.58333 19.0838 6.78125C19.5972 7.97061 19.8539 9.21987 19.8539 10.529C19.8539 11.8382 19.5972 13.0917 19.0838 14.2896C18.5705 15.479 17.8817 16.5058 17.0174 17.37C16.1532 18.2342 15.1222 18.923 13.9242 19.4364C12.7349 19.9498 11.4856 20.2065 10.1765 20.2065C8.50795 20.2065 6.94638 19.8043 5.49177 19L0.139648 20.7199L1.88518 15.5218C0.961077 13.9987 0.499023 12.3344 0.499023 10.529C0.499023 9.21987 0.75572 7.97061 1.26911 6.78125C1.78251 5.58333 2.47131 4.55227 3.33552 3.68806C4.19973 2.82385 5.22652 2.13504 6.41588 1.62165Z" fill="white"/>
</svg>
