<svg width="36" height="40" viewBox="0 0 36 40" fill="none" xmlns="http://www.w3.org/2000/svg">
<path d="M0.989722 0.989723L0 1.93985V19.0027V36.0655L0.989722 37.0156L1.93986 38.0053H12.0746C21.9718 38.0053 22.1698 38.0053 22.1698 38.7971C22.1698 40.1035 23.2387 40.1827 25.7328 39.0742L28.0685 38.0845L30.0875 39.0346C33.7297 40.6974 33.6505 40.7766 33.6505 34.6403C33.6505 29.8104 33.7297 29.1374 34.4819 28.1477C36.0655 26.0099 36.2634 22.6448 34.9966 20.1507C34.7194 19.5965 33.8485 18.5672 33.0963 17.8942L31.6711 16.6669V9.30339C31.6711 2.01903 31.6711 1.93985 30.6814 0.989723L29.7312 0H15.8356H1.93986L0.989722 0.989723ZM29.2166 2.45451C29.5333 2.77122 29.6917 4.90902 29.6917 9.38256V15.8356L18.1317 15.9147C6.84888 16.0335 6.53217 16.0731 6.53217 16.8253C6.53217 17.5775 6.84888 17.6171 14.6083 17.815C21.1405 17.9734 22.5657 18.0921 22.0906 18.488C21.7739 18.7651 21.18 19.7153 20.7842 20.5862L20.0716 22.1698L13.3019 22.249C6.84888 22.3677 6.53217 22.4073 6.53217 23.1595C6.53217 23.9117 6.84888 23.9513 13.1831 24.1492L19.8736 24.3472L20.3883 25.7328C20.6654 26.485 21.0217 27.4351 21.18 27.7914C21.4176 28.4248 20.9029 28.504 13.9749 28.5832C6.84888 28.7019 6.53217 28.7415 6.53217 29.4937C6.53217 30.2459 6.84888 30.2855 14.3708 30.4043L22.1698 30.4834V33.2547V36.0259H12.5497C5.58203 36.0259 2.81081 35.9071 2.45451 35.5508C1.7815 34.8778 1.7815 3.12752 2.45451 2.45451C3.12752 1.7815 28.5436 1.7815 29.2166 2.45451ZM30.3647 18.6068C34.8778 20.6258 34.7986 26.96 30.2459 28.9395C27.4351 30.2063 24.5451 29.2166 23.0011 26.5246C21.9322 24.6243 21.9322 22.724 23.0011 20.9821C24.0305 19.3194 24.743 18.7255 26.3266 18.2505C28.0685 17.6962 28.5436 17.7358 30.3647 18.6068ZM27.9102 31.4732C29.0186 31.4732 30.2855 31.3148 30.8001 31.1565C31.6711 30.8397 31.6711 30.8793 31.6711 34.0464C31.6711 36.501 31.5523 37.2531 31.196 37.0948C27.7914 35.8675 27.7518 35.8675 26.3266 36.5405C25.5348 36.8968 24.743 37.2136 24.5451 37.2136C24.3076 37.2136 24.1492 35.8279 24.1492 34.0069C24.1492 30.8793 24.1492 30.8397 25.0598 31.1565C25.5348 31.3148 26.8413 31.4732 27.9102 31.4732Z" fill="white"/>
</svg>
