<svg width="456" height="449" viewBox="0 0 456 449" fill="none" xmlns="http://www.w3.org/2000/svg">
<path d="M209.385 0.995178C204.017 1.17368 197.553 1.65817 192.223 2.25745C129.71 9.35919 79.8703 43.7204 50.0226 100.279C48.9388 102.332 48.7731 102.574 47.3833 104.104C22.3806 131.389 6.72358 166.375 1.95508 205.62C0.782078 215.272 0.361328 222.399 0.361328 232.841C0.361328 241.549 0.590828 246.241 1.38133 253.687C5.01508 287.959 17.8033 321.122 38.6623 350.46C55.3903 373.984 77.5371 395.047 102.221 410.92C119.714 422.179 135.856 429.956 156.957 437.275C175.024 443.548 193.371 447.092 214.676 448.444C248.897 450.598 282.901 444.733 313.986 431.295C323.472 427.202 333.557 421.924 342.24 416.53C368.046 400.478 390.256 379.122 407.29 353.966C420.41 334.586 430.164 313.485 436.45 290.854C437.164 288.265 437.342 287.832 438.553 285.307C448.039 265.66 453.713 245.043 455.269 224.681C458.813 177.965 440.198 128.304 403.389 86.2289C397.141 79.0889 388.918 70.8142 381.625 64.3372C347.072 33.6224 304.653 12.7889 260.257 4.74368C243.338 1.68369 226.266 0.421448 209.385 0.995178ZM224.876 6.33743C250.147 7.21719 274.448 11.9347 298.252 20.5919C313.348 26.0872 328.661 33.4822 342.686 42.0757C345.3 43.6694 345.542 43.8479 344.471 43.3762C324.989 34.7317 303.862 29.8102 280.147 28.3949C269.82 27.7829 254.035 27.9104 238.71 28.7137C190.298 31.2892 148.223 40.7752 112.995 57.0442C110.445 58.2299 104.567 61.1242 101.558 62.6924C99.8623 63.5849 99.9006 63.5339 102.706 61.3409C117.368 49.8787 134.16 40.6222 152.826 33.6862C174.016 25.8194 195.016 21.5609 218.565 20.3624C220.541 20.2604 220.363 20.2604 216.971 20.2987C200.167 20.5409 181.654 23.3077 164.632 28.1272C134.925 36.5422 109.858 50.1847 88.2981 69.6667C86.2836 71.4772 85.5186 72.0637 82.6881 73.9507C76.1856 78.2984 69.8106 83.0924 64.5066 87.6059C63.5248 88.4347 62.7216 89.0849 62.6961 89.0594C62.6323 88.9957 67.6941 81.4477 69.1221 79.4587C73.5081 73.4024 77.8558 68.0347 82.7008 62.6924C85.0213 60.1297 90.9628 54.1754 93.4873 51.8549C123.985 23.8814 162.337 8.54318 207.026 6.46494C212.636 6.20993 219.572 6.15894 224.876 6.33743ZM275.94 33.3802C316.396 35.0759 350.221 47.2649 376.792 69.6922C382.262 74.3204 388.433 80.4404 393.253 86.0249C404.409 98.9789 413.665 114.279 421.022 131.95C428.009 148.729 433.339 168.964 436.144 189.364C437.457 198.952 438.196 207.01 438.77 218.242C438.987 222.437 439.063 237.814 438.898 241.766C438.286 256.072 436.437 269.37 433.186 282.821C432.65 285.078 432.535 285.384 431.605 287.22C425.051 300.187 415.616 314.161 405.161 326.362C398.659 333.949 389.861 342.835 382.147 349.58C345.083 381.991 297.436 403.003 247.635 408.906C232.373 410.716 216.487 411.163 201.544 410.181C169.222 408.077 140.305 399.433 115.545 384.464C99.6583 374.851 85.7481 362.827 73.5718 348.203C47.8806 317.323 32.1598 275.63 29.0361 230.1C28.5133 222.322 28.3348 212.773 28.5771 205.429C28.7556 200.278 28.8321 199.283 29.4313 195.037C33.3073 167.497 41.6968 141.513 53.9113 119.137C60.4521 107.164 68.0383 96.1867 76.8613 85.8974C80.4058 81.7664 80.7246 81.4732 85.4548 78.3494C90.9628 74.7029 94.7751 72.3697 100.181 69.3607C118.796 58.9822 140.611 50.5799 164.25 44.6512C192.236 37.6387 223.091 33.8519 257.134 33.2399C263.509 33.1252 271.375 33.1889 275.94 33.3802ZM67.3243 92.1194C67.2351 92.2469 66.4318 93.2924 65.5521 94.4399C55.9641 106.973 47.5873 121.457 40.8298 137.216C40.0776 138.976 39.3891 140.633 39.2998 140.914C39.2106 141.194 39.1086 141.36 39.0831 141.283C39.0193 141.105 41.5948 133.276 42.8061 129.961C45.6238 122.222 48.4671 115.49 52.1008 108.019L53.5926 104.959L57.0606 101.516C58.9731 99.6164 61.4211 97.2577 62.5048 96.2759C64.6213 94.3507 67.3881 91.9027 67.4518 91.8899C67.4773 91.8899 67.4136 91.9919 67.3243 92.1194ZM421.328 119.2C431.541 135.597 438.987 152.044 443.921 169.18C449.786 189.491 451.622 209.458 449.455 229.271C448.6 237.087 446.841 246.292 444.801 253.624C444.189 255.778 442.544 261.21 442.506 261.172C442.48 261.146 442.544 260.445 442.646 259.603C443.194 255.268 443.679 249.595 444.01 243.742C444.227 240.045 444.214 224.656 444.01 219.9C443.806 215.335 443.526 210.529 443.284 207.341C440.734 174.229 433.262 144.611 421.162 119.583C420.538 118.308 420.053 117.262 420.079 117.262C420.091 117.262 420.652 118.142 421.328 119.2ZM40.4346 121.113C36.5841 130.79 33.2436 141.156 30.6936 151.305C26.2821 168.913 23.8086 186.814 23.2348 205.429C23.1583 207.813 23.0181 210.822 22.9161 212.122C21.8068 226.364 21.8068 241.702 22.9161 254.835C25.9123 289.987 36.5841 323.583 53.9623 352.5C58.8711 360.66 63.5758 367.43 69.5301 374.876C73.7376 380.142 76.6573 383.47 81.9486 389.029C84.6771 391.897 84.5878 391.834 79.6536 387.613C60.8601 371.497 44.7441 352.296 32.7081 331.705C17.5356 305.758 8.61058 278.053 6.16258 249.225C5.63983 243.105 5.57608 241.333 5.58883 232.586C5.58883 223.687 5.69083 221.009 6.29008 214.035C9.00583 182.071 18.6066 153.37 34.8118 128.737C37.0941 125.257 40.4856 120.45 40.6513 120.45C40.6768 120.45 40.5748 120.756 40.4346 121.113ZM32.0961 279.187C40.0903 307.39 53.4141 332.827 71.0346 353.52C77.9196 361.616 85.9903 369.47 94.0611 375.947C122.328 398.655 156.982 411.889 196.954 415.23C209.461 416.275 224.761 416.301 237.499 415.294C266.084 413.037 293.395 406.305 319.545 395.085C353.179 380.652 383.167 359.232 406.525 332.967C411.6 327.255 416.56 321.046 420.946 314.913C421.762 313.765 422.437 312.86 422.437 312.898C422.437 313.051 420.334 317.82 419.084 320.51C403.363 354.285 379.215 383.278 348.679 405.017C320.335 425.213 285.553 438.69 252.289 442.375C239.743 443.777 226.699 444.058 214.039 443.216C193.18 441.826 171.887 437.287 152.01 429.994C145.852 427.725 143.174 426.565 137.22 423.568C121.805 415.816 108.163 406.471 95.0811 394.715C92.5948 392.471 84.4858 384.375 82.1143 381.761C71.1493 369.661 61.8546 356.58 53.8986 342.045C52.3176 339.151 48.6966 331.921 47.3451 328.976C40.3326 313.638 35.0413 297.369 31.6498 280.641C30.9996 277.466 29.9796 271.882 30.0051 271.614C30.0051 271.537 30.2983 272.557 30.6426 273.896C30.9996 275.222 31.6498 277.606 32.0961 279.187ZM424.592 310.068C422.947 314.25 420.882 319.044 418.969 323.111C417.592 326.031 415.693 329.805 415.616 329.805C415.578 329.805 415.82 329.269 416.139 328.619C417.898 325.138 420.525 319.133 422.501 314.122C423.19 312.376 423.967 310.642 424.248 310.195C424.528 309.762 424.783 309.405 424.809 309.405C424.834 309.405 424.732 309.711 424.592 310.068Z" fill="white"/>
</svg>
