<svg width="56" height="56" viewBox="0 0 56 56" fill="none" xmlns="http://www.w3.org/2000/svg">
<circle cx="28" cy="28" r="28" fill="#F5F5F5"/>
<path d="M21.068 13.3432C20.8641 13.5462 20.7184 13.8361 20.7184 14.039C20.7184 14.2419 20.165 14.4739 19.4951 14.5898C16.7864 15.0247 14.8641 16.3582 13.6408 18.6484C13.0291 19.779 13 20.1269 13 28.7949C13 38.7675 13.0291 38.9414 15.0388 40.9707C17.0777 43 17.165 43 28 43C38.835 43 38.9223 43 40.9612 40.9707C42.9709 38.9414 43 38.7675 43 28.7949C43 20.1269 42.9709 19.779 42.3592 18.6484C41.1359 16.3582 39.2136 15.0247 36.534 14.5898C35.8058 14.4739 35.2816 14.2419 35.2816 14.01C35.2816 12.9084 33.4466 12.7924 33.0971 13.8941C32.9223 14.4159 32.6019 14.4449 28.0291 14.4449H23.1359L22.8155 13.7201C22.466 12.9374 21.6505 12.7634 21.068 13.3432ZM20.6602 18.0686C20.7767 19.4021 21.1553 19.953 21.9126 19.953C22.6117 19.953 23.0485 19.1122 23.0485 17.8077V16.7641H28H32.9515V17.8947C32.9515 18.5614 33.1553 19.2282 33.4175 19.4891C34.3786 20.4458 35.2816 19.808 35.2816 18.1846C35.2816 17.5758 35.3981 16.996 35.5728 16.909C36.0097 16.6481 38.0194 17.2859 38.9223 17.9816C39.7961 18.6484 40.7864 20.5907 40.8155 21.6054V22.2722H28H15.1845V21.6054C15.2136 20.7357 16.1456 18.7644 16.8738 18.1266C17.5728 17.4888 19.4951 16.7641 20.1359 16.851C20.4272 16.88 20.6019 17.3149 20.6602 18.0686ZM40.8155 30.6793C40.8155 37.318 40.699 38.0137 39.1845 39.4342C38.7184 39.8691 37.9612 40.3619 37.5243 40.5069C37 40.7098 33.4175 40.8258 27.9709 40.8258C18.4757 40.8258 18.068 40.7678 16.5825 39.2023C15.301 37.8398 15.1845 37.115 15.1845 30.6503V24.5914H28H40.8155V30.6793Z" fill="#373737"/>
<path d="M20.5437 28.7949C19.5825 30.2444 21.1262 31.8099 22.6116 30.8532C23.4854 30.2734 23.5728 29.2298 22.8155 28.563C22.0291 27.8672 21.0971 27.9542 20.5437 28.7949Z" fill="#639E2D"/>
<path d="M27.0097 28.534C26.3107 29.2297 26.4272 30.3024 27.2718 30.8532C27.9417 31.288 28.0582 31.288 28.7281 30.8532C29.9514 30.0415 29.4272 28.0701 28 28.0701C27.7087 28.0701 27.2427 28.2731 27.0097 28.534Z" fill="#373737"/>
<path d="M33.1553 28.592C32.4563 29.3747 32.5437 30.3024 33.3883 30.8532C34.8738 31.8099 36.4175 30.2444 35.4563 28.7949C34.8738 27.9252 33.8252 27.8382 33.1553 28.592Z" fill="#639E2D"/>
<path d="M20.7185 34.7379C20.0194 35.4336 19.9903 35.8395 20.6019 36.7092C21.1262 37.4919 22.2039 37.5499 22.8447 36.8251C23.5146 36.0714 23.4563 35.1437 22.699 34.6219C21.8252 34.0131 21.4175 34.0421 20.7185 34.7379Z" fill="#639E2D"/>
<path d="M27.1845 34.6219C26.0486 35.4046 26.6311 37.3469 28 37.3469C29.3689 37.3469 29.9515 35.4046 28.8155 34.6219C28.466 34.361 28.0874 34.158 28 34.158C27.9126 34.158 27.534 34.361 27.1845 34.6219Z" fill="#373737"/>
<path d="M33.3009 34.6219C32.1068 35.4336 32.8349 37.3469 34.3495 37.3469C34.9611 37.3469 35.8641 36.3613 35.8641 35.6945C35.8641 35.2017 34.8155 34.158 34.3204 34.158C34.1165 34.158 33.6505 34.361 33.3009 34.6219Z" fill="#373737"/>
</svg>
