<svg width="10" height="6" viewBox="0 0 10 6" fill="none" xmlns="http://www.w3.org/2000/svg">
<path fill-rule="evenodd" clip-rule="evenodd" d="M6.48547 4.72794C6.48547 4.72793 6.48547 4.72793 6.48547 4.72792L9.43523 1.77816C9.82576 1.38763 9.82576 0.75447 9.43523 0.363946C9.04471 -0.0265786 8.41154 -0.026578 8.02102 0.363946L5.77836 2.60661C5.38783 2.99713 4.75467 2.99713 4.36414 2.60661L2.12152 0.363984C1.73099 -0.0265402 1.09783 -0.0265402 0.707305 0.363984C0.316781 0.754508 0.316781 1.38767 0.707305 1.7782L4.36416 5.43505C4.75468 5.82558 5.38785 5.82558 5.77837 5.43505L6.48547 4.72795C6.48548 4.72795 6.48548 4.72794 6.48547 4.72794Z" fill="url(#paint0_linear_19_210)"/>
<defs>
<linearGradient id="paint0_linear_19_210" x1="0.000187824" y1="1.0711" x2="5.13316" y2="6.14179" gradientUnits="userSpaceOnUse">
<stop stop-color="#52892B"/>
<stop offset="1" stop-color="#60A32F"/>
</linearGradient>
</defs>
</svg>
