<svg width="56" height="56" viewBox="0 0 56 56" fill="none" xmlns="http://www.w3.org/2000/svg">
<circle cx="28" cy="28" r="28" fill="#F5F5F5"/>
<path d="M26.4265 13.2495C25.2699 13.5929 16.5014 18.6113 15.5062 19.5093C14.1076 20.8035 14 21.3846 14 28.0142C14 34.9607 14.0807 35.3304 15.9097 36.7831C17.6849 38.2094 25.9962 42.7524 27.1527 42.9373C28.7666 43.2014 30.0845 42.6996 34.6571 40.1111C39.5255 37.3378 41.0855 36.2021 41.5965 34.9871C42.1345 33.7193 42.1345 22.309 41.5965 21.0412C41.0855 19.8262 39.4986 18.6377 34.6033 15.8908C29.3583 12.9325 28.4976 12.6684 26.4265 13.2495ZM33.6888 17.8189C36.0557 19.1659 38.4227 20.645 38.9068 21.0676L39.8213 21.86V28.0142V34.1419L39.0144 34.8814C38.5572 35.304 36.1633 36.7831 33.6888 38.2094C27.8252 41.5638 28.1479 41.5374 22.7954 38.4736C18.0077 35.7531 16.5283 34.7758 16.3132 34.2211C16.2325 33.9834 16.1518 31.1044 16.1518 27.8293V21.8864L16.9587 21.1469C17.7925 20.3809 25.9693 15.6266 27.0183 15.2833C28.1479 14.9135 29.439 15.4153 33.6888 17.8189Z" fill="#373737"/>
<path d="M26.1575 23.0221C24.8665 23.3919 23.2257 25.1352 22.8492 26.4822C22.2306 28.8329 23.172 31.2893 25.2161 32.5307C26.7493 33.4815 29.3583 33.4287 30.8646 32.4515C32.5322 31.3685 33.2315 30.0743 33.2315 28.0141C33.2315 25.9804 32.5322 24.6597 30.9452 23.6296C29.7887 22.8637 27.5831 22.5995 26.1575 23.0221ZM30.2459 25.8747C30.9452 26.5879 31.0797 26.9048 31.0797 28.0141C31.0797 29.1499 30.9452 29.4404 30.1921 30.18C29.439 30.9195 29.1431 31.0516 27.9866 31.0516C26.83 31.0516 26.5341 30.9195 25.781 30.18C25.0279 29.4404 24.8934 29.1499 24.8934 28.0405C24.8934 26.6671 25.5658 25.6106 26.7762 25.0823C27.7714 24.6597 29.3583 25.0031 30.2459 25.8747Z" fill="#639E2D"/>
</svg>
