<svg width="56" height="56" viewBox="0 0 56 56" fill="none" xmlns="http://www.w3.org/2000/svg">
<circle cx="28" cy="28" r="28" fill="#F5F5F5"/>
<path d="M24.394 15.8289C18.0828 17.9288 14.3077 19.3847 13.6737 19.9727C12.7803 20.7847 12.7803 22.4366 13.6448 23.3606C14.1059 23.8646 16.1808 24.7046 20.5035 26.2165C26.1807 28.2044 26.8435 28.3724 28.4285 28.2604C30.7916 28.0924 41.4254 24.3686 42.3476 23.3886C43.241 22.4086 43.2121 20.7847 42.29 19.9447C41.5119 19.2447 30.5034 15.2969 28.5726 15.0449C27.5351 14.9049 26.6994 15.0729 24.394 15.8289ZM34.999 19.3847C38.1114 20.5047 40.6762 21.5407 40.6762 21.7087C40.6762 22.1286 29.2354 26.1045 27.9962 26.0765C26.7282 26.0765 15.3163 22.1286 15.3163 21.7087C15.3163 21.4287 17.6217 20.5327 24.8262 18.0408C26.613 17.4248 27.8521 17.1448 28.4285 17.2568C28.9184 17.3408 31.8578 18.2928 34.999 19.3847Z" fill="#373737"/>
<path d="M13.3567 28.3724C12.8956 28.8204 12.9244 29.5764 13.3855 29.9124C13.5584 30.0804 16.5843 31.1723 20.0713 32.4043C25.028 34.1122 26.757 34.5882 27.9962 34.5882C29.2642 34.6162 30.878 34.1682 35.9212 32.4043C39.4082 31.2003 42.4341 30.0804 42.6358 29.9124C42.8375 29.7444 42.9816 29.3804 42.924 29.0724C42.7222 27.7564 42.1459 27.8404 35.2295 30.2203C31.5408 31.4803 28.3132 32.5163 27.9962 32.5163C27.708 32.5163 24.5381 31.5083 20.9358 30.2763C17.3335 29.0444 14.25 28.0364 14.0483 28.0364C13.8466 28.0364 13.5584 28.1764 13.3567 28.3724Z" fill="#639E2D"/>
<path d="M13.299 34.8962C12.4345 35.9042 13.1261 36.2962 20.0137 38.6761C24.5669 40.272 27.1029 41 27.9962 41C28.8896 41 31.1662 40.356 35.2008 38.9561C38.4572 37.8361 41.4543 36.8001 41.8865 36.6601C43.2122 36.2122 43.1834 34.4762 41.8577 34.4762C41.5984 34.4762 38.3996 35.4842 34.7108 36.7441L28.0251 39.0401L21.3105 36.7441C17.6218 35.4842 14.3941 34.4762 14.1348 34.4762C13.8754 34.4762 13.5008 34.6722 13.299 34.8962Z" fill="#373737"/>
</svg>
