<svg width="26" height="32" viewBox="0 0 26 32" fill="none" xmlns="http://www.w3.org/2000/svg">
<path d="M13.0378 1C19.6668 1 25.063 6.39623 25.063 13.0252C25.063 13.7799 24.9938 14.5409 24.8492 15.283C24.8429 15.327 24.8177 15.4591 24.7674 15.6855C24.585 16.4969 24.3146 17.2956 23.9624 18.0566C22.6668 21.1069 19.8177 25.7925 13.5661 30.8113C13.4089 30.9371 13.2202 31 13.0315 31C12.8429 31 12.6542 30.9371 12.4969 30.8113C6.25166 25.7925 3.39632 21.1069 2.10072 18.0566C1.74852 17.2956 1.47808 16.5031 1.29569 15.6855C1.24537 15.4591 1.22022 15.327 1.21393 15.283C1.07556 14.5409 1.00009 13.7799 1.00009 13.0252C1.01267 6.39623 6.4089 1 13.0378 1ZM2.89946 14.9874C2.89946 15 2.90575 15.0126 2.90575 15.0252C2.91204 15.0566 2.93091 15.1509 2.96236 15.2956C2.96236 15.3019 2.96236 15.3019 2.96236 15.3082C3.11959 16.0126 3.35229 16.6981 3.66047 17.3585C3.66676 17.3648 3.66676 17.3774 3.67305 17.3836C4.84915 20.1698 7.42776 24.4214 13.0378 29.0566C18.6479 24.4214 21.2265 20.1698 22.4026 17.3836C22.4089 17.3774 22.4089 17.3648 22.4152 17.3585C22.7171 16.7044 22.9498 16.0126 23.1133 15.3082C23.1133 15.3019 23.1133 15.3019 23.1133 15.2956C23.151 15.1509 23.1636 15.0566 23.1699 15.0252C23.1699 15.0126 23.1762 15 23.1762 14.9811C23.302 14.3333 23.3649 13.6792 23.3649 13.0189C23.3649 7.32704 18.7297 2.69182 13.0378 2.69182C7.346 2.69182 2.71078 7.32704 2.71078 13.0189C2.71078 13.6855 2.77368 14.3459 2.89946 14.9874Z" fill="#639E2D" stroke="#639E2D" stroke-width="0.5"/>
<path d="M13.0313 7C16.6684 7 19.6313 9.96293 19.6313 13.6C19.6313 17.2371 16.6684 20.2 13.0313 20.2C9.39428 20.2 6.43135 17.2371 6.43135 13.6C6.43135 9.96293 9.39428 7 13.0313 7ZM13.0313 18.7321C15.8638 18.7321 18.1635 16.427 18.1635 13.6C18.1635 10.773 15.8584 8.46787 13.0313 8.46787C10.2043 8.46787 7.89922 10.773 7.89922 13.6C7.89922 16.427 10.1989 18.7321 13.0313 18.7321Z" fill="#639E2D" stroke="#639E2D" stroke-width="0.5"/>
</svg>
