<svg width="28" height="28" viewBox="0 0 28 28" fill="none" xmlns="http://www.w3.org/2000/svg">
<path d="M11.682 2.50278L9.67148 4.02588H7.09237C5.3662 4.02588 4.45234 4.10711 4.28988 4.26957C4.12742 4.43204 4.04619 5.20374 4.04619 6.3816V8.24992L2.52309 9.38717L1 10.5244V18.5054C1 24.4353 1.06092 26.5473 1.24369 26.7301C1.62955 27.116 26.4458 27.0754 26.7707 26.6895C26.9332 26.5067 26.9738 24.151 26.9535 18.4242L26.8926 10.4229L25.4304 9.32624L23.9479 8.24992V6.3816C23.9479 5.20374 23.8667 4.43204 23.7042 4.26957C23.5418 4.10711 22.6279 4.02588 20.9017 4.02588H18.3226L16.3122 2.50278C15.2155 1.67016 14.1595 1 13.9971 1C13.8346 1 12.7786 1.67016 11.682 2.50278ZM14.8906 3.35572L15.7029 3.92434L14.85 3.98526C14.3829 4.02588 13.6112 4.02588 13.1644 3.98526L12.3115 3.92434L13.1035 3.35572C13.53 3.0511 13.9361 2.8074 13.9768 2.8074C14.0377 2.8074 14.4438 3.0511 14.8906 3.35572ZM22.3233 10.3213V14.9921L18.1602 17.0636L13.9971 19.1553L9.83394 17.0636L5.67082 14.9921V10.3213V5.65051H13.9971H22.3233V10.3213ZM4.04619 12.149V14.1798L3.33541 13.8346C2.64494 13.5097 2.62463 13.4487 2.62463 12.3724C2.62463 11.3367 2.68556 11.1946 3.27449 10.6869C3.64003 10.3823 3.96495 10.1183 4.00557 10.1183C4.02588 10.1183 4.04619 11.0321 4.04619 12.149ZM25.3695 12.3318C25.3695 13.4691 25.3492 13.5097 24.6587 13.8346L23.9479 14.1798V12.1287V10.0979L24.6587 10.6463C25.3289 11.154 25.3695 11.2555 25.3695 12.3318ZM13.9971 20.6784C14.2204 20.6784 16.8808 19.4396 19.8864 17.9368L25.3695 15.1952V20.3737V25.5523H13.9971H2.62463V20.3737V15.1952L8.10777 17.9368C11.1133 19.4396 13.7737 20.6784 13.9971 20.6784Z" fill="#639E2D" stroke="#639E2D" stroke-width="0.5"/>
<path d="M8.7779 9.02188C8.71697 9.20465 8.73728 9.50927 8.85913 9.69204C9.0419 9.97635 9.67144 10.017 13.997 10.017C18.3226 10.017 18.9522 9.97635 19.1349 9.69204C19.2568 9.50927 19.2771 9.20465 19.2162 9.02188C19.0943 8.73757 18.5257 8.69695 13.997 8.69695C9.46837 8.69695 8.89974 8.73757 8.7779 9.02188Z" fill="#639E2D" stroke="#639E2D" stroke-width="0.5"/>
<path d="M8.7779 12.068C8.71697 12.2508 8.73728 12.5554 8.85913 12.7382C9.16375 13.2256 14.3626 13.2256 14.6672 12.7179C14.8297 12.4742 14.8093 12.2914 14.6266 12.068C14.2204 11.5806 8.96067 11.5806 8.7779 12.068Z" fill="#639E2D" stroke="#639E2D" stroke-width="0.5"/>
</svg>
