<svg width="56" height="56" viewBox="0 0 56 56" fill="none" xmlns="http://www.w3.org/2000/svg">
<circle cx="28" cy="28" r="28" fill="#639E2D"/>
<path d="M17.7059 18.6823C14.4118 20.5412 13 21.4588 13 21.7412C13 22.0235 13.4235 22.3294 14.2706 22.7059L15.5412 23.2235L14.2706 23.9059C13.5647 24.2823 13 24.7529 13 24.9412C13 25.1294 13.5412 25.5529 14.2235 25.8588L15.4471 26.4471L14.2235 27.1765C13.5412 27.5765 13 28.0706 13 28.2588C13 28.4471 13.5647 28.8706 14.2706 29.2L15.5412 29.7882L14.8588 30.0706C14.4824 30.2353 13.8706 30.5882 13.5176 30.8941C12.9529 31.3412 12.9059 31.4588 13.1647 31.7882C13.3294 32 17.8941 34.0471 23.3294 36.3294C31.5176 39.8118 33.2588 40.4706 33.6824 40.2823C35.6824 39.2941 42.9059 34.8 42.9529 34.4941C43 34.2353 42.6471 33.9529 41.7765 33.5765L40.5294 33.0353L41.1882 32.6353C41.5412 32.4235 42.0824 32.0706 42.4118 31.8823C43.3059 31.3412 43.1176 30.8706 41.7765 30.2823L40.5529 29.7412L41.7765 28.9882C42.4588 28.5882 43 28.0941 43 27.9059C43 27.7412 42.4824 27.3647 41.8235 27.0823C41.1882 26.8 40.6471 26.5412 40.6471 26.4941C40.6471 26.4471 41.1882 26.0941 41.8235 25.6941C43.0471 24.9412 43.1882 24.6823 42.7176 24.2823C42.2706 23.9294 22.9765 16 22.6 16C22.4824 16 20.2941 17.2235 17.7059 18.6823ZM25.7059 18.4706C26.8824 18.9412 27.8941 19.4118 28.0118 19.5059C28.2 19.6941 21.6353 24.2353 21.1882 24.2353C20.8824 24.2353 15.4235 21.9294 15.1882 21.6941C15.0941 21.6 16.7412 20.5647 18.8353 19.3882C21.6588 17.8118 22.7647 17.2941 23.1176 17.4353C23.3765 17.5294 24.5529 17.9765 25.7059 18.4706ZM31.6588 20.8706L32.6941 21.2941L28.8353 23.8823L25 26.4706L24.8824 31.0823L24.7647 35.6941L23.3059 35.0353L21.8235 34.3765V29.9059V25.4118L25.6588 22.8235C29.7765 20.0471 29.7294 20.0471 31.6588 20.8706ZM37.3059 23.2C39.0706 23.9294 40.6235 24.5882 40.7176 24.7059C40.8118 24.8 39.1647 25.8823 37.0471 27.1294L33.1647 29.4118L30.0353 28.0941C28.2941 27.3647 26.8588 26.7529 26.8118 26.7294C26.7647 26.6588 33.8706 21.8823 34.0118 21.8823C34.0353 21.8823 35.5176 22.4706 37.3059 23.2ZM18.6941 24.5412L20.5294 25.3412L20.6 26.3059C20.6471 26.8471 20.6235 27.2941 20.5529 27.2941C20.5059 27.2941 19.5647 26.9176 18.4824 26.4471C17.4235 26 16.1529 25.4588 15.7059 25.2706L14.9059 24.9176L15.8235 24.3529C16.3412 24.0471 16.7882 23.7647 16.8118 23.7647C16.8118 23.7647 17.6588 24.1176 18.6941 24.5412ZM19.1647 28.0235C20.6235 28.6823 20.6471 28.7059 20.6471 29.6471C20.6471 30.1647 20.6235 30.5882 20.5765 30.5882C20.5294 30.5882 19.4941 30.1647 18.2706 29.6235C17.0471 29.0823 15.8 28.5647 15.4706 28.4235L14.8824 28.2118L15.8235 27.6235C16.8588 27.0118 16.9294 27.0118 19.1647 28.0235ZM40.1059 27.6471C41.1412 28.0941 41.4471 27.8118 36.6235 30.6588L33.1647 32.6823L29.6824 31.2L26.1765 29.7176L26.1059 28.7529C26.0588 28.2118 26.0824 27.7647 26.1294 27.7647C26.2 27.7647 27.7294 28.4 29.5412 29.1765C31.3765 29.9529 33 30.5882 33.1882 30.5882C33.3765 30.5882 34.7882 29.8588 36.3176 28.9412C37.8706 28.0471 39.1412 27.2941 39.1882 27.2941C39.2118 27.2941 39.6353 27.4588 40.1059 27.6471ZM19.0471 31.2471L20.6471 31.8823V32.8941V33.8823L19.8941 33.5529C19.4706 33.3882 18.2706 32.8941 17.2353 32.4706C16.2 32.0235 15.2588 31.6 15.1412 31.5059C14.8824 31.2706 16.6706 30.3529 17.1176 30.4941C17.3059 30.5412 18.1765 30.8941 19.0471 31.2471ZM40.1059 30.8706C40.5294 31.0353 40.8824 31.2 40.8824 31.2941C40.8824 31.3647 39.1412 32.4235 37.0235 33.6706L33.1647 35.9294L29.6824 34.4706L26.1765 32.9882L26.1059 32.0235C26.0588 31.4823 26.1059 31.0588 26.1765 31.0588C26.2706 31.0588 27.8 31.6941 29.6353 32.4706C31.4471 33.2471 33.0471 33.8823 33.1882 33.8823C33.3529 33.8823 34.6941 33.1529 36.1765 32.2588C37.6588 31.3647 38.9765 30.6353 39.0941 30.6118C39.2118 30.5882 39.6824 30.7059 40.1059 30.8706ZM40.1529 34.1412C40.5529 34.2823 40.8824 34.4706 40.8824 34.5412C40.8588 34.7529 33.4471 39.0588 33.0941 39.0588C32.9529 39.0588 31.3059 38.4235 29.4471 37.6235L26.0588 36.1882V35.2706C26.0588 34.7765 26.1294 34.3529 26.2235 34.3529C26.3176 34.3529 27.9176 34.9882 29.7765 35.7882C31.6353 36.5647 33.2824 37.1529 33.4471 37.1059C33.5882 37.0353 34.8824 36.3059 36.2941 35.4353C37.7294 34.5882 39 33.8823 39.1412 33.8823C39.2824 33.8823 39.7294 34 40.1529 34.1412Z" fill="white"/>
</svg>
