<svg width="56" height="56" viewBox="0 0 56 56" fill="none" xmlns="http://www.w3.org/2000/svg">
<circle cx="28" cy="28" r="28" fill="#639E2D"/>
<path d="M28.8966 13.1584C28.7084 13.229 24.8723 16.9475 20.3772 21.419C14.729 27.0437 12.1637 29.7737 12.0696 30.2208C11.7636 31.5623 12.3049 32.2919 17.0118 36.9987C19.53 39.5169 21.601 41.6585 21.601 41.7527C21.601 41.8468 21.3186 41.941 20.9656 41.988C20.4949 42.0351 20.3066 42.1998 20.3066 42.5293C20.3066 43 20.4713 43 27.0139 43C33.5564 43 33.7212 43 33.7212 42.5293C33.7212 42.0822 33.5329 42.0586 30.2616 41.988C28.3318 41.9645 26.7786 41.8468 26.7786 41.7527C26.7786 41.6585 30.1675 38.199 34.3095 34.0569C39.4636 28.9029 41.8641 26.3377 41.9582 25.8905C42.2642 24.5255 41.7229 23.8195 36.4982 18.5949C31.0147 13.1349 30.3322 12.6407 28.8966 13.1584ZM30.3793 14.4293C31.0383 14.7588 34.0742 17.7241 34.0742 18.0536C34.0742 18.1713 30.7794 21.5837 26.7315 25.6316C19.7653 32.6214 19.4123 33.0214 19.7888 33.398C20.1654 33.7981 20.589 33.4215 27.5552 26.4554C31.6031 22.431 35.0156 19.1126 35.1332 19.1126C35.4627 19.1126 40.3108 24.0313 40.6403 24.6903C40.7815 24.9727 40.8286 25.3963 40.758 25.6316C40.5461 26.2435 25.3665 41.4703 24.7075 41.7291C24.3545 41.8704 23.978 41.8468 23.6485 41.6821C23.3661 41.5409 21.3657 39.6581 19.177 37.5165L15.2467 33.5863L22.5659 26.2671C29.7439 19.0656 30.3793 18.3125 29.4144 17.983C29.2261 17.9359 26.0019 20.9718 21.7187 25.2316C17.3883 29.5619 14.2583 32.5272 14.0935 32.4331C13.5522 32.0801 13.1286 30.9269 13.3404 30.3621C13.5758 29.7502 28.8025 14.5234 29.3673 14.3352C29.5556 14.2646 29.7439 14.194 29.7909 14.194C29.838 14.1704 30.0969 14.2881 30.3793 14.4293Z" fill="white"/>
<path d="M30.4027 16.618C30.2379 17.0651 30.4497 17.7006 30.7557 17.7006C31.1087 17.7006 31.7441 16.971 31.65 16.6651C31.5088 16.2414 30.5674 16.2179 30.4027 16.618Z" fill="white"/>
<path d="M33.8387 23.7254C31.9559 25.514 31.9089 25.7493 33.1562 27.0202C33.721 27.585 34.3329 28.0557 34.5447 28.0557C34.9448 28.0557 37.8395 25.2551 37.8395 24.855C37.8395 24.5961 35.6744 22.4075 35.392 22.4075C35.2978 22.4075 34.5918 22.9958 33.8387 23.7254ZM36.0509 24.5961C36.2392 24.9021 36.1215 25.161 35.4861 25.8199L34.6859 26.6436L34.2152 26.1729L33.7446 25.7023L34.5447 24.8786C35.392 24.0078 35.6508 23.9607 36.0509 24.5961Z" fill="white"/>
<path d="M24.0013 33.5627C22.4951 35.0689 21.3655 36.3868 21.4126 36.5751C21.695 37.4224 22.4481 36.9752 24.9192 34.5041C27.4373 31.9859 27.861 31.3034 27.0843 31.021C26.8019 30.9033 25.9782 31.5858 24.0013 33.5627Z" fill="white"/>
<path d="M27.1314 34.1746C26.8019 34.5512 26.7784 34.6924 27.0137 34.9983C27.4138 35.4925 28.2375 35.0218 28.1434 34.3629C28.0492 33.6804 27.6491 33.6098 27.1314 34.1746Z" fill="white"/>
<path d="M18.0708 34.2923C17.7178 34.7159 17.9296 35.3513 18.3767 35.3513C18.8474 35.3513 19.3181 34.7159 19.1534 34.2923C18.9886 33.8451 18.4473 33.8451 18.0708 34.2923Z" fill="white"/>
<path d="M24.4485 36.8575C23.6012 37.7048 23.2247 38.2696 23.3188 38.5049C23.5777 39.1639 24.0954 38.9286 25.3428 37.5871C26.3783 36.5045 26.543 36.2221 26.3077 35.9397C26.1429 35.7514 25.9547 35.5867 25.8605 35.5867C25.7664 35.5867 25.131 36.1515 24.4485 36.8575Z" fill="white"/>
</svg>
