<svg width="11" height="11" viewBox="0 0 11 11" fill="none" xmlns="http://www.w3.org/2000/svg">
<path d="M10.8288 0.0675229C10.9639 0.165737 11.0191 0.29669 10.9945 0.46038L9.42311 9.88895C9.40265 10.0076 9.33718 10.0997 9.22669 10.1652C9.16939 10.1979 9.10596 10.2143 9.0364 10.2143C8.99138 10.2143 8.94228 10.2041 8.88908 10.1836L6.10838 9.04799L4.62289 10.8588C4.54923 10.9529 4.44897 11 4.32211 11C4.26891 11 4.2239 10.9918 4.18707 10.9754C4.10931 10.9468 4.04588 10.8977 3.99678 10.8281C3.95176 10.7626 3.92925 10.689 3.92925 10.6071V8.46484L9.23283 1.96429L2.67088 7.6423L0.246218 6.64788C0.0948041 6.59059 0.0129588 6.47805 0.000682044 6.31027C-0.00750248 6.14658 0.0579737 6.02586 0.197111 5.9481L10.4114 0.0552458C10.4728 0.0184153 10.5383 0 10.6078 0C10.6897 0 10.7633 0.0225076 10.8288 0.0675229Z" fill="white"/>
</svg>
