<svg width="18" height="22" viewBox="0 0 18 22" fill="none" xmlns="http://www.w3.org/2000/svg">
<path d="M9.02516 1C13.4444 1 17.0419 4.59748 17.0419 9.01677C17.0419 9.51992 16.9958 10.0273 16.8994 10.522C16.8952 10.5514 16.8784 10.6394 16.8449 10.7904C16.7233 11.3312 16.543 11.8637 16.3082 12.3711C15.4444 14.4046 13.5451 17.5283 9.37736 20.8742C9.27254 20.9581 9.14675 21 9.02096 21C8.89518 21 8.76939 20.9581 8.66457 20.8742C4.50105 17.5283 2.59748 14.4046 1.73375 12.3711C1.49895 11.8637 1.31866 11.3354 1.19706 10.7904C1.16352 10.6394 1.14675 10.5514 1.14256 10.522C1.05031 10.0273 1 9.51992 1 9.01677C1.00838 4.59748 4.60587 1 9.02516 1ZM2.26625 10.3249C2.26625 10.3333 2.27044 10.3417 2.27044 10.3501C2.27463 10.3711 2.28721 10.434 2.30818 10.5304C2.30818 10.5346 2.30818 10.5346 2.30818 10.5388C2.413 11.0084 2.56813 11.4654 2.77358 11.9057C2.77778 11.9099 2.77778 11.9182 2.78197 11.9224C3.56604 13.7799 5.28512 16.6143 9.02516 19.7044C12.7652 16.6143 14.4843 13.7799 15.2683 11.9224C15.2725 11.9182 15.2725 11.9099 15.2767 11.9057C15.478 11.4696 15.6331 11.0084 15.7421 10.5388C15.7421 10.5346 15.7421 10.5346 15.7421 10.5304C15.7673 10.434 15.7757 10.3711 15.7799 10.3501C15.7799 10.3417 15.7841 10.3333 15.7841 10.3208C15.8679 9.88889 15.9099 9.45283 15.9099 9.01258C15.9099 5.21803 12.8197 2.12788 9.02516 2.12788C5.23061 2.12788 2.14046 5.21803 2.14046 9.01258C2.14046 9.45702 2.18239 9.89727 2.26625 10.3249Z" fill="white" stroke="white" stroke-width="0.5"/>
<path d="M9.02081 5C11.4455 5 13.4208 6.97529 13.4208 9.4C13.4208 11.8247 11.4455 13.8 9.02081 13.8C6.59609 13.8 4.62081 11.8247 4.62081 9.4C4.62081 6.97529 6.59609 5 9.02081 5ZM9.02081 12.8214C10.9091 12.8214 12.4422 11.2847 12.4422 9.4C12.4422 7.51532 10.9055 5.97858 9.02081 5.97858C7.13613 5.97858 5.59939 7.51532 5.59939 9.4C5.59939 11.2847 7.1325 12.8214 9.02081 12.8214Z" fill="white" stroke="white" stroke-width="0.5"/>
</svg>
