<svg width="53" height="84" viewBox="0 0 53 84" fill="none" xmlns="http://www.w3.org/2000/svg">
<g filter="url(#filter0_d_17_370)">
<circle cx="26.5" cy="70.5" r="7.5" fill="white"/>
</g>
<path fill-rule="evenodd" clip-rule="evenodd" d="M34.0466 52.7979C34.2473 52.1802 34.7373 51.7032 35.3496 51.4864C45.6336 47.8439 53 38.0322 53 26.5C53 11.8645 41.1355 0 26.5 0C11.8645 0 0 11.8645 0 26.5C0 37.9486 7.26 47.7016 17.4273 51.4062C18.0313 51.6263 18.5136 52.1002 18.7122 52.7116L24.4913 70.5003C25.0899 72.343 27.6969 72.343 28.2956 70.5003L34.0466 52.7979Z" fill="#639E2D"/>
<circle cx="26.5" cy="26.5" r="13.5" fill="white"/>
<defs>
<filter id="filter0_d_17_370" x="16" y="63" width="21" height="21" filterUnits="userSpaceOnUse" color-interpolation-filters="sRGB">
<feFlood flood-opacity="0" result="BackgroundImageFix"/>
<feColorMatrix in="SourceAlpha" type="matrix" values="0 0 0 0 0 0 0 0 0 0 0 0 0 0 0 0 0 0 127 0" result="hardAlpha"/>
<feOffset dy="3"/>
<feGaussianBlur stdDeviation="1.5"/>
<feComposite in2="hardAlpha" operator="out"/>
<feColorMatrix type="matrix" values="0 0 0 0 0 0 0 0 0 0 0 0 0 0 0 0 0 0 0.14 0"/>
<feBlend mode="normal" in2="BackgroundImageFix" result="effect1_dropShadow_17_370"/>
<feBlend mode="normal" in="SourceGraphic" in2="effect1_dropShadow_17_370" result="shape"/>
</filter>
</defs>
</svg>
