<svg width="16" height="18" viewBox="0 0 16 18" fill="none" xmlns="http://www.w3.org/2000/svg">
<path d="M15.6696 14.3147C15.6696 15.1853 15.3757 15.9144 14.7879 16.5022C14.2001 17.09 13.471 17.3839 12.6004 17.3839C11.596 17.3839 10.7217 17.0119 9.97768 16.2679L1.3058 7.60714C0.46503 6.75149 0.0446429 5.7433 0.0446429 4.58259C0.0446429 3.39955 0.453869 2.39509 1.27232 1.5692C2.09077 0.743303 3.09152 0.330356 4.27455 0.330356C5.45015 0.330356 6.46577 0.750743 7.32143 1.59152L14.0737 8.35491C14.1481 8.42932 14.1853 8.51116 14.1853 8.60045C14.1853 8.71949 14.0699 8.89434 13.8393 9.125C13.6161 9.34821 13.4449 9.45982 13.3259 9.45982C13.2292 9.45982 13.1436 9.42262 13.0692 9.34821L6.3058 2.57366C5.71801 2.00074 5.04464 1.71429 4.28571 1.71429C3.49702 1.71429 2.8311 1.9933 2.28795 2.55134C1.74479 3.10937 1.47321 3.78274 1.47321 4.57143C1.47321 5.35268 1.75595 6.02604 2.32143 6.59152L10.9821 15.2634C11.4509 15.7321 11.9903 15.9665 12.6004 15.9665C13.0766 15.9665 13.471 15.8103 13.7835 15.4978C14.096 15.1853 14.2522 14.7909 14.2522 14.3147C14.2522 13.7046 14.0179 13.1652 13.5491 12.6964L7.06473 6.21205C6.87128 6.03348 6.64807 5.9442 6.39509 5.9442C6.17932 5.9442 6.00074 6.01488 5.85938 6.15625C5.71801 6.29762 5.64732 6.47619 5.64732 6.69196C5.64732 6.93006 5.74033 7.14955 5.92634 7.35045L10.5022 11.9263C10.5766 12.0007 10.6138 12.0826 10.6138 12.1719C10.6138 12.2909 10.4985 12.4658 10.2679 12.6964C10.0372 12.9271 9.86235 13.0424 9.7433 13.0424C9.65402 13.0424 9.57217 13.0052 9.49777 12.9308L4.92188 8.35491C4.45313 7.90104 4.21875 7.34673 4.21875 6.69196C4.21875 6.08184 4.4308 5.56473 4.85491 5.14062C5.27902 4.71652 5.79613 4.50446 6.40625 4.50446C7.06101 4.50446 7.61533 4.73884 8.0692 5.20759L14.5536 11.692C15.2976 12.4211 15.6696 13.2954 15.6696 14.3147Z" fill="white"/>
</svg>
