<svg width="15" height="14" viewBox="0 0 15 14" fill="none" xmlns="http://www.w3.org/2000/svg">
<path d="M8.63794 8.14858C8.87308 7.85314 9.02984 7.70543 9.10822 7.70543C9.1866 7.70543 9.47902 7.83807 9.98548 8.10336C10.498 8.36865 10.7693 8.52842 10.7994 8.58269C10.8115 8.61283 10.8175 8.65805 10.8175 8.71835C10.8175 8.91731 10.7663 9.14643 10.6638 9.40569C10.5673 9.64083 10.3533 9.83979 10.0217 10.0026C9.69005 10.1593 9.38255 10.2377 9.09918 10.2377C8.75551 10.2377 8.18273 10.0508 7.38083 9.677C6.78996 9.40569 6.27747 9.04996 5.84336 8.60982C5.40925 8.16968 4.96309 7.61197 4.50486 6.93669C4.07075 6.29156 3.85671 5.70672 3.86274 5.18217V5.10982C3.88083 4.56115 4.10391 4.08484 4.53199 3.68088C4.6767 3.54823 4.83346 3.48191 5.00228 3.48191C5.03845 3.48191 5.09272 3.48794 5.16507 3.5C5.23742 3.50603 5.2947 3.50904 5.3369 3.50904C5.45146 3.50904 5.52984 3.53015 5.57205 3.57235C5.62028 3.60853 5.66851 3.68992 5.71675 3.81654C5.76498 3.93712 5.86447 4.20241 6.0152 4.6124C6.16593 5.02239 6.2413 5.24849 6.2413 5.2907C6.2413 5.41731 6.13578 5.59216 5.92476 5.81525C5.71976 6.0323 5.61726 6.17097 5.61726 6.23127C5.61726 6.27347 5.63234 6.31869 5.66248 6.36693C5.86748 6.80706 6.17497 7.22007 6.58497 7.60594C6.92261 7.9255 7.37782 8.22997 7.9506 8.51938C8.02295 8.56159 8.08927 8.58269 8.14957 8.58269C8.24 8.58269 8.40279 8.43798 8.63794 8.14858ZM7.2723 12.4987C8.03802 12.4987 8.77058 12.348 9.46998 12.0465C10.1754 11.745 10.7813 11.3411 11.2878 10.8346C11.7943 10.3282 12.1982 9.72524 12.4997 9.02584C12.8012 8.32041 12.9519 7.58484 12.9519 6.81912C12.9519 6.0534 12.8012 5.32084 12.4997 4.62145C12.1982 3.91602 11.7943 3.31008 11.2878 2.80362C10.7813 2.29716 10.1754 1.8932 9.46998 1.59173C8.77058 1.29027 8.03802 1.13953 7.2723 1.13953C6.50658 1.13953 5.77101 1.29027 5.06559 1.59173C4.36619 1.8932 3.76326 2.29716 3.2568 2.80362C2.75034 3.31008 2.34638 3.91602 2.04491 4.62145C1.74345 5.32084 1.59272 6.0534 1.59272 6.81912C1.59272 8.04307 1.95447 9.15246 2.67799 10.1473L1.96352 12.2545L4.15215 11.5581C5.10478 12.1852 6.14483 12.4987 7.2723 12.4987ZM4.62243 0.542636C5.46653 0.180879 6.34982 0 7.2723 0C8.19478 0 9.07506 0.180879 9.91313 0.542636C10.7572 0.904393 11.4838 1.38975 12.0927 1.99871C12.7017 2.60767 13.187 3.3342 13.5488 4.1783C13.9105 5.01637 14.0914 5.89664 14.0914 6.81912C14.0914 7.7416 13.9105 8.62489 13.5488 9.46899C13.187 10.3071 12.7017 11.0306 12.0927 11.6395C11.4838 12.2485 10.7572 12.7339 9.91313 13.0956C9.07506 13.4574 8.19478 13.6382 7.2723 13.6382C6.09659 13.6382 4.99625 13.3549 3.97127 12.7881L0.199951 14L1.42993 10.3372C0.778763 9.264 0.453181 8.0913 0.453181 6.81912C0.453181 5.89664 0.63406 5.01637 0.995817 4.1783C1.35757 3.3342 1.84293 2.60767 2.45189 1.99871C3.06085 1.38975 3.78436 0.904393 4.62243 0.542636Z" fill="#373737"/>
</svg>
