<svg width="10" height="6" viewBox="0 0 10 6" fill="none" xmlns="http://www.w3.org/2000/svg">
<path fill-rule="evenodd" clip-rule="evenodd" d="M6.48529 4.72794C6.48528 4.72793 6.48528 4.72793 6.48529 4.72792L9.43505 1.77816C9.82558 1.38763 9.82558 0.75447 9.43505 0.363946C9.04453 -0.0265786 8.41136 -0.026578 8.02084 0.363946L5.77817 2.60661C5.38765 2.99713 4.75449 2.99713 4.36396 2.60661L2.12134 0.363984C1.73081 -0.0265402 1.09765 -0.0265402 0.707122 0.363984C0.316598 0.754508 0.316598 1.38767 0.707122 1.7782L4.36398 5.43505C4.7545 5.82558 5.38767 5.82558 5.77819 5.43505L6.48529 4.72795C6.48529 4.72795 6.48529 4.72794 6.48529 4.72794Z" fill="url(#paint0_linear_1_63)"/>
<defs>
<linearGradient id="paint0_linear_1_63" x1="4.71888e-06" y1="1.0711" x2="5.13297" y2="6.14179" gradientUnits="userSpaceOnUse">
<stop stop-color="#52892B"/>
<stop offset="1" stop-color="#60A32F"/>
</linearGradient>
</defs>
</svg>
